<svg xmlns="http://www.w3.org/2000/svg" width="206" height="305" fill="none"><path fill="#B26B00" d="M15.154 292.13q0-1.26.42-4.14h-6.78q-.39 2.25-.39 3.09 0 2.91.9 4.35-1.8 1.35-3.75 1.35t-2.79-1.11q-.84-1.14-.84-3.36 0-2.25 1.89-12.69l-1.59-3.21q3.39-2.19 6.18-2.19 2.31 0 2.31 2.82 0 .84-1.26 7.38h6.72q.12-.75.87-4.8l-1.59-3.21q3.39-2.19 6.18-2.19 2.31 0 2.31 2.82 0 .93-1.17 6.93-1.14 5.97-1.14 7.11 0 2.91.9 4.35-1.8 1.35-3.75 1.35t-2.79-1.11q-.84-1.14-.84-3.54m22.507.18-.3-.15q-.81 2.16-2.34 3.39-1.5 1.2-3.36 1.2-2.55 0-4.08-1.92t-1.53-5.13q0-4.98 3.33-8.34 3.36-3.36 8.34-3.36 1.29 0 2.37.24.18.84.21 1.47 1.5-.96 3.09-.96 2.19 0 2.19 2.37 0 .84-.96 5.07-.93 4.23-.93 6.27t.93 2.82q-1.68 1.47-3.51 1.47-1.8 0-2.64-1.08-.81-1.08-.81-3.36m-5.97-4.08q0 1.47.6 2.28.63.78 1.77.78t2.25-.84 1.86-2.31q.27-3.03 1.17-7.17-3.03 0-5.34 2.19t-2.31 5.07m20.23 13.74q-1.86 0-2.61-.93-.72-.9-.72-2.64 0-1.71.72-6.93.75-5.22 1.44-8.91l-1.68-2.4q1.86-1.08 3.21-1.62 1.35-.57 2.67-.57 2.16 0 2.16 2.85 0 .39-.12 1.59l.3.15q.87-2.16 2.52-3.36 1.65-1.23 3.87-1.23 2.25 0 3.57 2.04 1.32 2.01 1.32 5.01 0 4.02-2.82 7.32-1.38 1.62-3.69 2.64-2.31.99-5.16.99-.87 0-2.28-.15-.09 1.05-.09 1.95 0 1.92.93 2.73-1.68 1.47-3.54 1.47m3.93-12.42-.69 3.48q3.63-.09 5.79-2.37 2.19-2.31 2.19-5.04 0-1.41-.57-2.25-.54-.87-1.59-.87-3.72 0-5.13 7.05m19.038 12.42q-1.86 0-2.61-.93-.72-.9-.72-2.64 0-1.71.72-6.93.75-5.22 1.44-8.91l-1.68-2.4q1.86-1.08 3.21-1.62 1.35-.57 2.67-.57 2.16 0 2.16 2.85 0 .39-.12 1.59l.3.15q.87-2.16 2.52-3.36 1.65-1.23 3.87-1.23 2.25 0 3.57 2.04 1.32 2.01 1.32 5.01 0 4.02-2.82 7.32-1.38 1.62-3.69 2.64-2.31.99-5.16.99-.87 0-2.28-.15-.09 1.05-.09 1.95 0 1.92.93 2.73-1.68 1.47-3.54 1.47m3.93-12.42-.69 3.48q3.63-.09 5.79-2.37 2.19-2.31 2.19-5.04 0-1.41-.57-2.25-.54-.87-1.59-.87-3.72 0-5.13 7.05m24.019 5.85q-1.41.51-2.82.51t-2.37-.84-1.11-2.28-.27-4.17q-.12-2.76-.24-3.9-.39-3.81-2.4-5.43 1.41-1.29 3.54-1.29 1.17 0 2.04.63.87.6 1.38 1.62.54.99.87 2.58.51 2.64.51 7.14 0 1.11-.09 2.61h1.74q3.09-8.34 3.09-11.37 0-1.02-.45-1.92 2.1-1.29 3.66-1.29 2.91 0 2.91 3.36 0 2.67-2.46 9.39-.45 1.23-.51 1.44-3.81 10.86-10.83 10.86-2.13 0-3.51-.93-1.38-.9-1.38-2.4 0-1.47 1.11-3.09 1.44 2.04 3.6 2.04 1.23 0 2.28-.81 1.08-.81 1.71-2.46m36.873-18.06-1.68-2.4q3.75-2.19 5.91-2.19 1.23 0 1.74.51.51.48.51 1.86 0 1.35-1.35 7.68-1.32 6.33-1.32 8.88t.93 3.6q-2.1 1.47-3.81 1.47t-2.52-1.11q-.78-1.14-.78-3.12t1.11-8.1 1.26-7.08m19.883 14.97-.3-.15q-.81 2.16-2.34 3.39-1.5 1.2-3.36 1.2-2.55 0-4.08-1.92t-1.53-5.13q0-4.98 3.33-8.34 3.36-3.36 8.34-3.36 1.29 0 2.37.24.18.84.21 1.47 1.5-.96 3.09-.96 2.19 0 2.19 2.37 0 .84-.96 5.07-.93 4.23-.93 6.27t.93 2.82q-1.68 1.47-3.51 1.47-1.8 0-2.64-1.08-.81-1.08-.81-3.36m-5.97-4.08q0 1.47.6 2.28.63.78 1.77.78t2.25-.84 1.86-2.31q.27-3.03 1.17-7.17-3.03 0-5.34 2.19t-2.31 5.07m20.35 8.52q-1.77 0-2.61-.93t-.84-2.46.6-4.98q.63-3.45 1.29-6.3l-1.56-2.4q2.97-1.68 5.49-1.68t2.52 2.28q0 1.5-.69 3.06l.3.15q3.21-5.49 8.16-5.49 3.63 0 3.63 3.63 0 1.56-.9 5.28-.87 3.72-.87 5.61t.63 2.76q-1.59 1.47-3.36 1.47-3.45 0-3.45-3.72 0-1.38.9-4.68t.9-4.29q0-1.35-1.02-1.35-.84 0-1.92.75-1.08.72-2.1 1.98-.99 1.23-1.68 3.15-.69 1.89-.69 3.87 0 1.95.63 2.82-1.59 1.47-3.36 1.47m19.644-11.58q-.21-.84-.21-1.56 0-1.47.87-2.22t2.25-.75q0-1.56-.81-3.39 1.47-1.08 2.67-1.62 1.23-.57 2.58-.57t1.86.51q.54.48.54 1.5t-.42 3.18q1.2-.18 2.43-.51.21.63.21 1.62t-.78 1.86q-.75.84-2.22.84h-.45q-1.08 4.89-1.08 7.53t.93 3.69q-1.68 1.47-3.57 1.47t-2.73-1.11q-.81-1.14-.81-3.51 0-1.44 1.05-7.56-1.2.21-2.31.6"/><path fill="#00BF35" d="M122.197 289.43q-.18 1.08-.18 1.65 0 2.91.9 4.35-1.8 1.35-3.75 1.35t-2.79-1.11q-.84-1.14-.84-3.36 0-2.25 1.89-12.69l-1.59-3.21q3.39-2.19 6.18-2.19.78 0 1.71.3.93.27 1.32.63 2.22-.87 4.11-.87 2.82 0 4.44 1.98 1.65 1.95 1.65 4.74 0 3.36-2.43 6-1.17 1.29-3.15 2.07t-4.05.78q-2.04 0-3.42-.42m.57-3.42q.42.09.87.09 1.92 0 3.42-1.35t1.5-3.33q0-1.38-.81-2.34-.78-.96-2.22-.96-.6 0-1.38.24-.6 4.11-1.38 7.65"/><g filter="url(#a)"><path fill="#F2DE95" d="M50.27 259.093c-3.597 1.373-7.334-1.657-6.726-5.454l5.43-33.892c.608-3.799 5.106-5.516 8.096-3.092l26.688 21.64c2.99 2.424 2.229 7.172-1.37 8.545z"/></g><g filter="url(#b)"><path fill="#F2DE95" d="M163.454 253.667c.608 3.797-3.129 6.826-6.727 5.453l-32.116-12.255c-3.599-1.374-4.36-6.121-1.37-8.546l26.69-21.637c2.99-2.424 7.489-.706 8.097 3.092z"/></g><g filter="url(#c)"><path fill="#B36B00" d="m120.635 121.51 1.196-18.579H87.554c.934 8.647.262 9.932 1.197 18.579-.009 9.539-6.688 22.387-12.405 30.055L54.29 175.594a44.4 44.4 0 0 0-8.814 26.492c0 11.7 4.682 22.921 13.017 31.193S78.132 246.2 89.92 246.2h29.547c11.788 0 23.092-4.648 31.427-12.921s13.018-19.493 13.018-31.193a44.4 44.4 0 0 0-8.815-26.492l-22.057-23.413c-5.844-7.837-12.53-20.922-12.404-30.671"/></g><g filter="url(#d)"><path fill="#2DDF00" d="m132.575 104.317-19.479 9.466c-2.595-7.075-3.906-14.692-3.859-22.416a66 66 0 0 1 4.134-22.602c2.682-7.198 6.589-13.773 11.498-19.348 4.909-5.576 10.724-10.043 17.112-13.148l19.479-9.466c5.241 14.288 5.142 30.481-.275 45.018s-15.708 26.226-28.61 32.496"/></g><g filter="url(#e)"><path fill="#2DDF00" d="m95.2 90.504.973 23.428c-6.928.06-13.85-1.395-20.373-4.281s-12.518-7.146-17.642-12.537c-5.125-5.391-9.278-11.808-12.224-18.885a65.3 65.3 0 0 1-4.946-22.356l-.973-23.43c13.991-.12 27.665 5.93 38.015 16.819S94.555 74.985 95.2 90.504"/></g><g filter="url(#f)"><path fill="#2DDF00" d="M80.307 60.344c-.032-13.058 3.558-25.899 10.417-37.255L103.998 0l13.274 23.09c7.445 12.454 11.022 26.622 10.324 40.892-.978 18.867-9.39 36.717-23.598 50.077C89.81 100.721 81.4 82.906 80.4 64.069c-.093-1.386-.093-2.513-.093-3.725"/></g><g filter="url(#g)"><ellipse cx="104.692" cy="198.212" fill="#F2DE95" rx="43.891" ry="36.861"/></g><g filter="url(#h)"><ellipse cx="122.806" cy="190.562" fill="#fff" rx="10.45" ry="16.692"/></g><g filter="url(#i)"><ellipse cx="122.806" cy="190.562" fill="#00FF47" rx="7.664" ry="12.519"/></g><path fill="#00BF4C" d="M127.683 190.562c0 4.609-2.183 8.345-4.877 8.345s-4.876-3.736-4.876-8.345c0-4.61 2.183-8.346 4.876-8.346s4.877 3.736 4.877 8.346"/><path fill="#fff" d="M122.109 184.302a3.48 3.48 0 0 1-3.483 3.478 3.48 3.48 0 0 1-3.483-3.478 3.48 3.48 0 0 1 3.483-3.477 3.48 3.48 0 0 1 3.483 3.477"/><g filter="url(#j)"><ellipse cx="85.185" cy="190.562" fill="#fff" rx="10.45" ry="16.692"/></g><g filter="url(#k)"><ellipse cx="85.185" cy="190.562" fill="#00FF47" rx="7.664" ry="12.519"/></g><path fill="#00BF4C" d="M90.062 190.562c0 4.609-2.183 8.345-4.877 8.345s-4.876-3.736-4.876-8.345c0-4.61 2.183-8.346 4.876-8.346s4.877 3.736 4.877 8.346"/><path fill="#fff" d="M84.488 184.302a3.48 3.48 0 0 1-3.483 3.478 3.48 3.48 0 0 1-3.483-3.478 3.48 3.48 0 0 1 3.483-3.477 3.48 3.48 0 0 1 3.483 3.477"/><path fill="#855000" d="M114.55 214.903c.327 0 .595.266.567.592a7.3 7.3 0 0 1-.876 2.868c-.595 1.097-1.468 2.094-2.568 2.933-1.099.84-2.405 1.506-3.842 1.96a15 15 0 0 1-4.532.689c-1.556 0-3.096-.234-4.533-.689s-2.742-1.12-3.842-1.96-1.972-1.836-2.567-2.933a7.3 7.3 0 0 1-.877-2.868.555.555 0 0 1 .567-.592c.327 0 .59.266.62.592.083.866.347 1.718.784 2.522.536.987 1.32 1.885 2.31 2.64s2.165 1.355 3.459 1.764c1.293.409 2.679.619 4.079.619s2.786-.21 4.079-.619 2.468-1.008 3.458-1.764c.99-.755 1.775-1.653 2.311-2.64.436-.804.7-1.656.783-2.522.031-.326.293-.592.62-.592"/><defs><filter id="a" width="42.129" height="43.897" x="43.478" y="215.533" color-interpolation-filters="sRGB" filterUnits="userSpaceOnUse"><feFlood flood-opacity="0" result="BackgroundImageFix"/><feBlend in="SourceGraphic" in2="BackgroundImageFix" result="shape"/><feColorMatrix in="SourceAlpha" result="hardAlpha" values="0 0 0 0 0 0 0 0 0 0 0 0 0 0 0 0 0 0 127 0"/><feOffset dx="-2" dy="-3"/><feComposite in2="hardAlpha" k2="-1" k3="1" operator="arithmetic"/><feColorMatrix values="0 0 0 0 0 0 0 0 0 0 0 0 0 0 0 0 0 0 0.25 0"/><feBlend in2="shape" result="effect1_innerShadow_750_30044"/></filter><filter id="b" width="42.129" height="43.897" x="121.391" y="215.56" color-interpolation-filters="sRGB" filterUnits="userSpaceOnUse"><feFlood flood-opacity="0" result="BackgroundImageFix"/><feBlend in="SourceGraphic" in2="BackgroundImageFix" result="shape"/><feColorMatrix in="SourceAlpha" result="hardAlpha" values="0 0 0 0 0 0 0 0 0 0 0 0 0 0 0 0 0 0 127 0"/><feOffset dx="-2" dy="-3"/><feComposite in2="hardAlpha" k2="-1" k3="1" operator="arithmetic"/><feColorMatrix values="0 0 0 0 0 0 0 0 0 0 0 0 0 0 0 0 0 0 0.25 0"/><feBlend in2="shape" result="effect1_innerShadow_750_30044"/></filter><filter id="c" width="118.436" height="143.269" x="45.475" y="102.931" color-interpolation-filters="sRGB" filterUnits="userSpaceOnUse"><feFlood flood-opacity="0" result="BackgroundImageFix"/><feBlend in="SourceGraphic" in2="BackgroundImageFix" result="shape"/><feColorMatrix in="SourceAlpha" result="hardAlpha" values="0 0 0 0 0 0 0 0 0 0 0 0 0 0 0 0 0 0 127 0"/><feOffset dx="-2" dy="-4"/><feComposite in2="hardAlpha" k2="-1" k3="1" operator="arithmetic"/><feColorMatrix values="0 0 0 0 0 0 0 0 0 0 0 0 0 0 0 0 0 0 0.25 0"/><feBlend in2="shape" result="effect1_innerShadow_750_30044"/></filter><filter id="d" width="56.084" height="86.98" x="109.236" y="26.803" color-interpolation-filters="sRGB" filterUnits="userSpaceOnUse"><feFlood flood-opacity="0" result="BackgroundImageFix"/><feBlend in="SourceGraphic" in2="BackgroundImageFix" result="shape"/><feColorMatrix in="SourceAlpha" result="hardAlpha" values="0 0 0 0 0 0 0 0 0 0 0 0 0 0 0 0 0 0 127 0"/><feOffset dx="-2" dy="-4"/><feComposite in2="hardAlpha" k2="-1" k3="1" operator="arithmetic"/><feColorMatrix values="0 0 0 0 0 0 0 0 0 0 0 0 0 0 0 0 0 0 0.25 0"/><feBlend in2="shape" result="effect1_innerShadow_750_30044"/></filter><filter id="e" width="56.16" height="81.493" x="40.014" y="32.442" color-interpolation-filters="sRGB" filterUnits="userSpaceOnUse"><feFlood flood-opacity="0" result="BackgroundImageFix"/><feBlend in="SourceGraphic" in2="BackgroundImageFix" result="shape"/><feColorMatrix in="SourceAlpha" result="hardAlpha" values="0 0 0 0 0 0 0 0 0 0 0 0 0 0 0 0 0 0 127 0"/><feOffset dx="-2" dy="-4"/><feComposite in2="hardAlpha" k2="-1" k3="1" operator="arithmetic"/><feColorMatrix values="0 0 0 0 0 0 0 0 0 0 0 0 0 0 0 0 0 0 0.25 0"/><feBlend in2="shape" result="effect1_innerShadow_750_30044"/></filter><filter id="f" width="47.375" height="114.059" x="80.307" y="0" color-interpolation-filters="sRGB" filterUnits="userSpaceOnUse"><feFlood flood-opacity="0" result="BackgroundImageFix"/><feBlend in="SourceGraphic" in2="BackgroundImageFix" result="shape"/><feColorMatrix in="SourceAlpha" result="hardAlpha" values="0 0 0 0 0 0 0 0 0 0 0 0 0 0 0 0 0 0 127 0"/><feOffset dx="-2" dy="-4"/><feComposite in2="hardAlpha" k2="-1" k3="1" operator="arithmetic"/><feColorMatrix values="0 0 0 0 0 0 0 0 0 0 0 0 0 0 0 0 0 0 0.25 0"/><feBlend in2="shape" result="effect1_innerShadow_750_30044"/></filter><filter id="g" width="87.781" height="73.721" x="60.801" y="161.351" color-interpolation-filters="sRGB" filterUnits="userSpaceOnUse"><feFlood flood-opacity="0" result="BackgroundImageFix"/><feBlend in="SourceGraphic" in2="BackgroundImageFix" result="shape"/><feColorMatrix in="SourceAlpha" result="hardAlpha" values="0 0 0 0 0 0 0 0 0 0 0 0 0 0 0 0 0 0 127 0"/><feOffset dx="-2" dy="-2"/><feComposite in2="hardAlpha" k2="-1" k3="1" operator="arithmetic"/><feColorMatrix values="0 0 0 0 0 0 0 0 0 0 0 0 0 0 0 0 0 0 0.25 0"/><feBlend in2="shape" result="effect1_innerShadow_750_30044"/></filter><filter id="h" width="20.9" height="33.383" x="112.355" y="173.87" color-interpolation-filters="sRGB" filterUnits="userSpaceOnUse"><feFlood flood-opacity="0" result="BackgroundImageFix"/><feBlend in="SourceGraphic" in2="BackgroundImageFix" result="shape"/><feColorMatrix in="SourceAlpha" result="hardAlpha" values="0 0 0 0 0 0 0 0 0 0 0 0 0 0 0 0 0 0 127 0"/><feOffset dy="2"/><feComposite in2="hardAlpha" k2="-1" k3="1" operator="arithmetic"/><feColorMatrix values="0 0 0 0 0 0 0 0 0 0 0 0 0 0 0 0 0 0 0.15 0"/><feBlend in2="shape" result="effect1_innerShadow_750_30044"/></filter><filter id="i" width="15.326" height="25.037" x="115.143" y="178.043" color-interpolation-filters="sRGB" filterUnits="userSpaceOnUse"><feFlood flood-opacity="0" result="BackgroundImageFix"/><feBlend in="SourceGraphic" in2="BackgroundImageFix" result="shape"/><feColorMatrix in="SourceAlpha" result="hardAlpha" values="0 0 0 0 0 0 0 0 0 0 0 0 0 0 0 0 0 0 127 0"/><feOffset dy="4"/><feComposite in2="hardAlpha" k2="-1" k3="1" operator="arithmetic"/><feColorMatrix values="0 0 0 0 0 0 0 0 0 0 0 0 0 0 0 0 0 0 0.25 0"/><feBlend in2="shape" result="effect1_innerShadow_750_30044"/></filter><filter id="j" width="20.9" height="33.383" x="74.734" y="173.87" color-interpolation-filters="sRGB" filterUnits="userSpaceOnUse"><feFlood flood-opacity="0" result="BackgroundImageFix"/><feBlend in="SourceGraphic" in2="BackgroundImageFix" result="shape"/><feColorMatrix in="SourceAlpha" result="hardAlpha" values="0 0 0 0 0 0 0 0 0 0 0 0 0 0 0 0 0 0 127 0"/><feOffset dy="2"/><feComposite in2="hardAlpha" k2="-1" k3="1" operator="arithmetic"/><feColorMatrix values="0 0 0 0 0 0 0 0 0 0 0 0 0 0 0 0 0 0 0.15 0"/><feBlend in2="shape" result="effect1_innerShadow_750_30044"/></filter><filter id="k" width="15.326" height="25.037" x="77.522" y="178.043" color-interpolation-filters="sRGB" filterUnits="userSpaceOnUse"><feFlood flood-opacity="0" result="BackgroundImageFix"/><feBlend in="SourceGraphic" in2="BackgroundImageFix" result="shape"/><feColorMatrix in="SourceAlpha" result="hardAlpha" values="0 0 0 0 0 0 0 0 0 0 0 0 0 0 0 0 0 0 127 0"/><feOffset dy="4"/><feComposite in2="hardAlpha" k2="-1" k3="1" operator="arithmetic"/><feColorMatrix values="0 0 0 0 0 0 0 0 0 0 0 0 0 0 0 0 0 0 0.25 0"/><feBlend in2="shape" result="effect1_innerShadow_750_30044"/></filter></defs></svg>