<svg xmlns="http://www.w3.org/2000/svg" width="132" height="125" fill="none"><g filter="url(#a)"><g filter="url(#b)"><path fill="#fff" d="M9.875 43.248a6.346 6.346 0 0 1 6.308-7.05h99.63c3.784 0 6.728 3.29 6.308 7.05l-8.117 72.673a6.347 6.347 0 0 1-6.307 5.642H24.3a6.347 6.347 0 0 1-6.308-5.642z"/><path fill="url(#c)" d="M9.875 43.248a6.346 6.346 0 0 1 6.308-7.05h99.63c3.784 0 6.728 3.29 6.308 7.05l-8.117 72.673a6.347 6.347 0 0 1-6.307 5.642H24.3a6.347 6.347 0 0 1-6.308-5.642z"/></g><g filter="url(#d)"><path fill="#2DDF00" d="M125.654 3H6.346A6.346 6.346 0 0 0 0 9.346v25.05a6.346 6.346 0 0 0 6.346 6.346h119.308A6.346 6.346 0 0 0 132 34.397V9.346A6.346 6.346 0 0 0 125.654 3"/></g></g><path fill="#008B0E" d="M54.724 74.59c.856 0 1.562-.699 1.434-1.545a10.332 10.332 0 0 0-20.433 0c-.128.846.578 1.544 1.434 1.544s1.534-.701 1.715-1.538a7.233 7.233 0 0 1 14.135 0c.182.837.86 1.538 1.715 1.538M96.054 74.59c.856 0 1.562-.699 1.434-1.545a10.332 10.332 0 0 0-20.433 0c-.127.846.578 1.544 1.434 1.544s1.534-.701 1.716-1.538a7.233 7.233 0 0 1 14.134 0c.182.837.86 1.538 1.715 1.538M75.388 84.315c.856 0 1.562.697 1.434 1.544a10.334 10.334 0 0 1-14.17 8.002 10.34 10.34 0 0 1-6.263-8.002c-.128-.847.578-1.544 1.434-1.544s1.533.701 1.716 1.538a7.233 7.233 0 0 0 14.134 0c.182-.837.86-1.538 1.715-1.538"/><defs><filter id="a" width="160.455" height="147.018" x="-14.227" y="-11.227" color-interpolation-filters="sRGB" filterUnits="userSpaceOnUse"><feFlood flood-opacity="0" result="BackgroundImageFix"/><feBlend in="SourceGraphic" in2="BackgroundImageFix" result="shape"/><feColorMatrix in="SourceAlpha" result="hardAlpha" values="0 0 0 0 0 0 0 0 0 0 0 0 0 0 0 0 0 0 127 0"/><feOffset dx="-14.227" dy="-14.227"/><feGaussianBlur stdDeviation="7.114"/><feComposite in2="hardAlpha" k2="-1" k3="1" operator="arithmetic"/><feColorMatrix values="0 0 0 0 0 0 0 0 0 0 0 0 0 0 0 0 0 0 0.25 0"/><feBlend in2="shape" result="effect1_innerShadow_894_30128"/><feColorMatrix in="SourceAlpha" result="hardAlpha" values="0 0 0 0 0 0 0 0 0 0 0 0 0 0 0 0 0 0 127 0"/><feOffset dx="14.227" dy="14.227"/><feGaussianBlur stdDeviation="7.114"/><feComposite in2="hardAlpha" k2="-1" k3="1" operator="arithmetic"/><feColorMatrix values="0 0 0 0 1 0 0 0 0 1 0 0 0 0 1 0 0 0 0.5 0"/><feBlend in2="effect1_innerShadow_894_30128" result="effect2_innerShadow_894_30128"/></filter><filter id="b" width="112.324" height="85.365" x="9.836" y="36.197" color-interpolation-filters="sRGB" filterUnits="userSpaceOnUse"><feFlood flood-opacity="0" result="BackgroundImageFix"/><feBlend in="SourceGraphic" in2="BackgroundImageFix" result="shape"/><feColorMatrix in="SourceAlpha" result="hardAlpha" values="0 0 0 0 0 0 0 0 0 0 0 0 0 0 0 0 0 0 127 0"/><feOffset dx="-4.743" dy="-4.743"/><feComposite in2="hardAlpha" k2="-1" k3="1" operator="arithmetic"/><feColorMatrix values="0 0 0 0 0 0 0 0 0 0 0 0 0 0 0 0 0 0 0.25 0"/><feBlend in2="shape" result="effect1_innerShadow_894_30128"/><feColorMatrix in="SourceAlpha" result="hardAlpha" values="0 0 0 0 0 0 0 0 0 0 0 0 0 0 0 0 0 0 127 0"/><feOffset dy="9.485"/><feComposite in2="hardAlpha" k2="-1" k3="1" operator="arithmetic"/><feColorMatrix values="0 0 0 0 0 0 0 0 0 0 0 0 0 0 0 0 0 0 0.25 0"/><feBlend in2="effect1_innerShadow_894_30128" result="effect2_innerShadow_894_30128"/></filter><filter id="d" width="132" height="37.743" x="0" y="3" color-interpolation-filters="sRGB" filterUnits="userSpaceOnUse"><feFlood flood-opacity="0" result="BackgroundImageFix"/><feBlend in="SourceGraphic" in2="BackgroundImageFix" result="shape"/><feColorMatrix in="SourceAlpha" result="hardAlpha" values="0 0 0 0 0 0 0 0 0 0 0 0 0 0 0 0 0 0 127 0"/><feOffset dx="-4.743" dy="-4.743"/><feComposite in2="hardAlpha" k2="-1" k3="1" operator="arithmetic"/><feColorMatrix values="0 0 0 0 0 0 0 0 0 0 0 0 0 0 0 0 0 0 0.25 0"/><feBlend in2="shape" result="effect1_innerShadow_894_30128"/></filter><linearGradient id="c" x1="65.998" x2="65.998" y1="36.197" y2="121.563" gradientUnits="userSpaceOnUse"><stop stop-color="#fff" stop-opacity="0"/><stop offset="1" stop-color="#2DDF00" stop-opacity=".5"/></linearGradient></defs></svg>