<svg xmlns="http://www.w3.org/2000/svg" width="27" height="27" fill="none"><g filter="url(#a)"><path fill="#F5DD00" fill-rule="evenodd" d="M4.097 16.939c0 5.121 9.205 8.186 9.205 8.186s9.204-3.065 9.258-8.133c0-1.532-.268-2.298-.536-3.064-.268-.767-.536-1.533-.536-3.065a12.5 12.5 0 0 1 1.072-5.122l-1.072-2.046h-4.093a10.6 10.6 0 0 1-4.093-1.072 10.6 10.6 0 0 1-4.094 1.018H5.115L4.097 5.688a12.5 12.5 0 0 1 1.018 5.122c0 1.532-.254 2.298-.509 3.064-.254.766-.509 1.532-.509 3.065m8.783-7.534a.429.429 0 0 1 .77 0l1.27 2.593a.43.43 0 0 0 .323.235l2.861.414c.352.05.492.482.24.73l-2.078 2.036a.43.43 0 0 0-.122.38l.496 2.842a.429.429 0 0 1-.622.453l-2.553-1.344a.43.43 0 0 0-.4 0l-2.553 1.344a.429.429 0 0 1-.622-.453l.496-2.842a.43.43 0 0 0-.122-.38l-2.077-2.036a.429.429 0 0 1 .239-.73l2.861-.414a.43.43 0 0 0 .324-.235z" clip-rule="evenodd"/></g><defs><filter id="a" width="19.058" height="23.097" x="3.8" y="2.325" color-interpolation-filters="sRGB" filterUnits="userSpaceOnUse"><feFlood flood-opacity="0" result="BackgroundImageFix"/><feBlend in="SourceGraphic" in2="BackgroundImageFix" result="shape"/><feColorMatrix in="SourceAlpha" result="hardAlpha" values="0 0 0 0 0 0 0 0 0 0 0 0 0 0 0 0 0 0 127 0"/><feOffset dx=".298" dy=".298"/><feGaussianBlur stdDeviation=".298"/><feComposite in2="hardAlpha" k2="-1" k3="1" operator="arithmetic"/><feColorMatrix values="0 0 0 0 1 0 0 0 0 1 0 0 0 0 1 0 0 0 1 0"/><feBlend in2="shape" result="effect1_innerShadow_791_51777"/><feColorMatrix in="SourceAlpha" result="hardAlpha" values="0 0 0 0 0 0 0 0 0 0 0 0 0 0 0 0 0 0 127 0"/><feOffset dx="-.298" dy="-.298"/><feGaussianBlur stdDeviation=".298"/><feComposite in2="hardAlpha" k2="-1" k3="1" operator="arithmetic"/><feColorMatrix values="0 0 0 0 0.829167 0 0 0 0 0.64903 0 0 0 0 0.0103646 0 0 0 1 0"/><feBlend in2="effect1_innerShadow_791_51777" result="effect2_innerShadow_791_51777"/></filter></defs></svg>