<svg xmlns="http://www.w3.org/2000/svg" width="70" height="107" fill="none"><g clip-path="url(#a)"><g filter="url(#b)"><path fill="#F2DE95" d="M14.202 106.492c-2.066.789-4.21-.953-3.862-3.136l1.796-11.229c.349-2.183 2.93-3.17 4.646-1.775l8.827 7.169c1.716 1.394 1.28 4.123-.786 4.912z"/></g><g filter="url(#c)"><path fill="#F2DE95" d="M59.328 103.367c.35 2.184-1.796 3.926-3.861 3.136l-10.622-4.06c-2.065-.789-2.501-3.518-.785-4.912l8.827-7.169c1.716-1.393 4.298-.406 4.647 1.777z"/></g><g filter="url(#d)"><path fill="#B36B00" d="m41.898 50.178.493-7.672H28.26c.385 3.57.107 4.1.493 7.672-.004 3.939-2.757 9.245-5.114 12.411l-9.093 9.923a18.35 18.35 0 0 0-3.633 10.94c0 4.831 1.93 9.465 5.366 12.881a18.38 18.38 0 0 0 12.955 5.336h12.18c4.86 0 9.52-1.92 12.956-5.336a18.16 18.16 0 0 0 5.366-12.881 18.35 18.35 0 0 0-3.633-10.94l-9.093-9.668c-2.41-3.237-5.165-8.64-5.114-12.666"/></g><g filter="url(#e)"><path fill="#2DDF00" d="m46.82 43.078-8.03 3.909a26.5 26.5 0 0 1-1.59-9.257c.018-3.19.598-6.361 1.703-9.333 1.106-2.973 2.717-5.688 4.74-7.99s4.421-4.148 7.054-5.43l8.03-3.909c2.16 5.9 2.12 12.588-.113 18.59s-6.476 10.83-11.794 13.42"/></g><g filter="url(#f)"><path fill="#2DDF00" d="m31.413 37.374.4 9.675c-2.855.024-5.71-.577-8.398-1.768-2.689-1.192-5.16-2.951-7.273-5.178s-3.824-4.876-5.039-7.798a27 27 0 0 1-2.039-9.232l-.401-9.675c5.768-.05 11.405 2.448 15.671 6.945 4.267 4.496 6.813 10.622 7.079 17.03"/></g><g filter="url(#g)"><path fill="#2DDF00" d="M25.274 24.919c-.014-5.392 1.467-10.695 4.294-15.384L35.04 0l5.472 9.535c3.07 5.143 4.544 10.994 4.256 16.887-.403 7.79-3.87 15.162-9.728 20.679-5.849-5.508-9.316-12.865-9.728-20.644-.038-.572-.038-1.037-.038-1.538"/></g><g filter="url(#h)"><ellipse cx="35.325" cy="81.852" fill="#F2DE95" rx="18.094" ry="15.222"/></g><g filter="url(#i)"><ellipse cx="42.793" cy="78.693" fill="#fff" rx="4.308" ry="6.893"/></g><g filter="url(#j)"><ellipse cx="42.792" cy="78.693" fill="#00FF47" rx="3.159" ry="5.17"/></g><path fill="#00BF4C" d="M44.803 78.693c0 1.903-.9 3.446-2.01 3.446s-2.01-1.543-2.01-3.446.9-3.447 2.01-3.447 2.01 1.543 2.01 3.447"/><path fill="#fff" d="M42.505 76.108a1.436 1.436 0 1 1-2.872 0 1.436 1.436 0 0 1 2.872 0"/><g filter="url(#k)"><ellipse cx="27.284" cy="78.693" fill="#fff" rx="4.308" ry="6.893"/></g><g filter="url(#l)"><ellipse cx="27.284" cy="78.693" fill="#00FF47" rx="3.159" ry="5.17"/></g><path fill="#00BF4C" d="M29.294 78.693c0 1.903-.9 3.446-2.01 3.446s-2.01-1.543-2.01-3.446.9-3.447 2.01-3.447 2.01 1.543 2.01 3.447"/><path fill="#fff" d="M26.997 76.108a1.436 1.436 0 1 1-2.872 0 1.436 1.436 0 0 1 2.872 0"/><path fill="#855000" d="M39.39 88.745c.134 0 .245.11.233.243a3 3 0 0 1-.361 1.185 3.85 3.85 0 0 1-1.059 1.212 5.2 5.2 0 0 1-1.584.809 6.2 6.2 0 0 1-1.868.284 6.2 6.2 0 0 1-1.868-.284 5.2 5.2 0 0 1-1.584-.81 3.85 3.85 0 0 1-1.059-1.21 3 3 0 0 1-.36-1.186.23.23 0 0 1 .233-.243c.135 0 .243.11.256.243.034.358.142.71.322 1.043.221.407.545.778.953 1.09s.892.56 1.425.728a5.6 5.6 0 0 0 1.682.256c.577 0 1.149-.087 1.682-.256a4.7 4.7 0 0 0 1.425-.728c.408-.312.732-.683.953-1.09.18-.333.289-.685.323-1.043a.263.263 0 0 1 .255-.243"/></g><defs><filter id="b" width="16.368" height="16.98" x="10.303" y="89.706" color-interpolation-filters="sRGB" filterUnits="userSpaceOnUse"><feFlood flood-opacity="0" result="BackgroundImageFix"/><feBlend in="SourceGraphic" in2="BackgroundImageFix" result="shape"/><feColorMatrix in="SourceAlpha" result="hardAlpha" values="0 0 0 0 0 0 0 0 0 0 0 0 0 0 0 0 0 0 127 0"/><feOffset dx="-1.149" dy="-1.723"/><feComposite in2="hardAlpha" k2="-1" k3="1" operator="arithmetic"/><feColorMatrix values="0 0 0 0 0 0 0 0 0 0 0 0 0 0 0 0 0 0 0.25 0"/><feBlend in2="shape" result="effect1_innerShadow_552_1468"/></filter><filter id="c" width="16.368" height="16.98" x="42.998" y="89.717" color-interpolation-filters="sRGB" filterUnits="userSpaceOnUse"><feFlood flood-opacity="0" result="BackgroundImageFix"/><feBlend in="SourceGraphic" in2="BackgroundImageFix" result="shape"/><feColorMatrix in="SourceAlpha" result="hardAlpha" values="0 0 0 0 0 0 0 0 0 0 0 0 0 0 0 0 0 0 127 0"/><feOffset dx="-1.149" dy="-1.723"/><feComposite in2="hardAlpha" k2="-1" k3="1" operator="arithmetic"/><feColorMatrix values="0 0 0 0 0 0 0 0 0 0 0 0 0 0 0 0 0 0 0.25 0"/><feBlend in2="shape" result="effect1_innerShadow_552_1468"/></filter><filter id="d" width="48.824" height="59.163" x="10.914" y="42.506" color-interpolation-filters="sRGB" filterUnits="userSpaceOnUse"><feFlood flood-opacity="0" result="BackgroundImageFix"/><feBlend in="SourceGraphic" in2="BackgroundImageFix" result="shape"/><feColorMatrix in="SourceAlpha" result="hardAlpha" values="0 0 0 0 0 0 0 0 0 0 0 0 0 0 0 0 0 0 127 0"/><feOffset dx="-1.149" dy="-2.298"/><feComposite in2="hardAlpha" k2="-1" k3="1" operator="arithmetic"/><feColorMatrix values="0 0 0 0 0 0 0 0 0 0 0 0 0 0 0 0 0 0 0.25 0"/><feBlend in2="shape" result="effect1_innerShadow_552_1468"/></filter><filter id="e" width="23.12" height="35.919" x="37.199" y="11.068" color-interpolation-filters="sRGB" filterUnits="userSpaceOnUse"><feFlood flood-opacity="0" result="BackgroundImageFix"/><feBlend in="SourceGraphic" in2="BackgroundImageFix" result="shape"/><feColorMatrix in="SourceAlpha" result="hardAlpha" values="0 0 0 0 0 0 0 0 0 0 0 0 0 0 0 0 0 0 127 0"/><feOffset dx="-1.149" dy="-2.298"/><feComposite in2="hardAlpha" k2="-1" k3="1" operator="arithmetic"/><feColorMatrix values="0 0 0 0 0 0 0 0 0 0 0 0 0 0 0 0 0 0 0.25 0"/><feBlend in2="shape" result="effect1_innerShadow_552_1468"/></filter><filter id="f" width="23.151" height="33.653" x="8.663" y="13.397" color-interpolation-filters="sRGB" filterUnits="userSpaceOnUse"><feFlood flood-opacity="0" result="BackgroundImageFix"/><feBlend in="SourceGraphic" in2="BackgroundImageFix" result="shape"/><feColorMatrix in="SourceAlpha" result="hardAlpha" values="0 0 0 0 0 0 0 0 0 0 0 0 0 0 0 0 0 0 127 0"/><feOffset dx="-1.149" dy="-2.298"/><feComposite in2="hardAlpha" k2="-1" k3="1" operator="arithmetic"/><feColorMatrix values="0 0 0 0 0 0 0 0 0 0 0 0 0 0 0 0 0 0 0.25 0"/><feBlend in2="shape" result="effect1_innerShadow_552_1468"/></filter><filter id="g" width="19.53" height="47.101" x="25.273" y="0" color-interpolation-filters="sRGB" filterUnits="userSpaceOnUse"><feFlood flood-opacity="0" result="BackgroundImageFix"/><feBlend in="SourceGraphic" in2="BackgroundImageFix" result="shape"/><feColorMatrix in="SourceAlpha" result="hardAlpha" values="0 0 0 0 0 0 0 0 0 0 0 0 0 0 0 0 0 0 127 0"/><feOffset dx="-1.149" dy="-2.298"/><feComposite in2="hardAlpha" k2="-1" k3="1" operator="arithmetic"/><feColorMatrix values="0 0 0 0 0 0 0 0 0 0 0 0 0 0 0 0 0 0 0.25 0"/><feBlend in2="shape" result="effect1_innerShadow_552_1468"/></filter><filter id="h" width="36.187" height="30.443" x="17.232" y="66.63" color-interpolation-filters="sRGB" filterUnits="userSpaceOnUse"><feFlood flood-opacity="0" result="BackgroundImageFix"/><feBlend in="SourceGraphic" in2="BackgroundImageFix" result="shape"/><feColorMatrix in="SourceAlpha" result="hardAlpha" values="0 0 0 0 0 0 0 0 0 0 0 0 0 0 0 0 0 0 127 0"/><feOffset dx="-1.149" dy="-1.149"/><feComposite in2="hardAlpha" k2="-1" k3="1" operator="arithmetic"/><feColorMatrix values="0 0 0 0 0 0 0 0 0 0 0 0 0 0 0 0 0 0 0.25 0"/><feBlend in2="shape" result="effect1_innerShadow_552_1468"/></filter><filter id="i" width="8.616" height="13.786" x="38.485" y="71.8" color-interpolation-filters="sRGB" filterUnits="userSpaceOnUse"><feFlood flood-opacity="0" result="BackgroundImageFix"/><feBlend in="SourceGraphic" in2="BackgroundImageFix" result="shape"/><feColorMatrix in="SourceAlpha" result="hardAlpha" values="0 0 0 0 0 0 0 0 0 0 0 0 0 0 0 0 0 0 127 0"/><feOffset dy="1.149"/><feComposite in2="hardAlpha" k2="-1" k3="1" operator="arithmetic"/><feColorMatrix values="0 0 0 0 0 0 0 0 0 0 0 0 0 0 0 0 0 0 0.15 0"/><feBlend in2="shape" result="effect1_innerShadow_552_1468"/></filter><filter id="j" width="6.318" height="10.339" x="39.633" y="73.523" color-interpolation-filters="sRGB" filterUnits="userSpaceOnUse"><feFlood flood-opacity="0" result="BackgroundImageFix"/><feBlend in="SourceGraphic" in2="BackgroundImageFix" result="shape"/><feColorMatrix in="SourceAlpha" result="hardAlpha" values="0 0 0 0 0 0 0 0 0 0 0 0 0 0 0 0 0 0 127 0"/><feOffset dy="2.298"/><feComposite in2="hardAlpha" k2="-1" k3="1" operator="arithmetic"/><feColorMatrix values="0 0 0 0 0 0 0 0 0 0 0 0 0 0 0 0 0 0 0.25 0"/><feBlend in2="shape" result="effect1_innerShadow_552_1468"/></filter><filter id="k" width="8.616" height="13.786" x="22.976" y="71.8" color-interpolation-filters="sRGB" filterUnits="userSpaceOnUse"><feFlood flood-opacity="0" result="BackgroundImageFix"/><feBlend in="SourceGraphic" in2="BackgroundImageFix" result="shape"/><feColorMatrix in="SourceAlpha" result="hardAlpha" values="0 0 0 0 0 0 0 0 0 0 0 0 0 0 0 0 0 0 127 0"/><feOffset dy="1.149"/><feComposite in2="hardAlpha" k2="-1" k3="1" operator="arithmetic"/><feColorMatrix values="0 0 0 0 0 0 0 0 0 0 0 0 0 0 0 0 0 0 0.15 0"/><feBlend in2="shape" result="effect1_innerShadow_552_1468"/></filter><filter id="l" width="6.318" height="10.339" x="24.125" y="73.523" color-interpolation-filters="sRGB" filterUnits="userSpaceOnUse"><feFlood flood-opacity="0" result="BackgroundImageFix"/><feBlend in="SourceGraphic" in2="BackgroundImageFix" result="shape"/><feColorMatrix in="SourceAlpha" result="hardAlpha" values="0 0 0 0 0 0 0 0 0 0 0 0 0 0 0 0 0 0 127 0"/><feOffset dy="2.298"/><feComposite in2="hardAlpha" k2="-1" k3="1" operator="arithmetic"/><feColorMatrix values="0 0 0 0 0 0 0 0 0 0 0 0 0 0 0 0 0 0 0.25 0"/><feBlend in2="shape" result="effect1_innerShadow_552_1468"/></filter><clipPath id="a"><path fill="#fff" d="M0 0h70v107H0z"/></clipPath></defs></svg>