<svg xmlns="http://www.w3.org/2000/svg" width="121" height="186" fill="none"><g clip-path="url(#a)"><g filter="url(#b)"><path fill="#F2DE95" d="M24.723 185.398c-3.595 1.374-7.33-1.66-6.722-5.46l3.126-19.549c.608-3.8 5.102-5.518 8.09-3.091l15.366 12.481c2.988 2.427 2.228 7.177-1.367 8.552z"/></g><g filter="url(#c)"><path fill="#F2DE95" d="M103.287 179.958c.608 3.8-3.127 6.833-6.722 5.459l-18.492-7.069c-3.595-1.374-4.355-6.125-1.367-8.551l15.368-12.48c2.987-2.427 7.482-.709 8.089 3.092z"/></g><g filter="url(#d)"><path fill="#B36B00" d="M72.942 87.357 73.8 74H49.2c.67 6.216.188 7.14.858 13.356-.006 6.859-4.8 16.096-8.902 21.608l-15.83 17.275A31.95 31.95 0 0 0 19 145.286c0 8.411 3.36 16.477 9.343 22.425A32 32 0 0 0 50.897 177h21.206a32 32 0 0 0 22.555-9.289A31.62 31.62 0 0 0 104 145.286a31.95 31.95 0 0 0-6.326-19.047l-15.83-16.832c-4.194-5.634-8.993-15.041-8.902-22.05"/></g><g filter="url(#e)"><path fill="#2DDF00" d="m81.511 74.996-13.98 6.806c-1.862-5.087-2.803-10.563-2.769-16.116a47.5 47.5 0 0 1 2.967-16.25c1.925-5.174 4.73-9.9 8.252-13.909 3.523-4.008 7.696-7.22 12.281-9.452l13.98-6.806c3.761 10.272 3.69 21.914-.198 32.365-3.887 10.45-11.273 18.854-20.533 23.362"/></g><g filter="url(#f)"><path fill="#2DDF00" d="m54.688 65.065.698 16.844c-4.972.043-9.94-1.003-14.622-3.078-4.68-2.074-8.983-5.137-12.66-9.013-3.679-3.876-6.66-8.49-8.774-13.577a47 47 0 0 1-3.55-16.073l-.698-16.844c10.041-.086 19.855 4.264 27.283 12.092 7.427 7.828 11.86 18.493 12.323 29.65"/></g><g filter="url(#g)"><path fill="#2DDF00" d="M44 43.383c-.023-9.388 2.554-18.62 7.476-26.783L61.002 0l9.527 16.6c5.343 8.953 7.91 19.14 7.41 29.399-.702 13.564-6.74 26.397-16.937 36.001-10.182-9.589-16.218-22.397-16.936-35.94C44 45.065 44 44.256 44 43.384"/></g><g filter="url(#h)"><ellipse cx="61.5" cy="142.5" fill="#F2DE95" rx="31.5" ry="26.5"/><ellipse cx="61.5" cy="142.5" fill="url(#i)" fill-opacity=".25" rx="31.5" ry="26.5"/></g><g filter="url(#j)"><ellipse cx="74.5" cy="137" fill="#fff" rx="7.5" ry="12"/></g><g filter="url(#k)"><ellipse cx="74.5" cy="137" fill="#00FF47" rx="5.5" ry="9"/></g><path fill="#00BF4C" d="M78 137c0 3.314-1.567 6-3.5 6s-3.5-2.686-3.5-6 1.567-6 3.5-6 3.5 2.686 3.5 6"/><path fill="#fff" d="M74 132.5a2.5 2.5 0 1 1-5 0 2.5 2.5 0 0 1 5 0"/><g filter="url(#l)"><ellipse cx="47.5" cy="137" fill="#fff" rx="7.5" ry="12"/></g><g filter="url(#m)"><ellipse cx="47.5" cy="137" fill="#00FF47" rx="5.5" ry="9"/></g><path fill="#00BF4C" d="M51 137c0 3.314-1.567 6-3.5 6s-3.5-2.686-3.5-6 1.567-6 3.5-6 3.5 2.686 3.5 6"/><path fill="#fff" d="M47 132.5a2.5 2.5 0 1 1-5 0 2.5 2.5 0 0 1 5 0"/><path fill="#855000" d="M54.597 154.5c-1.434 0-2.633-1.226-1.95-2.487.427-.789 1.053-1.506 1.843-2.109a9 9 0 0 1 2.757-1.409A10.8 10.8 0 0 1 60.5 148a10.8 10.8 0 0 1 3.253.495 9 9 0 0 1 2.757 1.409c.79.603 1.416 1.32 1.843 2.109.683 1.261-.516 2.487-1.95 2.487H54.597"/><path fill="#B6ADAF" d="m39.965 131.168 13.152-3.397-1.5-5.81-13.153 3.398zM69.967 121.367l13.152 3.397-1.5 5.81-13.153-3.398z"/></g><defs><filter id="b" width="28.496" height="29.561" x="17.936" y="156.174" color-interpolation-filters="sRGB" filterUnits="userSpaceOnUse"><feFlood flood-opacity="0" result="BackgroundImageFix"/><feBlend in="SourceGraphic" in2="BackgroundImageFix" result="shape"/><feColorMatrix in="SourceAlpha" result="hardAlpha" values="0 0 0 0 0 0 0 0 0 0 0 0 0 0 0 0 0 0 127 0"/><feOffset dx="-2" dy="-3"/><feComposite in2="hardAlpha" k2="-1" k3="1" operator="arithmetic"/><feColorMatrix values="0 0 0 0 0 0 0 0 0 0 0 0 0 0 0 0 0 0 0.25 0"/><feBlend in2="shape" result="effect1_innerShadow_757_30285"/></filter><filter id="c" width="28.496" height="29.561" x="74.857" y="156.193" color-interpolation-filters="sRGB" filterUnits="userSpaceOnUse"><feFlood flood-opacity="0" result="BackgroundImageFix"/><feBlend in="SourceGraphic" in2="BackgroundImageFix" result="shape"/><feColorMatrix in="SourceAlpha" result="hardAlpha" values="0 0 0 0 0 0 0 0 0 0 0 0 0 0 0 0 0 0 127 0"/><feOffset dx="-2" dy="-3"/><feComposite in2="hardAlpha" k2="-1" k3="1" operator="arithmetic"/><feColorMatrix values="0 0 0 0 0 0 0 0 0 0 0 0 0 0 0 0 0 0 0.25 0"/><feBlend in2="shape" result="effect1_innerShadow_757_30285"/></filter><filter id="d" width="85" height="103" x="19" y="74" color-interpolation-filters="sRGB" filterUnits="userSpaceOnUse"><feFlood flood-opacity="0" result="BackgroundImageFix"/><feBlend in="SourceGraphic" in2="BackgroundImageFix" result="shape"/><feColorMatrix in="SourceAlpha" result="hardAlpha" values="0 0 0 0 0 0 0 0 0 0 0 0 0 0 0 0 0 0 127 0"/><feOffset dx="-2" dy="-4"/><feComposite in2="hardAlpha" k2="-1" k3="1" operator="arithmetic"/><feColorMatrix values="0 0 0 0 0 0 0 0 0 0 0 0 0 0 0 0 0 0 0.25 0"/><feBlend in2="shape" result="effect1_innerShadow_757_30285"/></filter><filter id="e" width="40.25" height="62.532" x="64.762" y="19.269" color-interpolation-filters="sRGB" filterUnits="userSpaceOnUse"><feFlood flood-opacity="0" result="BackgroundImageFix"/><feBlend in="SourceGraphic" in2="BackgroundImageFix" result="shape"/><feColorMatrix in="SourceAlpha" result="hardAlpha" values="0 0 0 0 0 0 0 0 0 0 0 0 0 0 0 0 0 0 127 0"/><feOffset dx="-2" dy="-4"/><feComposite in2="hardAlpha" k2="-1" k3="1" operator="arithmetic"/><feColorMatrix values="0 0 0 0 0 0 0 0 0 0 0 0 0 0 0 0 0 0 0.25 0"/><feBlend in2="shape" result="effect1_innerShadow_757_30285"/></filter><filter id="f" width="40.305" height="58.587" x="15.082" y="23.323" color-interpolation-filters="sRGB" filterUnits="userSpaceOnUse"><feFlood flood-opacity="0" result="BackgroundImageFix"/><feBlend in="SourceGraphic" in2="BackgroundImageFix" result="shape"/><feColorMatrix in="SourceAlpha" result="hardAlpha" values="0 0 0 0 0 0 0 0 0 0 0 0 0 0 0 0 0 0 127 0"/><feOffset dx="-2" dy="-4"/><feComposite in2="hardAlpha" k2="-1" k3="1" operator="arithmetic"/><feColorMatrix values="0 0 0 0 0 0 0 0 0 0 0 0 0 0 0 0 0 0 0.25 0"/><feBlend in2="shape" result="effect1_innerShadow_757_30285"/></filter><filter id="g" width="34" height="82" x="44" y="0" color-interpolation-filters="sRGB" filterUnits="userSpaceOnUse"><feFlood flood-opacity="0" result="BackgroundImageFix"/><feBlend in="SourceGraphic" in2="BackgroundImageFix" result="shape"/><feColorMatrix in="SourceAlpha" result="hardAlpha" values="0 0 0 0 0 0 0 0 0 0 0 0 0 0 0 0 0 0 127 0"/><feOffset dx="-2" dy="-4"/><feComposite in2="hardAlpha" k2="-1" k3="1" operator="arithmetic"/><feColorMatrix values="0 0 0 0 0 0 0 0 0 0 0 0 0 0 0 0 0 0 0.25 0"/><feBlend in2="shape" result="effect1_innerShadow_757_30285"/></filter><filter id="h" width="63" height="53" x="30" y="116" color-interpolation-filters="sRGB" filterUnits="userSpaceOnUse"><feFlood flood-opacity="0" result="BackgroundImageFix"/><feBlend in="SourceGraphic" in2="BackgroundImageFix" result="shape"/><feColorMatrix in="SourceAlpha" result="hardAlpha" values="0 0 0 0 0 0 0 0 0 0 0 0 0 0 0 0 0 0 127 0"/><feOffset dx="-2" dy="-2"/><feComposite in2="hardAlpha" k2="-1" k3="1" operator="arithmetic"/><feColorMatrix values="0 0 0 0 0 0 0 0 0 0 0 0 0 0 0 0 0 0 0.25 0"/><feBlend in2="shape" result="effect1_innerShadow_757_30285"/></filter><filter id="j" width="15" height="24" x="67" y="125" color-interpolation-filters="sRGB" filterUnits="userSpaceOnUse"><feFlood flood-opacity="0" result="BackgroundImageFix"/><feBlend in="SourceGraphic" in2="BackgroundImageFix" result="shape"/><feColorMatrix in="SourceAlpha" result="hardAlpha" values="0 0 0 0 0 0 0 0 0 0 0 0 0 0 0 0 0 0 127 0"/><feOffset dy="2"/><feComposite in2="hardAlpha" k2="-1" k3="1" operator="arithmetic"/><feColorMatrix values="0 0 0 0 0 0 0 0 0 0 0 0 0 0 0 0 0 0 0.15 0"/><feBlend in2="shape" result="effect1_innerShadow_757_30285"/></filter><filter id="k" width="11" height="18" x="69" y="128" color-interpolation-filters="sRGB" filterUnits="userSpaceOnUse"><feFlood flood-opacity="0" result="BackgroundImageFix"/><feBlend in="SourceGraphic" in2="BackgroundImageFix" result="shape"/><feColorMatrix in="SourceAlpha" result="hardAlpha" values="0 0 0 0 0 0 0 0 0 0 0 0 0 0 0 0 0 0 127 0"/><feOffset dy="4"/><feComposite in2="hardAlpha" k2="-1" k3="1" operator="arithmetic"/><feColorMatrix values="0 0 0 0 0 0 0 0 0 0 0 0 0 0 0 0 0 0 0.25 0"/><feBlend in2="shape" result="effect1_innerShadow_757_30285"/></filter><filter id="l" width="15" height="24" x="40" y="125" color-interpolation-filters="sRGB" filterUnits="userSpaceOnUse"><feFlood flood-opacity="0" result="BackgroundImageFix"/><feBlend in="SourceGraphic" in2="BackgroundImageFix" result="shape"/><feColorMatrix in="SourceAlpha" result="hardAlpha" values="0 0 0 0 0 0 0 0 0 0 0 0 0 0 0 0 0 0 127 0"/><feOffset dy="2"/><feComposite in2="hardAlpha" k2="-1" k3="1" operator="arithmetic"/><feColorMatrix values="0 0 0 0 0 0 0 0 0 0 0 0 0 0 0 0 0 0 0.15 0"/><feBlend in2="shape" result="effect1_innerShadow_757_30285"/></filter><filter id="m" width="11" height="18" x="42" y="128" color-interpolation-filters="sRGB" filterUnits="userSpaceOnUse"><feFlood flood-opacity="0" result="BackgroundImageFix"/><feBlend in="SourceGraphic" in2="BackgroundImageFix" result="shape"/><feColorMatrix in="SourceAlpha" result="hardAlpha" values="0 0 0 0 0 0 0 0 0 0 0 0 0 0 0 0 0 0 127 0"/><feOffset dy="4"/><feComposite in2="hardAlpha" k2="-1" k3="1" operator="arithmetic"/><feColorMatrix values="0 0 0 0 0 0 0 0 0 0 0 0 0 0 0 0 0 0 0.25 0"/><feBlend in2="shape" result="effect1_innerShadow_757_30285"/></filter><linearGradient id="i" x1="61.5" x2="61.5" y1="116" y2="169" gradientUnits="userSpaceOnUse"><stop offset=".26" stop-color="#0019FF"/><stop offset="1" stop-color="#0019FF" stop-opacity="0"/></linearGradient><clipPath id="a"><path fill="#fff" d="M0 0h121v186H0z"/></clipPath></defs></svg>