<svg xmlns="http://www.w3.org/2000/svg" width="27" height="26" fill="none"><g clip-path="url(#a)" filter="url(#b)"><path fill="#742901" d="M21.664 24.045V8.937l-8.358-7.072-8.358 7.072v15.43z"/><path stroke="#2DDF00" stroke-linecap="round" stroke-linejoin="round" stroke-miterlimit="10" stroke-width=".857" d="m1.519 11.508 11.787-9.643 11.787 9.643"/><path stroke="#2DDF00" stroke-miterlimit="10" stroke-width=".857" d="M21.664 8.615v14.573a.857.857 0 0 1-.858.857H5.805a.857.857 0 0 1-.857-.857V8.615"/><path fill="#2DDF00" d="M7.948 12.151h.825a4.53 4.53 0 0 1 4.532 4.533v.825h-.825a4.533 4.533 0 0 1-4.532-4.533z"/><path fill="#2DDF00" d="M14.13 18.58h-.825v-.824a4.53 4.53 0 0 1 4.533-4.533h.825v.825a4.53 4.53 0 0 1-4.532 4.533"/><path stroke="#2DDF00" stroke-miterlimit="10" stroke-width=".857" d="M13.306 23.938v-7.5"/><circle cx="19.735" cy="20.831" r="4.5" fill="#2DDF00" stroke="#fff" stroke-width=".857"/><path stroke="#fff" stroke-linecap="round" stroke-miterlimit="10" stroke-width=".857" d="M17.485 20.73h4.298m-2.15-2.15v4.298"/></g><defs><clipPath id="a"><path fill="#fff" d="M.448.257h25.716v25.716H.448z"/></clipPath><filter id="b" width="28.288" height="28.288" x="-.838" y="-1.028" color-interpolation-filters="sRGB" filterUnits="userSpaceOnUse"><feFlood flood-opacity="0" result="BackgroundImageFix"/><feBlend in="SourceGraphic" in2="BackgroundImageFix" result="shape"/><feColorMatrix in="SourceAlpha" result="hardAlpha" values="0 0 0 0 0 0 0 0 0 0 0 0 0 0 0 0 0 0 127 0"/><feOffset dx="-1.286" dy="-1.286"/><feGaussianBlur stdDeviation=".643"/><feComposite in2="hardAlpha" k2="-1" k3="1" operator="arithmetic"/><feColorMatrix values="0 0 0 0 0 0 0 0 0 0 0 0 0 0 0 0 0 0 0.25 0"/><feBlend in2="shape" result="effect1_innerShadow_791_52249"/><feColorMatrix in="SourceAlpha" result="hardAlpha" values="0 0 0 0 0 0 0 0 0 0 0 0 0 0 0 0 0 0 127 0"/><feOffset dx="1.286" dy="1.286"/><feGaussianBlur stdDeviation=".643"/><feComposite in2="hardAlpha" k2="-1" k3="1" operator="arithmetic"/><feColorMatrix values="0 0 0 0 1 0 0 0 0 1 0 0 0 0 1 0 0 0 0.5 0"/><feBlend in2="effect1_innerShadow_791_52249" result="effect2_innerShadow_791_52249"/></filter></defs></svg>