<svg xmlns="http://www.w3.org/2000/svg" width="27" height="27" fill="none"><g filter="url(#a)"><path fill="#00BF35" stroke="#fff" stroke-width=".857" d="M5.877 10.398h-.429V6.97c0-.71.576-1.286 1.286-1.286h14.144c.71 0 1.286.575 1.286 1.285v3.43z"/><path stroke="#fff" stroke-linecap="round" stroke-width="1.714" d="M9.306 4.827V6.97m4.286-2.143V6.97m4.286-2.143V6.97"/><path fill="#A2FB8C" stroke="#fff" stroke-width=".857" d="M5.877 9.541h-.429v11.572c0 .71.576 1.286 1.286 1.286h14.144c.71 0 1.286-.575 1.286-1.286V9.541z"/><rect width="3.31" height="3.311" x="7.163" y="12.113" fill="#008B0E" rx=".621"/><rect width="3.31" height="3.311" x="7.163" y="17.138" fill="#008B0E" rx=".621"/><rect width="3.31" height="3.311" x="12.188" y="12.113" fill="#008B0E" rx=".621"/><rect width="3.31" height="3.311" x="17.212" y="12.113" fill="#008B0E" rx=".621"/><rect width="3.31" height="3.311" x="12.188" y="17.138" fill="#008B0E" rx=".621"/><rect width="3.31" height="3.311" x="17.212" y="17.138" fill="#008B0E" rx=".621"/></g><defs><filter id="a" width="29.145" height="29.145" x="-.767" y="-1.174" color-interpolation-filters="sRGB" filterUnits="userSpaceOnUse"><feFlood flood-opacity="0" result="BackgroundImageFix"/><feColorMatrix in="SourceAlpha" result="hardAlpha" values="0 0 0 0 0 0 0 0 0 0 0 0 0 0 0 0 0 0 127 0"/><feOffset/><feGaussianBlur stdDeviation=".857"/><feComposite in2="hardAlpha" operator="out"/><feColorMatrix values="0 0 0 0 0 0 0 0 0 0 0 0 0 0 0 0 0 0 0.5 0"/><feBlend in2="BackgroundImageFix" result="effect1_dropShadow_791_51988"/><feBlend in="SourceGraphic" in2="effect1_dropShadow_791_51988" result="shape"/><feColorMatrix in="SourceAlpha" result="hardAlpha" values="0 0 0 0 0 0 0 0 0 0 0 0 0 0 0 0 0 0 127 0"/><feOffset dx="-1.286" dy="-1.286"/><feGaussianBlur stdDeviation=".643"/><feComposite in2="hardAlpha" k2="-1" k3="1" operator="arithmetic"/><feColorMatrix values="0 0 0 0 0 0 0 0 0 0 0 0 0 0 0 0 0 0 0.25 0"/><feBlend in2="shape" result="effect2_innerShadow_791_51988"/><feColorMatrix in="SourceAlpha" result="hardAlpha" values="0 0 0 0 0 0 0 0 0 0 0 0 0 0 0 0 0 0 127 0"/><feOffset dx="1.286" dy="1.286"/><feGaussianBlur stdDeviation=".643"/><feComposite in2="hardAlpha" k2="-1" k3="1" operator="arithmetic"/><feColorMatrix values="0 0 0 0 1 0 0 0 0 1 0 0 0 0 1 0 0 0 0.5 0"/><feBlend in2="effect2_innerShadow_791_51988" result="effect3_innerShadow_791_51988"/></filter></defs></svg>