<svg xmlns="http://www.w3.org/2000/svg" width="28" height="27" fill="none"><g stroke="#fff" stroke-miterlimit="10" filter="url(#a)"><path fill="#00BF35" stroke-width="1.066" d="M19.088 7.663c.17.673-.34 1.327-1.034 1.327h-7.448a1.066 1.066 0 0 1-1.034-1.327l.743-2.946c.119-.474.545-.806 1.034-.806h5.963c.488 0 .914.332 1.034.806z"/><path fill="url(#b)" stroke-width=".857" d="M23.521 7.543H5.113c-1.13 0-2.047.916-2.047 2.047v12.269c0 1.13.916 2.046 2.047 2.046H23.52c1.13 0 2.047-.916 2.047-2.047V9.59c0-1.13-.916-2.047-2.047-2.047Z"/><path stroke-width=".857" d="M11.295 13.683h6.129M14.36 10.618v6.13M3.13 19.822h22.502"/></g><defs><linearGradient id="b" x1="14.317" x2="14.317" y1="7.543" y2="23.905" gradientUnits="userSpaceOnUse"><stop offset=".76" stop-color="#00BF35"/><stop offset=".76" stop-color="#CE0000"/></linearGradient><filter id="a" width="29.145" height="29.145" x="-.192" y="-.89" color-interpolation-filters="sRGB" filterUnits="userSpaceOnUse"><feFlood flood-opacity="0" result="BackgroundImageFix"/><feColorMatrix in="SourceAlpha" result="hardAlpha" values="0 0 0 0 0 0 0 0 0 0 0 0 0 0 0 0 0 0 127 0"/><feOffset/><feGaussianBlur stdDeviation=".857"/><feColorMatrix values="0 0 0 0 0 0 0 0 0 0 0 0 0 0 0 0 0 0 0.5 0"/><feBlend in2="BackgroundImageFix" result="effect1_dropShadow_791_51742"/><feBlend in="SourceGraphic" in2="effect1_dropShadow_791_51742" result="shape"/><feColorMatrix in="SourceAlpha" result="hardAlpha" values="0 0 0 0 0 0 0 0 0 0 0 0 0 0 0 0 0 0 127 0"/><feOffset dx="-1.286" dy="-1.286"/><feGaussianBlur stdDeviation=".643"/><feComposite in2="hardAlpha" k2="-1" k3="1" operator="arithmetic"/><feColorMatrix values="0 0 0 0 0 0 0 0 0 0 0 0 0 0 0 0 0 0 0.25 0"/><feBlend in2="shape" result="effect2_innerShadow_791_51742"/><feColorMatrix in="SourceAlpha" result="hardAlpha" values="0 0 0 0 0 0 0 0 0 0 0 0 0 0 0 0 0 0 127 0"/><feOffset dx="1.286" dy="1.286"/><feGaussianBlur stdDeviation=".643"/><feComposite in2="hardAlpha" k2="-1" k3="1" operator="arithmetic"/><feColorMatrix values="0 0 0 0 1 0 0 0 0 1 0 0 0 0 1 0 0 0 0.5 0"/><feBlend in2="effect2_innerShadow_791_51742" result="effect3_innerShadow_791_51742"/></filter></defs></svg>