<svg xmlns="http://www.w3.org/2000/svg" width="29" height="27" fill="none"><g clip-path="url(#a)" filter="url(#b)"><g filter="url(#c)"><path stroke="#F5DD00" stroke-linecap="round" stroke-miterlimit="10" stroke-width="2" d="M20.268 5.572a3.79 3.79 0 0 1 3.075-2.047A2.71 2.71 0 0 1 26.407 6.6c0 2.047-5.11 3.73-5.11 6.14a2.004 2.004 0 0 0 2.046 2.09"/></g><g filter="url(#d)"><path stroke="#F5DD00" stroke-linecap="round" stroke-miterlimit="10" stroke-width="2" d="M9.403 5.572a3.79 3.79 0 0 0-3.075-2.047A2.71 2.71 0 0 0 3.263 6.6c0 2.047 5.111 3.73 5.111 6.14a2.004 2.004 0 0 1-2.046 2.09"/></g><g filter="url(#e)"><path fill="#F5DD00" fill-rule="evenodd" d="M11.038 23.83H9.017a.536.536 0 1 0 0 1.072h12.28a.536.536 0 0 0 0-1.072h-2.505c-2.07-.393-2.782-1.812-3.556-3.354q-.155-.315-.32-.632c.362-.692 1.064-1.335 1.835-2.04 1.509-1.382 3.28-3.005 3.28-5.707 0-3.466-1.23-8.425-1.6-9.841a.526.526 0 0 0-.512-.392h-6.007a.526.526 0 0 0-.513.392c-.37 1.415-1.6 6.366-1.6 9.841 0 2.71 1.772 4.33 3.282 5.71.77.704 1.472 1.346 1.834 2.037q-.164.317-.321.632c-.773 1.542-1.485 2.961-3.556 3.354" clip-rule="evenodd"/></g><g filter="url(#f)"><path fill="#2DDF00" d="M10.441 10.008c0-.114.093-.206.207-.206h.537a4.087 4.087 0 0 1 4.086 4.086v.537a.206.206 0 0 1-.206.207h-.537a4.087 4.087 0 0 1-4.087-4.086z"/></g><g filter="url(#g)"><path fill="#2DDF00" d="M15.273 14.607h-.538a.206.206 0 0 1-.206-.206v-.537a4.086 4.086 0 0 1 4.086-4.087h.538c.114 0 .206.093.206.207v.537a4.086 4.086 0 0 1-4.086 4.086"/></g></g><defs><filter id="b" width="28.574" height="28.574" x=".87" y="-1.171" color-interpolation-filters="sRGB" filterUnits="userSpaceOnUse"><feFlood flood-opacity="0" result="BackgroundImageFix"/><feColorMatrix in="SourceAlpha" result="hardAlpha" values="0 0 0 0 0 0 0 0 0 0 0 0 0 0 0 0 0 0 127 0"/><feOffset/><feGaussianBlur stdDeviation=".714"/><feColorMatrix values="0 0 0 0 0 0 0 0 0 0 0 0 0 0 0 0 0 0 0.5 0"/><feBlend in2="BackgroundImageFix" result="effect1_dropShadow_791_51767"/><feBlend in="SourceGraphic" in2="effect1_dropShadow_791_51767" result="shape"/><feColorMatrix in="SourceAlpha" result="hardAlpha" values="0 0 0 0 0 0 0 0 0 0 0 0 0 0 0 0 0 0 127 0"/><feOffset dx="-.357" dy="-.714"/><feGaussianBlur stdDeviation=".536"/><feComposite in2="hardAlpha" k2="-1" k3="1" operator="arithmetic"/><feColorMatrix values="0 0 0 0 0 0 0 0 0 0 0 0 0 0 0 0 0 0 0.25 0"/><feBlend in2="shape" result="effect2_innerShadow_791_51767"/><feColorMatrix in="SourceAlpha" result="hardAlpha" values="0 0 0 0 0 0 0 0 0 0 0 0 0 0 0 0 0 0 127 0"/><feOffset dx="1.072" dy="1.072"/><feGaussianBlur stdDeviation=".536"/><feComposite in2="hardAlpha" k2="-1" k3="1" operator="arithmetic"/><feColorMatrix values="0 0 0 0 1 0 0 0 0 1 0 0 0 0 1 0 0 0 0.5 0"/><feBlend in2="effect2_innerShadow_791_51767" result="effect3_innerShadow_791_51767"/></filter><filter id="c" width="8.665" height="13.828" x="19.02" y="2.25" color-interpolation-filters="sRGB" filterUnits="userSpaceOnUse"><feFlood flood-opacity="0" result="BackgroundImageFix"/><feBlend in="SourceGraphic" in2="BackgroundImageFix" result="shape"/><feColorMatrix in="SourceAlpha" result="hardAlpha" values="0 0 0 0 0 0 0 0 0 0 0 0 0 0 0 0 0 0 127 0"/><feOffset dx=".248" dy=".248"/><feGaussianBlur stdDeviation=".248"/><feComposite in2="hardAlpha" k2="-1" k3="1" operator="arithmetic"/><feColorMatrix values="0 0 0 0 1 0 0 0 0 1 0 0 0 0 1 0 0 0 1 0"/><feBlend in2="shape" result="effect1_innerShadow_791_51767"/><feColorMatrix in="SourceAlpha" result="hardAlpha" values="0 0 0 0 0 0 0 0 0 0 0 0 0 0 0 0 0 0 127 0"/><feOffset dx="-.248" dy="-.248"/><feGaussianBlur stdDeviation=".248"/><feComposite in2="hardAlpha" k2="-1" k3="1" operator="arithmetic"/><feColorMatrix values="0 0 0 0 0.829167 0 0 0 0 0.64903 0 0 0 0 0.0103646 0 0 0 1 0"/><feBlend in2="effect1_innerShadow_791_51767" result="effect2_innerShadow_791_51767"/></filter><filter id="d" width="8.665" height="13.828" x="1.987" y="2.25" color-interpolation-filters="sRGB" filterUnits="userSpaceOnUse"><feFlood flood-opacity="0" result="BackgroundImageFix"/><feBlend in="SourceGraphic" in2="BackgroundImageFix" result="shape"/><feColorMatrix in="SourceAlpha" result="hardAlpha" values="0 0 0 0 0 0 0 0 0 0 0 0 0 0 0 0 0 0 127 0"/><feOffset dx=".248" dy=".248"/><feGaussianBlur stdDeviation=".248"/><feComposite in2="hardAlpha" k2="-1" k3="1" operator="arithmetic"/><feColorMatrix values="0 0 0 0 1 0 0 0 0 1 0 0 0 0 1 0 0 0 1 0"/><feBlend in2="shape" result="effect1_innerShadow_791_51767"/><feColorMatrix in="SourceAlpha" result="hardAlpha" values="0 0 0 0 0 0 0 0 0 0 0 0 0 0 0 0 0 0 127 0"/><feOffset dx="-.248" dy="-.248"/><feGaussianBlur stdDeviation=".248"/><feComposite in2="hardAlpha" k2="-1" k3="1" operator="arithmetic"/><feColorMatrix values="0 0 0 0 0.829167 0 0 0 0 0.64903 0 0 0 0 0.0103646 0 0 0 1 0"/><feBlend in2="effect1_innerShadow_791_51767" result="effect2_innerShadow_791_51767"/></filter><filter id="e" width="13.847" height="23.534" x="8.233" y="1.616" color-interpolation-filters="sRGB" filterUnits="userSpaceOnUse"><feFlood flood-opacity="0" result="BackgroundImageFix"/><feBlend in="SourceGraphic" in2="BackgroundImageFix" result="shape"/><feColorMatrix in="SourceAlpha" result="hardAlpha" values="0 0 0 0 0 0 0 0 0 0 0 0 0 0 0 0 0 0 127 0"/><feOffset dx=".248" dy=".248"/><feGaussianBlur stdDeviation=".248"/><feComposite in2="hardAlpha" k2="-1" k3="1" operator="arithmetic"/><feColorMatrix values="0 0 0 0 1 0 0 0 0 1 0 0 0 0 1 0 0 0 1 0"/><feBlend in2="shape" result="effect1_innerShadow_791_51767"/><feColorMatrix in="SourceAlpha" result="hardAlpha" values="0 0 0 0 0 0 0 0 0 0 0 0 0 0 0 0 0 0 127 0"/><feOffset dx="-.248" dy="-.248"/><feGaussianBlur stdDeviation=".248"/><feComposite in2="hardAlpha" k2="-1" k3="1" operator="arithmetic"/><feColorMatrix values="0 0 0 0 0.829167 0 0 0 0 0.64903 0 0 0 0 0.0103646 0 0 0 1 0"/><feBlend in2="effect1_innerShadow_791_51767" result="effect2_innerShadow_791_51767"/></filter><filter id="f" width="4.83" height="4.83" x="10.441" y="9.802" color-interpolation-filters="sRGB" filterUnits="userSpaceOnUse"><feFlood flood-opacity="0" result="BackgroundImageFix"/><feBlend in="SourceGraphic" in2="BackgroundImageFix" result="shape"/><feColorMatrix in="SourceAlpha" result="hardAlpha" values="0 0 0 0 0 0 0 0 0 0 0 0 0 0 0 0 0 0 127 0"/><feOffset dx="-.826" dy="-.826"/><feComposite in2="hardAlpha" k2="-1" k3="1" operator="arithmetic"/><feColorMatrix values="0 0 0 0 0 0 0 0 0 0 0 0 0 0 0 0 0 0 0.25 0"/><feBlend in2="shape" result="effect1_innerShadow_791_51767"/></filter><filter id="g" width="4.83" height="4.83" x="14.529" y="9.777" color-interpolation-filters="sRGB" filterUnits="userSpaceOnUse"><feFlood flood-opacity="0" result="BackgroundImageFix"/><feBlend in="SourceGraphic" in2="BackgroundImageFix" result="shape"/><feColorMatrix in="SourceAlpha" result="hardAlpha" values="0 0 0 0 0 0 0 0 0 0 0 0 0 0 0 0 0 0 127 0"/><feOffset dx="-.826" dy="-.826"/><feComposite in2="hardAlpha" k2="-1" k3="1" operator="arithmetic"/><feColorMatrix values="0 0 0 0 0 0 0 0 0 0 0 0 0 0 0 0 0 0 0.25 0"/><feBlend in2="shape" result="effect1_innerShadow_791_51767"/></filter><clipPath id="a"><path fill="#fff" d="M2.298.257h25.716v25.716H2.298z"/></clipPath></defs></svg>