<svg xmlns="http://www.w3.org/2000/svg" width="28" height="29" fill="none"><g clip-path="url(#a)" filter="url(#b)"><path fill="#EBCB9B" stroke="#742901" stroke-miterlimit="10" stroke-width=".714" d="M23.328 19.904a1.07 1.07 0 0 1-.547 1.413L11.115 26.47a1.844 1.844 0 0 1-2.432-.942l-6.7-15.171a1.844 1.844 0 0 1 .942-2.432L15.43 2.402a1.07 1.07 0 0 1 1.413.547l6.082 13.772a.46.46 0 0 1-.234.605.46.46 0 0 0-.235.605z"/><path stroke="#742901" stroke-linecap="round" stroke-miterlimit="10" stroke-width=".714" d="m25.447 20.14-14.332 6.33a1.844 1.844 0 0 1-2.432-.942 1.854 1.854 0 0 1 .942-2.432l14.333-6.33"/><path stroke="#742901" stroke-miterlimit="10" stroke-width=".714" d="m22.271 17.512 1.49 3.373"/><g filter="url(#c)"><path fill="#2DDF00" d="M5.168 12.456a.18.18 0 0 1 .091-.235l2.01-.887a4.084 4.084 0 0 1 5.384 2.085l.903 2.045a.18.18 0 0 1-.09.235l-2.01.888a4.085 4.085 0 0 1-5.4-2.122z"/></g><path stroke="#008B0E" stroke-linecap="round" stroke-miterlimit="10" stroke-width=".536" d="M16.41 19.021c-1.608-2.904-2.925-3.997-6.171-4.797"/><g filter="url(#d)"><path fill="#2DDF00" d="M14.442 4.677a.18.18 0 0 0-.252-.021l-1.68 1.412a4.084 4.084 0 0 0-.501 5.753l1.437 1.712a.18.18 0 0 0 .252.022l1.682-1.413a4.084 4.084 0 0 0 .475-5.783z"/></g><path stroke="#008B0E" stroke-linecap="round" stroke-miterlimit="10" stroke-width=".536" d="M15.272 17.155c-1.9-2.723-2.3-4.387-1.588-7.654"/></g><defs><filter id="b" width="28.574" height="28.574" x="-1.048" y=".112" color-interpolation-filters="sRGB" filterUnits="userSpaceOnUse"><feFlood flood-opacity="0" result="BackgroundImageFix"/><feColorMatrix in="SourceAlpha" result="hardAlpha" values="0 0 0 0 0 0 0 0 0 0 0 0 0 0 0 0 0 0 127 0"/><feOffset/><feGaussianBlur stdDeviation=".714"/><feColorMatrix values="0 0 0 0 0 0 0 0 0 0 0 0 0 0 0 0 0 0 0.5 0"/><feBlend in2="BackgroundImageFix" result="effect1_dropShadow_791_51734"/><feBlend in="SourceGraphic" in2="effect1_dropShadow_791_51734" result="shape"/><feColorMatrix in="SourceAlpha" result="hardAlpha" values="0 0 0 0 0 0 0 0 0 0 0 0 0 0 0 0 0 0 127 0"/><feOffset dx="-1.072" dy="-1.072"/><feGaussianBlur stdDeviation=".536"/><feComposite in2="hardAlpha" k2="-1" k3="1" operator="arithmetic"/><feColorMatrix values="0 0 0 0 0 0 0 0 0 0 0 0 0 0 0 0 0 0 0.25 0"/><feBlend in2="shape" result="effect2_innerShadow_791_51734"/><feColorMatrix in="SourceAlpha" result="hardAlpha" values="0 0 0 0 0 0 0 0 0 0 0 0 0 0 0 0 0 0 127 0"/><feOffset dx="1.072" dy="1.072"/><feGaussianBlur stdDeviation=".536"/><feComposite in2="hardAlpha" k2="-1" k3="1" operator="arithmetic"/><feColorMatrix values="0 0 0 0 1 0 0 0 0 1 0 0 0 0 1 0 0 0 0.5 0"/><feBlend in2="effect2_innerShadow_791_51734" result="effect3_innerShadow_791_51734"/></filter><filter id="c" width="8.419" height="5.949" x="5.153" y="10.985" color-interpolation-filters="sRGB" filterUnits="userSpaceOnUse"><feFlood flood-opacity="0" result="BackgroundImageFix"/><feBlend in="SourceGraphic" in2="BackgroundImageFix" result="shape"/><feColorMatrix in="SourceAlpha" result="hardAlpha" values="0 0 0 0 0 0 0 0 0 0 0 0 0 0 0 0 0 0 127 0"/><feOffset dx="-.714" dy="-.714"/><feComposite in2="hardAlpha" k2="-1" k3="1" operator="arithmetic"/><feColorMatrix values="0 0 0 0 0 0 0 0 0 0 0 0 0 0 0 0 0 0 0.25 0"/><feBlend in2="shape" result="effect1_innerShadow_791_51734"/></filter><filter id="d" width="5.785" height="8.983" x="11.051" y="4.614" color-interpolation-filters="sRGB" filterUnits="userSpaceOnUse"><feFlood flood-opacity="0" result="BackgroundImageFix"/><feBlend in="SourceGraphic" in2="BackgroundImageFix" result="shape"/><feColorMatrix in="SourceAlpha" result="hardAlpha" values="0 0 0 0 0 0 0 0 0 0 0 0 0 0 0 0 0 0 127 0"/><feOffset dx="-.714" dy="-.714"/><feComposite in2="hardAlpha" k2="-1" k3="1" operator="arithmetic"/><feColorMatrix values="0 0 0 0 0 0 0 0 0 0 0 0 0 0 0 0 0 0 0.25 0"/><feBlend in2="shape" result="effect1_innerShadow_791_51734"/></filter><clipPath id="a"><path fill="#fff" d="M.38 1.54h25.717v25.717H.38z"/></clipPath></defs></svg>