<svg xmlns="http://www.w3.org/2000/svg" width="347" height="347" fill="none"><g clip-path="url(#a)"><path fill="#00BF35" d="M279.92 247.338a.91.91 0 0 1 .415 1.15c-3.732 9.082-9.422 17.632-16.741 25.156-13.72 14.053-32.334 23.79-52.316 27.365-19.682 3.521-39.344.824-55.372-7.579a.91.91 0 0 1-.418-1.156c6.961-16.705 20.362-31.343 37.751-41.211 17.656-10.018 38.196-14.422 57.729-12.378 10.438 1.11 20.278 4.052 28.952 8.653"/><path fill="#00BF35" d="m157.376 287.497-5.761-2.98zm-56.312 45.96a6.486 6.486 0 1 0 5.829 11.589zm75.82-149.101c-6.483.208-6.483.207-6.483.206v.027l.004.114.01.485c.009.434.019 1.088.025 1.941.012 1.707.005 4.21-.069 7.352a310 310 0 0 1-1.637 25.189c-2.163 20.315-6.933 45.153-17.119 64.847l11.522 5.96c11.29-21.827 16.274-48.559 18.496-69.434a322 322 0 0 0 1.707-26.257c.077-3.285.085-5.919.072-7.744a154 154 0 0 0-.027-2.112q-.007-.368-.012-.564l-.005-.153-.001-.043v-.018c0-.001 0-.003-6.483.204m-25.269 100.161c-8.115 15.689-20.687 27.948-31.459 36.366a145 145 0 0 1-13.658 9.476 108 108 0 0 1-4.068 2.368 66 66 0 0 1-1.372.733h.001l.002-.001c.001-.001.003-.002 2.918 5.793 2.914 5.794 2.916 5.793 2.918 5.792l.004-.002.011-.005.033-.017.103-.053.357-.186c.304-.159.736-.39 1.283-.691 1.095-.603 2.652-1.49 4.563-2.655a158 158 0 0 0 14.893-10.331c11.576-9.047 25.702-22.665 34.993-40.627z"/><path fill="#ED106C" stroke="#fff" stroke-width="1.372" d="M256.147 85.414c-8.136 30.364-39.346 48.383-69.71 40.247s-48.383-39.346-40.247-69.71c6.039-22.537 24.791-38.275 46.476-41.562 1.989-.302 4.697-1.218 7.597-2.392 2.915-1.18 6.075-2.64 8.99-4.061a263 263 0 0 0 9.851-5.074l.278-.151.165.27a263.174 263.174 0 0 0 5.994 9.32c1.813 2.687 3.82 5.533 5.754 8.012 1.925 2.466 3.812 4.613 5.384 5.87 17.136 13.688 25.507 36.694 19.468 59.231Z"/><path fill="#ED106C" stroke="#fff" stroke-width="1.372" d="M212.175 171.751c-28.489-13.285-40.815-47.15-27.53-75.64s47.15-40.815 75.639-27.53c21.147 9.86 33.389 31.06 32.861 52.987-.049 2.012.384 4.837 1.036 7.897.655 3.075 1.545 6.442 2.439 9.558a264 264 0 0 0 3.286 10.583l.101.3-.295.116a262.809 262.809 0 0 0-10.219 4.284c-2.962 1.319-6.112 2.801-8.89 4.276-2.763 1.467-5.205 2.952-6.715 4.283-16.457 14.498-40.566 18.747-61.713 8.886Z"/><path fill="#ED106C" stroke="#fff" stroke-width="1.372" d="M150.342 199.06c-15.718-27.224-6.39-62.034 20.833-77.751s62.034-6.39 77.751 20.833c11.667 20.207 9.535 44.595-3.474 62.252-1.193 1.62-2.46 4.183-3.681 7.064-1.227 2.895-2.429 6.163-3.484 9.228a260 260 0 0 0-3.468 10.857l-.307-.074a259.62 259.62 0 0 0-10.829-2.351c-3.183-.619-6.614-1.212-9.735-1.597-3.105-.383-5.957-.567-7.957-.344-21.797 2.438-43.983-7.91-55.649-28.117Z"/><path fill="#ED106C" stroke="#fff" stroke-width="1.372" d="M192.929 182.862c2.739-31.315-20.426-58.922-51.741-61.662-31.315-2.739-58.922 20.426-61.662 51.741-2.034 23.244 10.205 44.446 29.457 54.952 1.767.964 3.998 2.75 6.322 4.845 2.335 2.106 4.806 4.56 7.058 6.892a262 262 0 0 1 7.522 8.137l.209.237.248-.197a264.177 264.177 0 0 1 8.82-6.708c2.623-1.905 5.482-3.893 8.148-5.561 2.652-1.659 5.159-3.032 7.066-3.674 20.785-7.003 36.519-25.758 38.553-49.002Z"/><path fill="#ED106C" stroke="#fff" stroke-width="1.372" d="M96.172 177.776c30.364 8.136 61.574-9.883 69.71-40.247s-9.883-61.574-40.247-69.71c-22.538-6.039-45.543 2.332-59.232 19.468-1.256 1.572-3.403 3.459-5.87 5.384-2.479 1.934-5.324 3.941-8.012 5.754a264 264 0 0 1-9.32 5.995l-.27.165.151.278a261.855 261.855 0 0 1 5.074 9.851c1.422 2.914 2.883 6.074 4.062 8.989 1.174 2.901 2.09 5.608 2.392 7.598 3.287 21.684 19.025 40.436 41.562 46.475Z"/><path fill="#ED106C" stroke="#fff" stroke-width="1.372" d="M189.264 38.806c15.717 27.224 6.39 62.034-20.834 77.752-27.223 15.717-62.033 6.39-77.75-20.834-11.667-20.206-9.536-44.594 3.473-62.252 1.194-1.62 2.46-4.182 3.681-7.063 1.227-2.895 2.429-6.163 3.485-9.229a266 266 0 0 0 3.378-10.554l.089-.303.308.074a263.497 263.497 0 0 0 10.829 2.352c3.182.618 6.613 1.211 9.734 1.596 3.106.383 5.958.567 7.958.344 21.796-2.438 43.982 7.91 55.649 28.117Z"/><path fill="#FF008A" stroke="#fff" stroke-width=".909" d="M232.318 130.138c-14.728 14.728-38.608 14.728-53.336 0s-14.729-38.608 0-53.337c10.932-10.932 26.907-13.75 40.439-8.452 1.242.486 3.099.857 5.152 1.144 2.064.289 4.362.498 6.505.648a174 174 0 0 0 7.543.357l.006.21a174.087 174.087 0 0 0 .352 7.334c.15 2.143.359 4.44.647 6.504.288 2.053.659 3.91 1.145 5.152 5.298 13.533 2.48 29.508-8.453 40.44Z"/><path fill="#FF008A" stroke="#fff" stroke-width=".909" d="M178.478 165.113c-11.947-17.063-7.801-40.579 9.262-52.527 17.062-11.947 40.579-7.8 52.526 9.262 8.868 12.665 8.87 28.886 1.302 41.293-.694 1.139-1.382 2.903-2.022 4.875-.642 1.982-1.247 4.209-1.767 6.293a174 174 0 0 0-1.662 7.367l-.207-.031a178.134 178.134 0 0 0-7.284-.927c-2.137-.224-4.436-.417-6.518-.491-2.072-.074-3.965-.031-5.272.232-14.247 2.868-29.49-2.682-38.358-15.346Z"/><path fill="#FF008A" stroke="#fff" stroke-width=".909" d="M133.948 160.298c0-20.83 16.885-37.715 37.715-37.715 20.829 0 37.715 16.885 37.715 37.715 0 15.46-9.303 28.749-22.619 34.572-1.221.534-2.797 1.585-4.452 2.833-1.663 1.255-3.436 2.732-5.057 4.142a172 172 0 0 0-5.435 4.937l-.152.144-.152-.144a175.885 175.885 0 0 0-5.435-4.937c-1.622-1.41-3.394-2.887-5.057-4.142-1.655-1.248-3.231-2.299-4.453-2.833-13.315-5.823-22.618-19.112-22.618-34.572Z"/><path fill="#FF008A" stroke="#fff" stroke-width=".909" d="M163.754 165.113c11.948-17.063 7.801-40.579-9.261-52.527-17.063-11.947-40.58-7.8-52.527 9.262-8.868 12.665-8.87 28.886-1.302 41.293.695 1.139 1.383 2.903 2.022 4.875.643 1.982 1.247 4.209 1.767 6.293a174 174 0 0 1 1.621 7.162l.041.205.208-.031a178.4 178.4 0 0 1 7.283-.927c2.137-.224 4.436-.417 6.518-.491 2.072-.074 3.966-.031 5.273.232 14.247 2.868 29.49-2.682 38.357-15.346Z"/><path fill="#FF008A" stroke="#fff" stroke-width=".909" d="M109.916 130.138c14.728 14.728 38.608 14.728 53.337 0 14.728-14.729 14.728-38.608 0-53.337-10.933-10.932-26.907-13.75-40.44-8.452-1.242.486-3.099.857-5.152 1.144-2.064.289-4.361.498-6.504.648a174 174 0 0 1-7.544.357l-.005.21a174.087 174.087 0 0 1-.352 7.334c-.15 2.143-.359 4.44-.648 6.504-.287 2.053-.659 3.91-1.145 5.152-5.298 13.533-2.48 29.508 8.453 40.44Z"/><path fill="#FF008A" stroke="#fff" stroke-width=".909" d="M209.378 81.233c0 20.83-16.885 37.715-37.715 37.715-20.829 0-37.714-16.885-37.714-37.715 0-15.46 9.302-28.75 22.618-34.572 1.222-.534 2.797-1.585 4.452-2.834 1.664-1.254 3.436-2.731 5.058-4.14a174 174 0 0 0 5.434-4.938l.152-.144.152.144a174.095 174.095 0 0 0 5.435 4.937c1.622 1.41 3.394 2.887 5.057 4.141 1.655 1.25 3.231 2.3 4.453 2.834 13.315 5.823 22.618 19.112 22.618 34.572Z"/><circle cx="171.274" cy="120.766" r="16.813" fill="#fff"/></g><defs><clipPath id="a"><path fill="#fff" d="M0 0h347v347H0z"/></clipPath></defs></svg>