<svg xmlns="http://www.w3.org/2000/svg" width="121" height="135" fill="none"><g filter="url(#a)"><path fill="#00BF35" d="M66.28 35.696c.09-.02.18.03.208.116.606 1.811.857 3.792.737 5.83-.23 3.812-1.73 7.612-4.215 10.68-2.447 3.02-5.683 5.125-9.11 5.927a.177.177 0 0 1-.208-.117c-1.1-3.342-.991-7.2.312-10.863 1.323-3.72 3.784-6.98 6.917-9.163 1.677-1.165 3.499-1.984 5.36-2.41M32.248 56.115a.177.177 0 0 1 .109-.211c1.786-.675 3.757-1 5.797-.958 3.819.086 7.673 1.44 10.832 3.807 3.112 2.33 5.337 5.484 6.27 8.877a.177.177 0 0 1-.11.213c-3.298 1.227-7.157 1.264-10.867.101-3.767-1.18-7.118-3.517-9.42-6.565-1.226-1.63-2.114-3.42-2.61-5.264"/><path fill="#00BF35" d="m53.977 61.654-1.226.295zm-2.431 13.924a1.261 1.261 0 0 0 2.332.962zM43.72 44.006l-.927.855.003.004.015.016.064.07.25.282c.22.25.537.619.926 1.09.778.944 1.839 2.293 2.964 3.912 2.268 3.263 4.727 7.522 5.736 11.714l2.452-.59c-1.117-4.646-3.786-9.211-6.116-12.563a63 63 0 0 0-3.09-4.078 51 51 0 0 0-1.322-1.537l-.02-.021-.005-.007-.002-.002zm9.03 17.943c.804 3.34.516 6.742.003 9.35a28 28 0 0 1-.802 3.132 21 21 0 0 1-.4 1.136l-.005.011v.001l1.166.48 1.166.48.001-.002.003-.007.009-.02a9 9 0 0 0 .129-.339c.084-.228.2-.556.333-.97.265-.829.598-2.006.875-3.415.551-2.803.895-6.603-.025-10.427z"/><path fill="#ED106C" stroke="#fff" stroke-width=".267" d="M50.744 19.594c1.198 5.994-2.69 11.825-8.684 13.023-5.995 1.198-11.825-2.69-13.023-8.684a11.07 11.07 0 0 1 4.52-11.25c.321-.225.714-.618 1.118-1.072a29 29 0 0 0 1.218-1.483 52 52 0 0 0 1.28-1.733q.018-.029.035-.05l.052.032a49 49 0 0 0 1.848 1.108c.548.313 1.143.636 1.694.901.548.264 1.062.476 1.444.56a11.07 11.07 0 0 1 8.498 8.648Z"/><path fill="#ED106C" stroke="#fff" stroke-width=".267" d="M50.518 38.433c-6.111.14-11.178-4.702-11.317-10.814-.139-6.11 4.703-11.178 10.814-11.317a11.07 11.07 0 0 1 10.294 6.406c.165.355.484.81.861 1.287.38.48.825.99 1.25 1.456a51 51 0 0 0 1.484 1.562l.043.043-.041.046-.34.38c-.285.32-.67.762-1.072 1.248a29 29 0 0 0-1.182 1.511c-.355.494-.653.963-.801 1.325a11.07 11.07 0 0 1-9.993 6.867Z"/><path fill="#ED106C" stroke="#fff" stroke-width=".267" d="M42.09 48.523c-5.085-3.392-6.459-10.264-3.068-15.35 3.392-5.086 10.264-6.46 15.35-3.068a11.07 11.07 0 0 1 4.758 11.152c-.068.385-.068.94-.033 1.548.036.61.108 1.284.188 1.91a51 51 0 0 0 .331 2.19q-.027.008-.06.014l-.497.116c-.416.1-.985.241-1.593.408s-1.258.358-1.835.56c-.574.2-1.087.414-1.416.626a11.07 11.07 0 0 1-12.125-.106Z"/><path fill="#ED106C" stroke="#fff" stroke-width=".267" d="M48.12 42.029c-2.22-5.696-8.638-8.512-14.333-6.291s-8.512 8.638-6.291 14.333a11.07 11.07 0 0 0 9.87 7.041c.391.016.934.135 1.52.3.588.166 1.23.38 1.824.593a51 51 0 0 1 2.012.77q.032.014.057.024l.027-.056a51 51 0 0 1 .96-1.929c.292-.558.62-1.151.94-1.672.32-.517.639-.973.916-1.249a11.07 11.07 0 0 0 2.498-11.864Z"/><path fill="#ED106C" stroke="#fff" stroke-width=".267" d="M30.814 49.48c5.995-1.198 9.883-7.03 8.685-13.023-1.199-5.995-7.03-9.883-13.024-8.685a11.07 11.07 0 0 0-8.648 8.498c-.083.383-.295.896-.56 1.444a29 29 0 0 1-.9 1.694 51 51 0 0 1-1.108 1.848l-.033.052.05.035a48 48 0 0 1 1.734 1.28c.499.386 1.026.811 1.482 1.218.455.404.848.797 1.072 1.118a11.07 11.07 0 0 0 11.25 4.52Z"/><path fill="#ED106C" stroke="#fff" stroke-width=".267" d="M35.068 17.232c5.086 3.391 6.46 10.264 3.068 15.35-3.392 5.085-10.264 6.459-15.35 3.067a11.07 11.07 0 0 1-4.758-11.151c.068-.386.068-.941.033-1.549a29 29 0 0 0-.188-1.909 51 51 0 0 0-.331-2.191l.06-.014a49 49 0 0 0 2.09-.523 29 29 0 0 0 1.835-.56c.574-.201 1.087-.415 1.417-.626a11.07 11.07 0 0 1 12.124.106Z"/><path fill="#FF008A" stroke="#fff" stroke-width=".177" d="M50.442 29.443a7.334 7.334 0 1 1-7.573-9.66c.259-.022.614-.117.997-.244.385-.128.803-.29 1.19-.448a34 34 0 0 0 1.309-.57l.037-.018.019.037.16.298c.134.25.322.589.533.95.21.36.445.743.673 1.078.227.333.452.625.644.8a7.34 7.34 0 0 1 2.011 7.777Z"/><path fill="#FF008A" stroke="#fff" stroke-width=".177" d="M44.07 40.18A7.334 7.334 0 1 1 54.9 34.4c-.023.258.009.625.067 1.024.059.4.145.84.234 1.249a34 34 0 0 0 .335 1.388l.01.04-.038.012a37 37 0 0 0-1.35.466c-.392.145-.81.31-1.179.476-.367.166-.694.336-.899.495a7.34 7.34 0 0 1-8.009.63Z"/><path fill="#FF008A" stroke="#fff" stroke-width=".177" d="M35.893 43.177a7.334 7.334 0 1 1 12.185 1.476c-.167.199-.351.518-.532.878-.182.362-.363.772-.525 1.158a34 34 0 0 0-.522 1.329l-.014.038-.039-.012a31 31 0 0 0-1.373-.392c-.404-.107-.84-.211-1.238-.287-.396-.075-.761-.122-1.02-.11a7.34 7.34 0 0 1-6.922-4.078Z"/><path fill="#FF008A" stroke="#fff" stroke-width=".177" d="M41.504 41.449a7.334 7.334 0 1 0-11.168 5.092c.219.139.49.387.772.676s.58.626.85.945a34 34 0 0 1 .9 1.108l.025.033.033-.023.28-.192c.234-.16.557-.374.91-.598a19 19 0 0 1 1.094-.647c.355-.192.689-.347.94-.414a7.34 7.34 0 0 0 5.364-5.98Z"/><path fill="#FF008A" stroke="#fff" stroke-width=".177" d="M29.105 39.99a7.334 7.334 0 1 0-3.076-11.882c-.174.191-.466.416-.8.643s-.717.463-1.077.673a34 34 0 0 1-1.249.694l-.036.019.017.037a32 32 0 0 1 .571 1.309c.159.386.32.805.448 1.19.127.382.222.738.244.996a7.34 7.34 0 0 0 4.958 6.322Z"/><path fill="#FF008A" stroke="#fff" stroke-width=".177" d="M42.229 22.895a7.334 7.334 0 1 1-12.186-1.476c.167-.199.351-.518.532-.878.182-.362.364-.773.525-1.158a34 34 0 0 0 .522-1.329l.014-.038.039.012a31 31 0 0 0 1.373.392c.404.106.84.211 1.238.286.396.076.761.123 1.02.11a7.34 7.34 0 0 1 6.922 4.079Z"/><circle cx="38.993" cy="33.07" r="3.269" fill="#fff" transform="rotate(-26.303 38.993 33.07)"/><path fill="#00BF35" d="M58.136 50.136a.177.177 0 0 0-.194.137c-.416 1.864-.46 3.86-.13 5.875.624 3.768 2.51 7.392 5.298 10.186 2.747 2.752 6.183 4.51 9.674 4.953a.177.177 0 0 0 .195-.138c.749-3.438.24-7.264-1.434-10.773-1.701-3.562-4.486-6.55-7.829-8.398-1.788-.984-3.685-1.61-5.58-1.842"/><path fill="#00BF35" d="m73.21 70.177 1.25.166zm3.866 13.596a1.261 1.261 0 0 1-2.22 1.2zm4.5-32.215 1.012.755-.003.004-.014.018-.055.076-.22.306c-.192.271-.47.671-.807 1.18a60 60 0 0 0-2.542 4.2c-1.916 3.48-3.92 7.972-4.487 12.246l-2.5-.332c.628-4.737 2.808-9.554 4.777-13.13a63 63 0 0 1 2.65-4.378 50 50 0 0 1 1.154-1.665l.018-.024.005-.007.002-.003zM74.46 70.343c-.451 3.405.19 6.76.97 9.3a28 28 0 0 0 1.124 3.031 21 21 0 0 0 .49 1.04l.026.049.006.01v.001l-1.11.599a185 185 0 0 1-1.11.598l-.002-.002-.003-.006-.01-.02-.037-.07q-.046-.089-.127-.253a23 23 0 0 1-.433-.93 31 31 0 0 1-1.225-3.306c-.84-2.73-1.577-6.474-1.06-10.373z"/><path fill="#ED106C" stroke="#fff" stroke-width=".267" d="M79.946 26.96c-2.082 5.747.89 12.093 6.638 14.175 5.747 2.082 12.094-.89 14.176-6.638a11.07 11.07 0 0 0-2.787-11.8c-.284-.27-.613-.717-.945-1.227a29 29 0 0 1-.982-1.648 52 52 0 0 1-1.034-1.96l-.056.024a49 49 0 0 1-1.993.82c-.588.226-1.225.457-1.81.637-.58.179-1.12.311-1.511.337a11.07 11.07 0 0 0-9.696 7.28Z"/><path fill="#ED106C" stroke="#fff" stroke-width=".267" d="M77.352 45.62c6.021 1.052 11.755-2.976 12.807-8.998s-2.977-11.756-8.999-12.808a11.07 11.07 0 0 0-11.136 4.793c-.217.326-.6.729-1.044 1.144-.447.418-.964.856-1.453 1.253a51 51 0 0 1-1.702 1.322l-.05.037.035.051a50 50 0 0 1 1.153 1.82c.325.54.663 1.127.942 1.672.277.541.501 1.05.594 1.43a11.07 11.07 0 0 0 8.853 8.285Z"/><path fill="#ED106C" stroke="#fff" stroke-width=".267" d="M84.172 56.857c5.536-2.593 7.922-9.182 5.33-14.718s-9.182-7.922-14.718-5.33a11.07 11.07 0 0 0-6.373 10.314c.01.392-.073.941-.2 1.536a29 29 0 0 1-.47 1.86 51 51 0 0 1-.656 2.117l.058.023a49 49 0 0 1 1.988.83c.577.255 1.19.542 1.73.828.538.285 1.013.573 1.308.831a11.07 11.07 0 0 0 12.003 1.709Z"/><path fill="#ED106C" stroke="#fff" stroke-width=".267" d="M79.183 49.534c3.048-5.298 9.814-7.123 15.113-4.075s7.124 9.814 4.076 15.113a11.07 11.07 0 0 1-10.813 5.485c-.39-.043-.944-.006-1.547.07-.607.075-1.274.192-1.893.313a51 51 0 0 0-2.105.46l-.06.015-.017-.059a49 49 0 0 0-.66-2.051 29 29 0 0 0-.68-1.794c-.24-.56-.486-1.057-.719-1.372a11.07 11.07 0 0 1-.695-12.105Z"/><path fill="#ED106C" stroke="#fff" stroke-width=".267" d="M95.18 59.49c-5.748-2.08-8.72-8.428-6.638-14.175 2.081-5.748 8.428-8.72 14.175-6.638a11.07 11.07 0 0 1 7.28 9.696c.025.39.158.93.337 1.512.18.584.41 1.22.637 1.809.227.588.451 1.13.618 1.524.083.197.153.358.201.469l.025.056-.055.028-.455.231c-.381.196-.899.468-1.45.775s-1.136.648-1.649.982c-.51.332-.957.661-1.226.945a11.07 11.07 0 0 1-11.8 2.787Z"/><path fill="#ED106C" stroke="#fff" stroke-width=".267" d="M95.799 26.97c-5.536 2.592-7.923 9.181-5.33 14.717s9.181 7.922 14.717 5.33a11.07 11.07 0 0 0 6.374-10.314c-.01-.391.073-.94.199-1.536.126-.599.298-1.253.471-1.86.173-.606.347-1.166.478-1.574.065-.203.12-.37.158-.485l.019-.058-.057-.022a51 51 0 0 1-1.989-.83 29 29 0 0 1-1.73-.83c-.537-.284-1.013-.572-1.307-.83a11.07 11.07 0 0 0-12.003-1.709Z"/><path fill="#FF008A" stroke="#fff" stroke-width=".177" d="M78.77 36.743a7.334 7.334 0 1 0 8.932-8.418c-.252-.061-.59-.209-.949-.391-.36-.184-.75-.406-1.109-.62a34 34 0 0 1-1.209-.76l-.034-.023-.024.033a36 36 0 0 1-.872 1.13c-.263.325-.551.668-.827.965s-.54.55-.756.695a7.34 7.34 0 0 0-3.152 7.39Z"/><path fill="#FF008A" stroke="#fff" stroke-width=".177" d="M83.463 48.312a7.334 7.334 0 1 0-9.841-7.335c-.016.259-.103.617-.22 1.003-.118.387-.27.81-.419 1.2a34 34 0 0 1-.538 1.322l-.017.038.037.018a32 32 0 0 1 1.264.662c.366.202.754.427 1.095.647.338.22.635.437.815.624a7.34 7.34 0 0 0 7.824 1.821Z"/><path fill="#FF008A" stroke="#fff" stroke-width=".177" d="M91.1 52.5a7.334 7.334 0 1 0-12.269-.364c.136.221.27.564.395.947.126.386.244.818.346 1.224a34 34 0 0 1 .317 1.392l.008.04.04-.006c.08-.012.195-.03.335-.049.281-.04.666-.09 1.082-.134a19 19 0 0 1 1.267-.098c.403-.015.771-.007 1.025.044A7.34 7.34 0 0 0 91.1 52.5Z"/><path fill="#FF008A" stroke="#fff" stroke-width=".177" d="M85.813 49.95a7.334 7.334 0 1 1 10.28 6.707c-.237.104-.543.31-.865.553-.323.244-.667.532-.982.806a34 34 0 0 0-1.055.962l-.03.028-.03-.028a32 32 0 0 0-1.058-.958 19 19 0 0 0-.984-.804c-.323-.242-.63-.446-.867-.55a7.34 7.34 0 0 1-4.41-6.715Z"/><path fill="#FF008A" stroke="#fff" stroke-width=".177" d="M98.29 50.365a7.334 7.334 0 1 1 4.82-11.29c.144.216.398.482.694.756.297.276.64.565.965.828.325.262.633.499.86.67l.27.202.033.024-.022.034-.185.283c-.153.239-.361.567-.575.926-.215.358-.437.748-.621 1.11-.182.359-.33.696-.391.948a7.34 7.34 0 0 1-5.848 5.509Z"/><path fill="#FF008A" stroke="#fff" stroke-width=".177" d="M87.87 31.497a7.334 7.334 0 1 0 12.269.364c-.135-.222-.27-.564-.394-.948a19 19 0 0 1-.346-1.223 34 34 0 0 1-.317-1.392l-.008-.04-.04.006a33 33 0 0 1-1.417.183c-.415.044-.862.082-1.267.097-.403.015-.771.007-1.026-.043a7.34 7.34 0 0 0-7.454 2.996Z"/><circle cx="3.269" cy="3.269" r="3.269" fill="#fff" transform="scale(-1 1)rotate(-34.908 18.518 170.258)"/><g filter="url(#b)"><path fill="#B26B00" d="M34.132 88.963a3.014 3.014 0 0 1 2.995-3.349h47.314a3.014 3.014 0 0 1 2.995 3.349l-3.854 34.511a3.014 3.014 0 0 1-2.996 2.68H40.982a3.014 3.014 0 0 1-2.995-2.68z"/></g><g filter="url(#c)"><path fill="#B26B00" d="M89.114 69.85H32.455a3.014 3.014 0 0 0-3.014 3.013v11.896a3.014 3.014 0 0 0 3.014 3.014h56.659a3.014 3.014 0 0 0 3.013-3.014V72.863a3.014 3.014 0 0 0-3.013-3.014"/></g><g stroke="#742901" stroke-linecap="round" stroke-miterlimit="10" stroke-width="5.5" filter="url(#d)"><path d="M72.538 97.219a14.4 14.4 0 0 1 4.172-1.863 14.63 14.63 0 0 1 17.46 19.258M88.46 121.782a14.4 14.4 0 0 1-4.172 1.862 14.63 14.63 0 0 1-14.593-4.313 14.63 14.63 0 0 1-2.868-14.945"/><path d="m76.913 99.743-4.608-2.661 2.66-4.608M84.09 119.258l4.609 2.66-2.661 4.609"/></g></g><defs><filter id="a" width="134.513" height="143.13" x="-6.757" y="-6.757" color-interpolation-filters="sRGB" filterUnits="userSpaceOnUse"><feFlood flood-opacity="0" result="BackgroundImageFix"/><feBlend in="SourceGraphic" in2="BackgroundImageFix" result="shape"/><feColorMatrix in="SourceAlpha" result="hardAlpha" values="0 0 0 0 0 0 0 0 0 0 0 0 0 0 0 0 0 0 127 0"/><feOffset dx="-6.757" dy="-6.757"/><feGaussianBlur stdDeviation="3.378"/><feComposite in2="hardAlpha" k2="-1" k3="1" operator="arithmetic"/><feColorMatrix values="0 0 0 0 0 0 0 0 0 0 0 0 0 0 0 0 0 0 0.25 0"/><feBlend in2="shape" result="effect1_innerShadow_952_29311"/><feColorMatrix in="SourceAlpha" result="hardAlpha" values="0 0 0 0 0 0 0 0 0 0 0 0 0 0 0 0 0 0 127 0"/><feOffset dx="6.757" dy="6.757"/><feGaussianBlur stdDeviation="3.378"/><feComposite in2="hardAlpha" k2="-1" k3="1" operator="arithmetic"/><feColorMatrix values="0 0 0 0 1 0 0 0 0 1 0 0 0 0 1 0 0 0 0.5 0"/><feBlend in2="effect1_innerShadow_952_29311" result="effect2_innerShadow_952_29311"/></filter><filter id="b" width="53.342" height="40.54" x="34.113" y="85.614" color-interpolation-filters="sRGB" filterUnits="userSpaceOnUse"><feFlood flood-opacity="0" result="BackgroundImageFix"/><feBlend in="SourceGraphic" in2="BackgroundImageFix" result="shape"/><feColorMatrix in="SourceAlpha" result="hardAlpha" values="0 0 0 0 0 0 0 0 0 0 0 0 0 0 0 0 0 0 127 0"/><feOffset dx="-2.252" dy="-2.252"/><feComposite in2="hardAlpha" k2="-1" k3="1" operator="arithmetic"/><feColorMatrix values="0 0 0 0 0 0 0 0 0 0 0 0 0 0 0 0 0 0 0.25 0"/><feBlend in2="shape" result="effect1_innerShadow_952_29311"/><feColorMatrix in="SourceAlpha" result="hardAlpha" values="0 0 0 0 0 0 0 0 0 0 0 0 0 0 0 0 0 0 127 0"/><feOffset dy="4.504"/><feComposite in2="hardAlpha" k2="-1" k3="1" operator="arithmetic"/><feColorMatrix values="0 0 0 0 0 0 0 0 0 0 0 0 0 0 0 0 0 0 0.25 0"/><feBlend in2="effect1_innerShadow_952_29311" result="effect2_innerShadow_952_29311"/></filter><filter id="c" width="62.685" height="17.924" x="29.441" y="69.849" color-interpolation-filters="sRGB" filterUnits="userSpaceOnUse"><feFlood flood-opacity="0" result="BackgroundImageFix"/><feBlend in="SourceGraphic" in2="BackgroundImageFix" result="shape"/><feColorMatrix in="SourceAlpha" result="hardAlpha" values="0 0 0 0 0 0 0 0 0 0 0 0 0 0 0 0 0 0 127 0"/><feOffset dx="-2.252" dy="-2.252"/><feComposite in2="hardAlpha" k2="-1" k3="1" operator="arithmetic"/><feColorMatrix values="0 0 0 0 0 0 0 0 0 0 0 0 0 0 0 0 0 0 0.25 0"/><feBlend in2="shape" result="effect1_innerShadow_952_29311"/></filter><filter id="d" width="45.691" height="50.554" x="57.652" y="84.223" color-interpolation-filters="sRGB" filterUnits="userSpaceOnUse"><feFlood flood-opacity="0" result="BackgroundImageFix"/><feColorMatrix in="SourceAlpha" result="hardAlpha" values="0 0 0 0 0 0 0 0 0 0 0 0 0 0 0 0 0 0 127 0"/><feOffset/><feGaussianBlur stdDeviation="2.75"/><feColorMatrix values="0 0 0 0 1 0 0 0 0 1 0 0 0 0 1 0 0 0 1 0"/><feBlend in2="BackgroundImageFix" result="effect1_dropShadow_952_29311"/><feBlend in="SourceGraphic" in2="effect1_dropShadow_952_29311" result="shape"/></filter></defs></svg>