<svg xmlns="http://www.w3.org/2000/svg" width="27" height="27" fill="none"><g stroke-miterlimit="10" filter="url(#a)"><path fill="#742901" stroke="#fff" stroke-width=".857" d="M19.542 7.543a1.71 1.71 0 0 1-1.426-.762l-1.028-1.54a1.71 1.71 0 0 0-1.426-.762h-4.296c-.572 0-1.107.286-1.425.762L8.912 6.78a1.71 1.71 0 0 1-1.426.762H4.31A2.047 2.047 0 0 0 2.263 9.59v11.25a2.036 2.036 0 0 0 2.047 2.047h18.408a2.035 2.035 0 0 0 2.047-2.046V9.59a2.047 2.047 0 0 0-2.047-2.047z"/><path fill="#fff" stroke="#fff" stroke-width=".857" d="M13.514 19.811a5.111 5.111 0 1 0 0-10.222 5.111 5.111 0 0 0 0 10.222Z"/><path stroke="#fff" stroke-linecap="round" stroke-width="1.714" d="M21.305 10.632h0"/><path stroke="#742901" stroke-width="1.779" d="M5.328 5.496v2.047"/></g><defs><filter id="a" width="29.145" height="29.145" x="-1.058" y="-.89" color-interpolation-filters="sRGB" filterUnits="userSpaceOnUse"><feFlood flood-opacity="0" result="BackgroundImageFix"/><feColorMatrix in="SourceAlpha" result="hardAlpha" values="0 0 0 0 0 0 0 0 0 0 0 0 0 0 0 0 0 0 127 0"/><feOffset/><feGaussianBlur stdDeviation=".857"/><feComposite in2="hardAlpha" operator="out"/><feColorMatrix values="0 0 0 0 0 0 0 0 0 0 0 0 0 0 0 0 0 0 0.5 0"/><feBlend in2="BackgroundImageFix" result="effect1_dropShadow_791_51761"/><feBlend in="SourceGraphic" in2="effect1_dropShadow_791_51761" result="shape"/><feColorMatrix in="SourceAlpha" result="hardAlpha" values="0 0 0 0 0 0 0 0 0 0 0 0 0 0 0 0 0 0 127 0"/><feOffset dx="-1.286" dy="-1.286"/><feGaussianBlur stdDeviation=".643"/><feComposite in2="hardAlpha" k2="-1" k3="1" operator="arithmetic"/><feColorMatrix values="0 0 0 0 0 0 0 0 0 0 0 0 0 0 0 0 0 0 0.25 0"/><feBlend in2="shape" result="effect2_innerShadow_791_51761"/><feColorMatrix in="SourceAlpha" result="hardAlpha" values="0 0 0 0 0 0 0 0 0 0 0 0 0 0 0 0 0 0 127 0"/><feOffset dx="1.286" dy="1.286"/><feGaussianBlur stdDeviation=".643"/><feComposite in2="hardAlpha" k2="-1" k3="1" operator="arithmetic"/><feColorMatrix values="0 0 0 0 1 0 0 0 0 1 0 0 0 0 1 0 0 0 0.5 0"/><feBlend in2="effect2_innerShadow_791_51761" result="effect3_innerShadow_791_51761"/></filter></defs></svg>