<svg xmlns="http://www.w3.org/2000/svg" width="28" height="27" fill="none"><g clip-path="url(#a)" filter="url(#b)"><circle cx="14.062" cy="13.355" r="11.425" fill="#EBCB9B"/><path stroke="#855000" stroke-miterlimit="10" stroke-width=".579" d="M16.151 18.756a11 11 0 0 0-5.572.386 11.1 11.1 0 0 0-4.2 2.497M6.379 5.212a11.2 11.2 0 0 0 7.726 3.076 11.2 11.2 0 0 0 7.725-3.076"/><path stroke="#855000" stroke-miterlimit="10" stroke-width=".579" d="M18.198 13.398c0-6.214-1.832-11.25-4.093-11.25-2.26 0-4.093 5.036-4.093 11.25a27 27 0 0 0 .568 5.69c.707 3.333 2.025 5.561 3.525 5.561"/><path stroke="#855000" stroke-miterlimit="10" stroke-width=".579" d="M16.151 24.467c-.675.12-1.36.182-2.046.182a11.25 11.25 0 1 1 11.25-11.25H2.854"/><g filter="url(#c)"><path fill="#2DDF00" d="M14.561 17.89c-.695-1.2-1.752-2.161-3.065-2.791l-2.305-1.17a.214.214 0 0 0-.31.18l-.115 2.583c-.1 1.59.29 3.103 1.126 4.37 1.11 1.672 2.931 2.804 5.108 3.177.745-2.075.656-4.214-.249-6.001-.065-.133-.125-.236-.19-.348"/></g><path stroke="#fff" stroke-miterlimit="10" stroke-width=".214" d="M15 24.239c-2.177-.373-3.997-1.505-5.108-3.177-.835-1.267-1.226-2.78-1.126-4.37l.114-2.582a.214.214 0 0 1 .311-.182l2.305 1.17c1.313.63 2.37 1.593 3.065 2.792.065.112.125.215.19.348.905 1.787.994 3.926.249 6Zm0 0c-.832-2.196-1.255-3.445-3.082-5.24"/><g filter="url(#d)"><path fill="#2DDF00" d="M17.64 16.692c1.194-1.342 2.784-2.29 4.614-2.75l3.323-.914a.214.214 0 0 1 .268.24l-.538 3.404c-.286 2.043-1.174 3.864-2.563 5.255-1.842 1.835-4.446 2.8-7.305 2.71-.408-2.827.258-5.519 1.87-7.553.117-.152.22-.267.331-.392"/></g><path stroke="#fff" stroke-miterlimit="10" stroke-width=".214" d="M15.44 24.636c2.858.091 5.462-.874 7.304-2.709 1.389-1.391 2.277-3.212 2.563-5.254l.538-3.405a.214.214 0 0 0-.268-.24l-3.323.915c-1.83.46-3.42 1.407-4.614 2.75-.111.124-.214.24-.33.39-1.613 2.035-2.28 4.727-1.87 7.553Zm0 0c1.624-2.571 2.483-4.046 5.268-5.85"/></g><defs><filter id="b" width="29.145" height="29.145" x="-.468" y="-1.174" color-interpolation-filters="sRGB" filterUnits="userSpaceOnUse"><feFlood flood-opacity="0" result="BackgroundImageFix"/><feColorMatrix in="SourceAlpha" result="hardAlpha" values="0 0 0 0 0 0 0 0 0 0 0 0 0 0 0 0 0 0 127 0"/><feOffset/><feGaussianBlur stdDeviation=".857"/><feColorMatrix values="0 0 0 0 0 0 0 0 0 0 0 0 0 0 0 0 0 0 0.5 0"/><feBlend in2="BackgroundImageFix" result="effect1_dropShadow_791_51753"/><feBlend in="SourceGraphic" in2="effect1_dropShadow_791_51753" result="shape"/><feColorMatrix in="SourceAlpha" result="hardAlpha" values="0 0 0 0 0 0 0 0 0 0 0 0 0 0 0 0 0 0 127 0"/><feOffset dx="-1.286" dy="-1.286"/><feGaussianBlur stdDeviation=".643"/><feComposite in2="hardAlpha" k2="-1" k3="1" operator="arithmetic"/><feColorMatrix values="0 0 0 0 0 0 0 0 0 0 0 0 0 0 0 0 0 0 0.25 0"/><feBlend in2="shape" result="effect2_innerShadow_791_51753"/><feColorMatrix in="SourceAlpha" result="hardAlpha" values="0 0 0 0 0 0 0 0 0 0 0 0 0 0 0 0 0 0 127 0"/><feOffset dx="1.286" dy="1.286"/><feGaussianBlur stdDeviation=".643"/><feComposite in2="hardAlpha" k2="-1" k3="1" operator="arithmetic"/><feColorMatrix values="0 0 0 0 1 0 0 0 0 1 0 0 0 0 1 0 0 0 0.5 0"/><feBlend in2="effect2_innerShadow_791_51753" result="effect3_innerShadow_791_51753"/></filter><filter id="c" width="6.965" height="10.562" x="8.643" y="13.797" color-interpolation-filters="sRGB" filterUnits="userSpaceOnUse"><feFlood flood-opacity="0" result="BackgroundImageFix"/><feBlend in="SourceGraphic" in2="BackgroundImageFix" result="shape"/><feColorMatrix in="SourceAlpha" result="hardAlpha" values="0 0 0 0 0 0 0 0 0 0 0 0 0 0 0 0 0 0 127 0"/><feOffset dx="-.857" dy="-.857"/><feComposite in2="hardAlpha" k2="-1" k3="1" operator="arithmetic"/><feColorMatrix values="0 0 0 0 0 0 0 0 0 0 0 0 0 0 0 0 0 0 0.25 0"/><feBlend in2="shape" result="effect1_innerShadow_791_51753"/></filter><filter id="d" width="10.74" height="11.836" x="15.215" y="12.913" color-interpolation-filters="sRGB" filterUnits="userSpaceOnUse"><feFlood flood-opacity="0" result="BackgroundImageFix"/><feBlend in="SourceGraphic" in2="BackgroundImageFix" result="shape"/><feColorMatrix in="SourceAlpha" result="hardAlpha" values="0 0 0 0 0 0 0 0 0 0 0 0 0 0 0 0 0 0 127 0"/><feOffset dx="-.857" dy="-.857"/><feComposite in2="hardAlpha" k2="-1" k3="1" operator="arithmetic"/><feColorMatrix values="0 0 0 0 0 0 0 0 0 0 0 0 0 0 0 0 0 0 0.25 0"/><feBlend in2="shape" result="effect1_innerShadow_791_51753"/></filter><clipPath id="a"><path fill="#fff" d="M1.247.54h25.716v25.717H1.247z"/></clipPath></defs></svg>