<svg xmlns="http://www.w3.org/2000/svg" width="32" height="27" fill="none"><mask id="b" width="31" height="26" x=".922" y=".644" fill="#000" maskUnits="userSpaceOnUse"><path fill="#fff" d="M.922.644h31v26h-31z"/><path fill-rule="evenodd" d="M10.16 23.265q.058.075.124.145c.919.991 2.409.991 3.328 0L28.851 6.977c.919-.992.919-2.598 0-3.59-.92-.99-2.41-.99-3.329 0l-13.57 14.634-5.013-5.407c-.919-.99-2.409-.99-3.328 0-.919.991-.919 2.598 0 3.59l6.531 7.043z" clip-rule="evenodd"/></mask><g filter="url(#a)"><path fill="#2DDF00" fill-rule="evenodd" d="M10.16 23.265q.058.075.124.145c.919.991 2.409.991 3.328 0L28.851 6.977c.919-.992.919-2.598 0-3.59-.92-.99-2.41-.99-3.329 0l-13.57 14.634-5.013-5.407c-.919-.99-2.409-.99-3.328 0-.919.991-.919 2.598 0 3.59l6.531 7.043z" clip-rule="evenodd"/></g><path fill="#fff" d="m10.284 23.41-1.467 1.36zm-.125-.145 1.566-1.245-.054-.067-.06-.063zm3.453.145-1.466-1.36zM28.851 6.977l1.466 1.36zm0-3.59 1.466-1.36zm-3.329 0 1.467 1.36zm-13.57 14.634-1.466 1.36 1.467 1.581 1.466-1.581zM6.94 12.614l1.467-1.36zm-3.328 0-1.466-1.36zm0 3.59 1.467-1.36zm6.531 7.043 1.467-1.36zm1.608-1.197-.025-.03-3.131 2.49q.106.132.223.26zm.396 0c-.083.089-.155.103-.198.103s-.115-.014-.198-.103l-2.933 2.72a4.234 4.234 0 0 0 6.262 0zM27.383 5.617 12.146 22.05l2.933 2.72L30.317 8.337zm0-.87c.208.224.208.646 0 .87l2.933 2.72c1.63-1.759 1.63-4.551 0-6.31zm-.395 0c.082-.089.154-.103.197-.103s.116.014.198.103l2.933-2.72a4.234 4.234 0 0 0-6.261 0zm-13.57 14.634L26.99 4.747l-2.933-2.72-13.57 14.634zm-7.946-5.407 5.013 5.407 2.933-2.72-5.013-5.407zm-.395 0c.082-.089.154-.103.197-.103s.115.014.198.103l2.933-2.72a4.234 4.234 0 0 0-6.261 0zm0 .87c-.208-.224-.208-.646 0-.87l-2.933-2.72c-1.63 1.759-1.63 4.551 0 6.31zm6.53 7.043-6.53-7.043-2.933 2.72 6.53 7.042zm.004.003-.004-.003-2.933 2.72.032.033z" mask="url(#b)"/><defs><filter id="a" width="34.118" height="29.009" x="-.828" y="-1.106" color-interpolation-filters="sRGB" filterUnits="userSpaceOnUse"><feFlood flood-opacity="0" result="BackgroundImageFix"/><feBlend in="SourceGraphic" in2="BackgroundImageFix" result="shape"/><feColorMatrix in="SourceAlpha" result="hardAlpha" values="0 0 0 0 0 0 0 0 0 0 0 0 0 0 0 0 0 0 127 0"/><feOffset dx="-1.75" dy="-1.75"/><feGaussianBlur stdDeviation=".875"/><feComposite in2="hardAlpha" k2="-1" k3="1" operator="arithmetic"/><feColorMatrix values="0 0 0 0 0 0 0 0 0 0 0 0 0 0 0 0 0 0 0.25 0"/><feBlend in2="shape" result="effect1_innerShadow_791_51962"/><feColorMatrix in="SourceAlpha" result="hardAlpha" values="0 0 0 0 0 0 0 0 0 0 0 0 0 0 0 0 0 0 127 0"/><feOffset dx="1.75" dy="1.75"/><feGaussianBlur stdDeviation=".875"/><feComposite in2="hardAlpha" k2="-1" k3="1" operator="arithmetic"/><feColorMatrix values="0 0 0 0 1 0 0 0 0 1 0 0 0 0 1 0 0 0 0.5 0"/><feBlend in2="effect1_innerShadow_791_51962" result="effect2_innerShadow_791_51962"/></filter></defs></svg>