<svg xmlns="http://www.w3.org/2000/svg" width="30" height="29" fill="none"><g filter="url(#a)"><path fill="#FF008A" stroke="#fff" stroke-miterlimit="10" stroke-width=".257" d="M13.403 14.854a.635.635 0 0 1-.001.857 7.107 7.107 0 0 1-5.246 2.309 7.14 7.14 0 0 1-5.257-2.315.637.637 0 0 1 0-.861 7.3 7.3 0 0 1 1.705-1.385 7.1 7.1 0 0 1 4.964-.795 7.1 7.1 0 0 1 3.835 2.19ZM25.038 13.479a7.2 7.2 0 0 1 1.7 1.363.637.637 0 0 1 .002.862 7.3 7.3 0 0 1-1.705 1.384 7.1 7.1 0 0 1-4.965.795 7.1 7.1 0 0 1-3.836-2.191.635.635 0 0 1 0-.856 7.06 7.06 0 0 1 3.833-2.177 7.1 7.1 0 0 1 4.971.82Z"/><path fill="#FF008A" stroke="#fff" stroke-miterlimit="10" stroke-width=".257" d="M22.747 6.659a.64.64 0 0 1 .597.597 7.267 7.267 0 0 1-3.262 6.59 7.35 7.35 0 0 1-4.505 1.181.64.64 0 0 1-.601-.6 7.35 7.35 0 0 1 1.18-4.506 7.27 7.27 0 0 1 6.59-3.262ZM6.084 7.256a.64.64 0 0 1 .597-.597 7.267 7.267 0 0 1 6.59 3.262 7.35 7.35 0 0 1 1.181 4.505.64.64 0 0 1-.6.601 7.35 7.35 0 0 1-4.506-1.18 7.27 7.27 0 0 1-3.262-6.591Z"/><path fill="#FF008A" stroke="#fff" stroke-miterlimit="10" stroke-width=".257" d="M14.502 3.165a.64.64 0 0 1 .845 0 7.266 7.266 0 0 1 2.353 6.967 7.35 7.35 0 0 1-2.35 4.02.64.64 0 0 1-.85 0 7.35 7.35 0 0 1-2.351-4.02 7.27 7.27 0 0 1 2.353-6.967ZM22.747 23.03a.64.64 0 0 0 .597-.597 7.266 7.266 0 0 0-3.262-6.59 7.35 7.35 0 0 0-4.505-1.181.64.64 0 0 0-.601.6 7.35 7.35 0 0 0 1.18 4.506 7.27 7.27 0 0 0 6.59 3.262ZM6.084 22.433a.64.64 0 0 0 .597.597 7.266 7.266 0 0 0 6.59-3.262 7.35 7.35 0 0 0 1.181-4.505.64.64 0 0 0-.6-.601 7.35 7.35 0 0 0-4.506 1.18 7.27 7.27 0 0 0-3.262 6.591Z"/><path fill="#FF008A" stroke="#fff" stroke-miterlimit="10" stroke-width=".257" d="M14.502 26.523a.64.64 0 0 0 .845 0 7.266 7.266 0 0 0 2.353-6.967 7.35 7.35 0 0 0-2.35-4.02.64.64 0 0 0-.85 0 7.35 7.35 0 0 0-2.351 4.02 7.27 7.27 0 0 0 2.353 6.967Z"/><circle cx="15.11" cy="14.845" r="2.1" fill="#fff"/></g><defs><filter id="a" width="30.756" height="30.756" x="-.431" y="-.696" color-interpolation-filters="sRGB" filterUnits="userSpaceOnUse"><feFlood flood-opacity="0" result="BackgroundImageFix"/><feColorMatrix in="SourceAlpha" result="hardAlpha" values="0 0 0 0 0 0 0 0 0 0 0 0 0 0 0 0 0 0 127 0"/><feOffset/><feGaussianBlur stdDeviation="1.029"/><feComposite in2="hardAlpha" operator="out"/><feColorMatrix values="0 0 0 0 0 0 0 0 0 0 0 0 0 0 0 0 0 0 0.5 0"/><feBlend in2="BackgroundImageFix" result="effect1_dropShadow_791_51797"/><feBlend in="SourceGraphic" in2="effect1_dropShadow_791_51797" result="shape"/><feColorMatrix in="SourceAlpha" result="hardAlpha" values="0 0 0 0 0 0 0 0 0 0 0 0 0 0 0 0 0 0 127 0"/><feOffset dx="-2.52" dy="-2.52"/><feGaussianBlur stdDeviation="1.26"/><feComposite in2="hardAlpha" k2="-1" k3="1" operator="arithmetic"/><feColorMatrix values="0 0 0 0 0 0 0 0 0 0 0 0 0 0 0 0 0 0 0.25 0"/><feBlend in2="shape" result="effect2_innerShadow_791_51797"/><feColorMatrix in="SourceAlpha" result="hardAlpha" values="0 0 0 0 0 0 0 0 0 0 0 0 0 0 0 0 0 0 127 0"/><feOffset dx="2.52" dy="2.52"/><feGaussianBlur stdDeviation="1.26"/><feComposite in2="hardAlpha" k2="-1" k3="1" operator="arithmetic"/><feColorMatrix values="0 0 0 0 1 0 0 0 0 1 0 0 0 0 1 0 0 0 0.5 0"/><feBlend in2="effect2_innerShadow_791_51797" result="effect3_innerShadow_791_51797"/></filter></defs></svg>