<svg xmlns="http://www.w3.org/2000/svg" width="347" height="347" fill="none"><g clip-path="url(#a)"><path fill="#00BF35" d="M262.267 246.236a.92.92 0 0 1 .419 1.161c-3.767 9.165-9.509 17.795-16.897 25.388-13.846 14.184-32.632 24.01-52.799 27.618-19.863 3.554-39.707.832-55.884-7.648a.917.917 0 0 1-.421-1.167c7.025-16.86 20.549-31.634 38.1-41.592 17.818-10.111 38.548-14.556 58.262-12.493 10.534 1.121 20.465 4.09 29.22 8.733"/><path fill="#00BF35" d="m138.586 286.767-5.814-3.007zm-56.832 46.385a6.547 6.547 0 0 0 5.883 11.696zm76.52-150.479c-6.543.209-6.543.208-6.543.207v.004l.001.024.003.115.011.489c.009.438.019 1.098.025 1.959.012 1.723.005 4.249-.069 7.42a313 313 0 0 1-1.653 25.422c-2.182 20.503-6.996 45.57-17.277 65.447l11.629 6.015c11.394-22.029 16.424-49.009 18.667-70.077a326 326 0 0 0 1.723-26.5c.077-3.314.085-5.973.072-7.815a157 157 0 0 0-.04-2.701l-.004-.154-.001-.043-.001-.014v-.004c0-.002 0-.003-6.543.206M132.772 283.76c-8.19 15.833-20.878 28.205-31.749 36.701a147 147 0 0 1-13.785 9.564 107 107 0 0 1-4.106 2.389c-.475.262-.836.455-1.07.578l-.255.133-.052.026-.007.004.001-.001.002-.001c.001 0 .003-.001 2.944 5.847 2.942 5.848 2.944 5.847 2.946 5.846l.004-.002.011-.006.033-.016.104-.054.36-.187c.307-.161.743-.394 1.296-.698a123 123 0 0 0 4.604-2.679 160 160 0 0 0 15.031-10.427c11.683-9.131 25.94-22.875 35.317-41.002z"/><g filter="url(#b)"><path fill="#00D1FF" d="M90.383 141.225a6.324 6.324 0 0 1 8.555.957c8.067 9.257 25.181 31.232 15.221 40.937-6.683 6.511-19.357 8.885-23.71 9.53a5.75 5.75 0 0 1-2.944-.33c-4.103-1.591-15.938-6.708-21.016-14.535-7.569-11.667 13.98-29.315 23.894-36.559"/></g><g filter="url(#c)"><path fill="#00D1FF" d="M97.909 142.164a6.324 6.324 0 0 1 5.154-6.895c12.066-2.275 39.68-5.919 43.012 7.583 2.235 9.058-2.13 21.192-3.776 25.273a5.77 5.77 0 0 1-1.774 2.372c-3.448 2.735-13.85 10.354-23.171 10.774-13.892.626-18.213-26.89-19.445-39.107"/></g><g filter="url(#d)"><path fill="#00D1FF" d="M95.787 130.359a6.324 6.324 0 0 0 6.111 6.063c12.27.478 40.12.024 41.431-13.821.88-9.288-5.22-20.648-7.448-24.443a5.76 5.76 0 0 0-2.103-2.087c-3.813-2.197-15.222-8.206-24.502-7.252-13.834 1.422-14.065 29.275-13.49 41.54"/></g><g filter="url(#e)"><path fill="#00D1FF" d="M90.88 144.09a6.324 6.324 0 0 0-.733-8.577c-9.043-8.306-30.566-25.987-40.527-16.283-6.682 6.511-9.386 19.118-10.144 23.454-.174.994-.088 2 .253 2.951 1.483 4.143 6.29 16.108 13.982 21.388 11.466 7.87 29.67-13.211 37.17-22.933"/></g><g filter="url(#f)"><path fill="#00D1FF" d="M88.525 134.581a6.323 6.323 0 0 0 8.035-3.09c5.463-10.996 16.461-36.587 4.369-43.456-8.112-4.608-20.975-3.7-25.35-3.222a5.76 5.76 0 0 0-2.764 1.064c-3.567 2.577-13.723 10.522-16.656 19.379-4.37 13.202 20.942 24.825 32.366 29.325"/></g><circle cx="94.694" cy="136.777" r="5.944" fill="#0092B3"/><g filter="url(#g)"><path fill="#00D1FF" d="M119.546 67.694a6.324 6.324 0 0 0 7.888 3.448c11.615-3.982 37.424-14.457 33.65-27.842-2.532-8.98-12.321-17.372-15.768-20.107a5.77 5.77 0 0 0-2.715-1.187c-4.349-.674-17.157-2.16-25.468 2.08-12.388 6.319-2.551 32.378 2.413 43.608"/></g><g filter="url(#h)"><path fill="#00D1FF" d="M126.534 70.644a6.323 6.323 0 0 0 1.016 8.548c9.312 8.004 31.405 24.966 41.041 14.939 6.464-6.727 8.752-19.417 9.366-23.775.141-1 .022-2.002-.35-2.941-1.619-4.093-6.818-15.892-14.679-20.916-11.719-7.489-29.219 14.181-36.394 24.145"/></g><g filter="url(#i)"><path fill="#00D1FF" d="M118.792 79.805a6.324 6.324 0 0 1 8.324-2.195c10.865 5.72 34.757 20.038 28.97 32.684-3.882 8.484-14.845 15.272-18.672 17.445a5.77 5.77 0 0 1-2.864.755c-4.401-.003-17.286-.504-24.846-5.97-11.27-8.149 2.457-32.385 9.088-42.72"/></g><g filter="url(#j)"><path fill="#00D1FF" d="M121.411 65.462a6.325 6.325 0 0 1-4.925 7.06c-11.984 2.673-39.464 7.223-43.238-6.162-2.532-8.979 1.43-21.25 2.941-25.383a5.76 5.76 0 0 1 1.695-2.43c3.356-2.846 13.502-10.804 22.803-11.53 13.865-1.084 19.09 26.275 20.724 38.445"/></g><g filter="url(#k)"><path fill="#00D1FF" d="M114.614 72.517a6.324 6.324 0 0 1 5.413 6.694c-.767 12.254-4.037 39.915-17.944 39.818-9.33-.065-20.014-7.283-23.564-9.885a5.76 5.76 0 0 1-1.862-2.303c-1.801-4.016-6.624-15.974-4.735-25.11 2.816-13.62 30.549-11.03 42.692-9.214"/></g><circle cx="5.944" cy="5.944" r="5.944" fill="#0092B3" transform="scale(1 -1)rotate(-30 -85.118 -248.683)"/><g filter="url(#l)"><path fill="#00D1FF" d="M193.655 50.155a6.325 6.325 0 0 1 2.332 8.287c-5.541 10.957-19.463 35.082-32.203 29.504-8.546-3.742-15.515-14.59-17.75-18.382a5.76 5.76 0 0 1-.802-2.851c-.07-4.4.219-17.292 5.56-24.941 7.962-11.402 32.421 1.923 42.863 8.383"/></g><g filter="url(#m)"><path fill="#00D1FF" d="M195.617 57.482a6.324 6.324 0 0 1 8.328 2.181c6.648 10.323 20.413 34.538 9.157 42.705-7.552 5.478-20.436 6-24.837 6.01a5.77 5.77 0 0 1-2.865-.751c-3.831-2.166-14.804-8.937-18.7-17.415-5.807-12.636 18.062-26.992 28.917-32.73"/></g><g filter="url(#n)"><path fill="#00D1FF" d="M205.753 51.072a6.325 6.325 0 0 0-3.318 7.944c4.174 11.547 15.072 37.18 28.393 33.186 8.937-2.68 17.168-12.605 19.845-16.097a5.76 5.76 0 0 0 1.142-2.734c.602-4.359 1.877-17.19-2.499-25.43-6.523-12.283-32.416-2.017-43.563 3.131"/></g><g filter="url(#o)"><path fill="#00D1FF" d="M191.187 51.695a6.325 6.325 0 0 0 7.671-3.907c4.293-11.503 12.577-38.097-.162-43.675-8.547-3.742-21.245-1.503-25.547-.575a5.76 5.76 0 0 0-2.639 1.345c-3.281 2.933-12.558 11.89-14.556 21.002-2.978 13.584 23.403 22.52 35.233 25.81"/></g><g filter="url(#p)"><path fill="#00D1FF" d="M199.111 45.933a6.324 6.324 0 0 0 5.886 6.281c12.244.925 40.092 1.486 41.907-12.301 1.218-9.25-4.464-20.825-6.552-24.699a5.77 5.77 0 0 0-2.026-2.161c-3.73-2.336-14.912-8.756-24.222-8.14-13.876.916-15.122 28.742-14.993 41.02"/></g><circle cx="199.397" cy="52.476" r="5.944" fill="#0092B3" transform="rotate(67.899 199.397 52.476)"/><g filter="url(#q)"><path fill="#00D1FF" d="M250.224 130.128a6.324 6.324 0 0 0-4.106-7.566c-11.611-3.992-38.412-11.58-43.656 1.3-3.518 8.641-.949 21.277.091 25.553a5.77 5.77 0 0 0 1.413 2.603c3.018 3.203 12.213 12.244 21.375 14.004 13.657 2.623 21.901-23.983 24.883-35.894"/></g><g filter="url(#r)"><path fill="#00D1FF" d="M246.521 123.508a6.32 6.32 0 0 0 4.449-7.369c-2.431-12.036-9.445-38.992-23.208-36.998-9.234 1.337-18.834 9.945-21.995 13.007a5.75 5.75 0 0 0-1.531 2.535c-1.236 4.224-4.382 16.729-1.265 25.522 4.647 13.108 31.768 6.758 43.55 3.303"/></g><g filter="url(#s)"><path fill="#00D1FF" d="M258.259 121.035a6.325 6.325 0 0 1-7.917-3.381c-5.059-11.188-15.117-37.162-2.783-43.586 8.275-4.31 21.095-2.933 25.45-2.296a5.76 5.76 0 0 1 2.724 1.163c3.471 2.706 13.33 11.016 15.938 19.974 3.887 13.352-21.832 24.045-33.412 28.126"/></g><g filter="url(#t)"><path fill="#00D1FF" d="M247.381 130.745a6.324 6.324 0 0 1 8.224-2.547c11.098 5.254 35.577 18.542 30.333 31.423-3.518 8.641-14.182 15.889-17.913 18.223a5.76 5.76 0 0 1-2.83.876c-4.397.184-17.291.232-25.077-4.908-11.606-7.662 1.078-32.461 7.263-43.067"/></g><g filter="url(#u)"><path fill="#00D1FF" d="M257.079 129.352a6.324 6.324 0 0 1-.159-8.607c8.133-9.199 27.705-29.017 38.619-20.398 7.322 5.782 11.319 18.041 12.522 22.274.276.971.295 1.981.055 2.962-1.046 4.275-4.586 16.673-11.689 22.723-10.587 9.017-30.88-10.063-39.348-18.954"/></g><circle cx="5.944" cy="5.944" r="5.944" fill="#0092B3" transform="scale(-1 1)rotate(-67.899 -35.368 257.31)"/><g filter="url(#v)"><path fill="#00D1FF" d="M218.771 197.811a6.325 6.325 0 0 0-.227 8.606c8.06 9.263 27.475 29.235 38.457 20.702 7.367-5.724 11.46-17.951 12.697-22.175a5.75 5.75 0 0 0 .078-2.961c-1.012-4.283-4.454-16.709-11.509-22.814-10.516-9.101-30.958 9.818-39.496 18.642"/></g><g filter="url(#w)"><path fill="#00D1FF" d="M218.666 205.395a6.325 6.325 0 0 0-7.538 4.158c-3.912 11.639-11.316 38.491 1.6 43.646 8.665 3.459 21.283.803 25.552-.267a5.76 5.76 0 0 0 2.594-1.431c3.182-3.04 12.159-12.296 13.856-21.47 2.529-13.675-24.133-21.736-36.064-24.636"/></g><g filter="url(#x)"><path fill="#00D1FF" d="M207.267 201.669a6.325 6.325 0 0 1 5.165 6.887c-1.213 12.219-5.489 39.742-19.383 39.138-9.321-.405-19.735-8.008-23.188-10.736a5.8 5.8 0 0 1-1.778-2.37c-1.653-4.079-6.036-16.205-3.816-25.267 3.31-13.507 30.93-9.908 43-7.652"/></g><g filter="url(#y)"><path fill="#00D1FF" d="M221.541 198.699a6.323 6.323 0 0 1-8.395-1.906c-6.984-10.099-21.539-33.847-10.558-42.38 7.367-5.724 20.227-6.67 24.625-6.825a5.8 5.8 0 0 1 2.889.656c3.9 2.039 15.09 8.445 19.263 16.79 6.22 12.438-17.163 27.572-27.824 33.665"/></g><g filter="url(#z)"><path fill="#00D1FF" d="M212.448 195.056a6.324 6.324 0 0 1-4.166 7.534c-11.642 3.9-38.501 11.277-43.644-1.644-3.449-8.669-.781-21.284.293-25.552a5.8 5.8 0 0 1 1.433-2.592c3.044-3.179 12.309-12.147 21.485-13.834 13.677-2.516 21.711 24.154 24.599 36.088"/></g><circle cx="5.944" cy="5.944" r="5.944" fill="#0092B3" transform="scale(-1 1)rotate(82.101 -216.178 -22.447)"/><g filter="url(#A)"><path fill="#00D1FF" d="M124.318 189.394a6.324 6.324 0 0 0-.227 8.606c8.059 9.263 27.475 29.235 38.457 20.702 7.367-5.724 11.46-17.951 12.697-22.175a5.75 5.75 0 0 0 .078-2.961c-1.012-4.283-4.454-16.709-11.509-22.814-10.516-9.101-30.958 9.818-39.496 18.642"/></g><g filter="url(#B)"><path fill="#00D1FF" d="M124.213 196.979a6.324 6.324 0 0 0-7.538 4.158c-3.912 11.639-11.316 38.49 1.6 43.646 8.665 3.458 21.283.803 25.552-.267a5.8 5.8 0 0 0 2.594-1.431c3.182-3.04 12.159-12.296 13.855-21.47 2.53-13.675-24.132-21.737-36.063-24.636"/></g><g filter="url(#C)"><path fill="#00D1FF" d="M112.811 193.252a6.325 6.325 0 0 1 5.166 6.887c-1.213 12.219-5.49 39.742-19.383 39.138-9.321-.405-19.735-8.008-23.188-10.736a5.76 5.76 0 0 1-1.778-2.37c-1.653-4.079-6.036-16.205-3.816-25.267 3.31-13.507 30.93-9.908 42.999-7.652"/></g><g filter="url(#D)"><path fill="#00D1FF" d="M127.088 190.282a6.323 6.323 0 0 1-8.395-1.906c-6.984-10.099-21.54-33.847-10.558-42.38 7.367-5.724 20.227-6.67 24.625-6.825a5.8 5.8 0 0 1 2.888.656c3.9 2.039 15.091 8.445 19.264 16.79 6.22 12.438-17.163 27.572-27.824 33.665"/></g><g filter="url(#E)"><path fill="#00D1FF" d="M117.995 186.639a6.325 6.325 0 0 1-4.166 7.534c-11.642 3.9-38.501 11.277-43.644-1.645-3.45-8.668-.782-21.283.293-25.551a5.76 5.76 0 0 1 1.433-2.592c3.043-3.18 12.309-12.147 21.484-13.835 13.678-2.515 21.712 24.155 24.6 36.089"/></g><circle cx="5.944" cy="5.944" r="5.944" fill="#0092B3" transform="scale(-1 1)rotate(82.101 -164.119 27.576)"/><g filter="url(#F)"><path fill="#00D1FF" d="M182.352 131.435a6.325 6.325 0 0 0-8.556.958c-8.067 9.256-25.181 31.232-15.22 40.937 6.682 6.51 19.356 8.885 23.709 9.529a5.76 5.76 0 0 0 2.944-.329c4.103-1.591 15.939-6.709 21.016-14.535 7.569-11.667-13.979-29.316-23.893-36.56"/></g><g filter="url(#G)"><path fill="#00D1FF" d="M174.826 132.374a6.325 6.325 0 0 0-5.155-6.895c-12.066-2.275-39.68-5.919-43.011 7.583-2.235 9.058 2.129 21.192 3.776 25.273a5.76 5.76 0 0 0 1.773 2.372c3.449 2.735 13.851 10.354 23.171 10.774 13.893.626 18.213-26.891 19.446-39.107"/></g><g filter="url(#H)"><path fill="#00D1FF" d="M176.948 120.569a6.325 6.325 0 0 1-6.112 6.063c-12.269.478-40.119.024-41.431-13.82-.879-9.289 5.22-20.649 7.449-24.444a5.77 5.77 0 0 1 2.102-2.086c3.813-2.198 15.222-8.207 24.503-7.252 13.834 1.421 14.065 29.274 13.489 41.539"/></g><g filter="url(#I)"><path fill="#00D1FF" d="M181.853 134.3a6.324 6.324 0 0 1 .735-8.577c9.043-8.306 30.565-25.987 40.526-16.282 6.683 6.51 9.387 19.118 10.144 23.453a5.76 5.76 0 0 1-.252 2.951c-1.484 4.144-6.291 16.108-13.983 21.388-11.465 7.871-29.67-13.211-37.17-22.933"/></g><g filter="url(#J)"><path fill="#00D1FF" d="M184.21 124.792a6.324 6.324 0 0 1-8.035-3.091c-5.463-10.996-16.461-36.586-4.369-43.456 8.112-4.608 20.974-3.699 25.349-3.221a5.77 5.77 0 0 1 2.765 1.063c3.567 2.578 13.722 10.523 16.655 19.38 4.371 13.202-20.941 24.825-32.365 29.325"/></g><circle cx="5.944" cy="5.944" r="5.944" fill="#0092B3" transform="matrix(-1 0 0 1 183.984 121.043)"/></g><defs><filter id="b" width="52.279" height="52.728" x="64.908" y="139.984" color-interpolation-filters="sRGB" filterUnits="userSpaceOnUse"><feFlood flood-opacity="0" result="BackgroundImageFix"/><feBlend in="SourceGraphic" in2="BackgroundImageFix" result="shape"/><feColorMatrix in="SourceAlpha" result="hardAlpha" values="0 0 0 0 0 0 0 0 0 0 0 0 0 0 0 0 0 0 127 0"/><feOffset/><feGaussianBlur stdDeviation="4.546"/><feComposite in2="hardAlpha" k2="-1" k3="1" operator="arithmetic"/><feColorMatrix values="0 0 0 0 0 0 0 0 0 0.329667 0 0 0 0 0.716667 0 0 0 1 0"/><feBlend in2="shape" result="effect1_innerShadow_840_29704"/></filter><filter id="c" width="48.824" height="48.235" x="97.875" y="133.047" color-interpolation-filters="sRGB" filterUnits="userSpaceOnUse"><feFlood flood-opacity="0" result="BackgroundImageFix"/><feBlend in="SourceGraphic" in2="BackgroundImageFix" result="shape"/><feColorMatrix in="SourceAlpha" result="hardAlpha" values="0 0 0 0 0 0 0 0 0 0 0 0 0 0 0 0 0 0 127 0"/><feOffset/><feGaussianBlur stdDeviation="4.546"/><feComposite in2="hardAlpha" k2="-1" k3="1" operator="arithmetic"/><feColorMatrix values="0 0 0 0 0 0 0 0 0 0.329667 0 0 0 0 0.716667 0 0 0 1 0"/><feBlend in2="shape" result="effect1_innerShadow_840_29704"/></filter><filter id="d" width="47.791" height="47.816" x="95.625" y="88.717" color-interpolation-filters="sRGB" filterUnits="userSpaceOnUse"><feFlood flood-opacity="0" result="BackgroundImageFix"/><feBlend in="SourceGraphic" in2="BackgroundImageFix" result="shape"/><feColorMatrix in="SourceAlpha" result="hardAlpha" values="0 0 0 0 0 0 0 0 0 0 0 0 0 0 0 0 0 0 127 0"/><feOffset/><feGaussianBlur stdDeviation="4.546"/><feComposite in2="hardAlpha" k2="-1" k3="1" operator="arithmetic"/><feColorMatrix values="0 0 0 0 0 0 0 0 0 0.329667 0 0 0 0 0.716667 0 0 0 1 0"/><feBlend in2="shape" result="effect1_innerShadow_840_29704"/></filter><filter id="e" width="52.832" height="52.349" x="39.389" y="116.398" color-interpolation-filters="sRGB" filterUnits="userSpaceOnUse"><feFlood flood-opacity="0" result="BackgroundImageFix"/><feBlend in="SourceGraphic" in2="BackgroundImageFix" result="shape"/><feColorMatrix in="SourceAlpha" result="hardAlpha" values="0 0 0 0 0 0 0 0 0 0 0 0 0 0 0 0 0 0 127 0"/><feOffset/><feGaussianBlur stdDeviation="4.546"/><feComposite in2="hardAlpha" k2="-1" k3="1" operator="arithmetic"/><feColorMatrix values="0 0 0 0 0 0 0 0 0 0.329667 0 0 0 0 0.716667 0 0 0 1 0"/><feBlend in2="shape" result="effect1_innerShadow_840_29704"/></filter><filter id="f" width="50.727" height="50.627" x="55.658" y="84.407" color-interpolation-filters="sRGB" filterUnits="userSpaceOnUse"><feFlood flood-opacity="0" result="BackgroundImageFix"/><feBlend in="SourceGraphic" in2="BackgroundImageFix" result="shape"/><feColorMatrix in="SourceAlpha" result="hardAlpha" values="0 0 0 0 0 0 0 0 0 0 0 0 0 0 0 0 0 0 127 0"/><feOffset/><feGaussianBlur stdDeviation="4.546"/><feComposite in2="hardAlpha" k2="-1" k3="1" operator="arithmetic"/><feColorMatrix values="0 0 0 0 0 0 0 0 0 0.329667 0 0 0 0 0.716667 0 0 0 1 0"/><feBlend in2="shape" result="effect1_innerShadow_840_29704"/></filter><filter id="g" width="50.326" height="50.298" x="111.131" y="21.197" color-interpolation-filters="sRGB" filterUnits="userSpaceOnUse"><feFlood flood-opacity="0" result="BackgroundImageFix"/><feBlend in="SourceGraphic" in2="BackgroundImageFix" result="shape"/><feColorMatrix in="SourceAlpha" result="hardAlpha" values="0 0 0 0 0 0 0 0 0 0 0 0 0 0 0 0 0 0 127 0"/><feOffset/><feGaussianBlur stdDeviation="4.546"/><feComposite in2="hardAlpha" k2="-1" k3="1" operator="arithmetic"/><feColorMatrix values="0 0 0 0 0 0 0 0 0 0.329667 0 0 0 0 0.716667 0 0 0 1 0"/><feBlend in2="shape" result="effect1_innerShadow_840_29704"/></filter><filter id="h" width="52.697" height="52.258" x="125.318" y="44.956" color-interpolation-filters="sRGB" filterUnits="userSpaceOnUse"><feFlood flood-opacity="0" result="BackgroundImageFix"/><feBlend in="SourceGraphic" in2="BackgroundImageFix" result="shape"/><feColorMatrix in="SourceAlpha" result="hardAlpha" values="0 0 0 0 0 0 0 0 0 0 0 0 0 0 0 0 0 0 127 0"/><feOffset/><feGaussianBlur stdDeviation="4.546"/><feComposite in2="hardAlpha" k2="-1" k3="1" operator="arithmetic"/><feColorMatrix values="0 0 0 0 0 0 0 0 0 0.329667 0 0 0 0 0.716667 0 0 0 1 0"/><feBlend in2="shape" result="effect1_innerShadow_840_29704"/></filter><filter id="i" width="51.566" height="51.63" x="105.41" y="76.864" color-interpolation-filters="sRGB" filterUnits="userSpaceOnUse"><feFlood flood-opacity="0" result="BackgroundImageFix"/><feBlend in="SourceGraphic" in2="BackgroundImageFix" result="shape"/><feColorMatrix in="SourceAlpha" result="hardAlpha" values="0 0 0 0 0 0 0 0 0 0 0 0 0 0 0 0 0 0 127 0"/><feOffset/><feGaussianBlur stdDeviation="4.546"/><feComposite in2="hardAlpha" k2="-1" k3="1" operator="arithmetic"/><feColorMatrix values="0 0 0 0 0 0 0 0 0 0.329667 0 0 0 0 0.716667 0 0 0 1 0"/><feBlend in2="shape" result="effect1_innerShadow_840_29704"/></filter><filter id="j" width="49.047" height="48.493" x="72.422" y="26.985" color-interpolation-filters="sRGB" filterUnits="userSpaceOnUse"><feFlood flood-opacity="0" result="BackgroundImageFix"/><feBlend in="SourceGraphic" in2="BackgroundImageFix" result="shape"/><feColorMatrix in="SourceAlpha" result="hardAlpha" values="0 0 0 0 0 0 0 0 0 0 0 0 0 0 0 0 0 0 127 0"/><feOffset/><feGaussianBlur stdDeviation="4.546"/><feComposite in2="hardAlpha" k2="-1" k3="1" operator="arithmetic"/><feColorMatrix values="0 0 0 0 0 0 0 0 0 0.329667 0 0 0 0 0.716667 0 0 0 1 0"/><feBlend in2="shape" result="effect1_innerShadow_840_29704"/></filter><filter id="k" width="48.551" height="47.986" x="71.49" y="71.043" color-interpolation-filters="sRGB" filterUnits="userSpaceOnUse"><feFlood flood-opacity="0" result="BackgroundImageFix"/><feBlend in="SourceGraphic" in2="BackgroundImageFix" result="shape"/><feColorMatrix in="SourceAlpha" result="hardAlpha" values="0 0 0 0 0 0 0 0 0 0 0 0 0 0 0 0 0 0 127 0"/><feOffset/><feGaussianBlur stdDeviation="4.546"/><feComposite in2="hardAlpha" k2="-1" k3="1" operator="arithmetic"/><feColorMatrix values="0 0 0 0 0 0 0 0 0 0.329667 0 0 0 0 0.716667 0 0 0 1 0"/><feBlend in2="shape" result="effect1_innerShadow_840_29704"/></filter><filter id="l" width="51.459" height="51.455" x="145.225" y="37.316" color-interpolation-filters="sRGB" filterUnits="userSpaceOnUse"><feFlood flood-opacity="0" result="BackgroundImageFix"/><feBlend in="SourceGraphic" in2="BackgroundImageFix" result="shape"/><feColorMatrix in="SourceAlpha" result="hardAlpha" values="0 0 0 0 0 0 0 0 0 0 0 0 0 0 0 0 0 0 127 0"/><feOffset/><feGaussianBlur stdDeviation="4.546"/><feComposite in2="hardAlpha" k2="-1" k3="1" operator="arithmetic"/><feColorMatrix values="0 0 0 0 0 0 0 0 0 0.329667 0 0 0 0 0.716667 0 0 0 1 0"/><feBlend in2="shape" result="effect1_innerShadow_840_29704"/></filter><filter id="m" width="51.578" height="51.647" x="165.803" y="56.731" color-interpolation-filters="sRGB" filterUnits="userSpaceOnUse"><feFlood flood-opacity="0" result="BackgroundImageFix"/><feBlend in="SourceGraphic" in2="BackgroundImageFix" result="shape"/><feColorMatrix in="SourceAlpha" result="hardAlpha" values="0 0 0 0 0 0 0 0 0 0 0 0 0 0 0 0 0 0 127 0"/><feOffset/><feGaussianBlur stdDeviation="4.546"/><feComposite in2="hardAlpha" k2="-1" k3="1" operator="arithmetic"/><feColorMatrix values="0 0 0 0 0 0 0 0 0 0.329667 0 0 0 0 0.716667 0 0 0 1 0"/><feBlend in2="shape" result="effect1_innerShadow_840_29704"/></filter><filter id="n" width="50.416" height="50.477" x="202.047" y="42.144" color-interpolation-filters="sRGB" filterUnits="userSpaceOnUse"><feFlood flood-opacity="0" result="BackgroundImageFix"/><feBlend in="SourceGraphic" in2="BackgroundImageFix" result="shape"/><feColorMatrix in="SourceAlpha" result="hardAlpha" values="0 0 0 0 0 0 0 0 0 0 0 0 0 0 0 0 0 0 127 0"/><feOffset/><feGaussianBlur stdDeviation="4.546"/><feComposite in2="hardAlpha" k2="-1" k3="1" operator="arithmetic"/><feColorMatrix values="0 0 0 0 0 0 0 0 0 0.329667 0 0 0 0 0.716667 0 0 0 1 0"/><feBlend in2="shape" result="effect1_innerShadow_840_29704"/></filter><filter id="o" width="49.772" height="49.912" x="155.721" y="2.023" color-interpolation-filters="sRGB" filterUnits="userSpaceOnUse"><feFlood flood-opacity="0" result="BackgroundImageFix"/><feBlend in="SourceGraphic" in2="BackgroundImageFix" result="shape"/><feColorMatrix in="SourceAlpha" result="hardAlpha" values="0 0 0 0 0 0 0 0 0 0 0 0 0 0 0 0 0 0 127 0"/><feOffset/><feGaussianBlur stdDeviation="4.546"/><feComposite in2="hardAlpha" k2="-1" k3="1" operator="arithmetic"/><feColorMatrix values="0 0 0 0 0 0 0 0 0 0.329667 0 0 0 0 0.716667 0 0 0 1 0"/><feBlend in2="shape" result="effect1_innerShadow_840_29704"/></filter><filter id="p" width="47.971" height="47.754" x="199.104" y="4.871" color-interpolation-filters="sRGB" filterUnits="userSpaceOnUse"><feFlood flood-opacity="0" result="BackgroundImageFix"/><feBlend in="SourceGraphic" in2="BackgroundImageFix" result="shape"/><feColorMatrix in="SourceAlpha" result="hardAlpha" values="0 0 0 0 0 0 0 0 0 0 0 0 0 0 0 0 0 0 127 0"/><feOffset/><feGaussianBlur stdDeviation="4.546"/><feComposite in2="hardAlpha" k2="-1" k3="1" operator="arithmetic"/><feColorMatrix values="0 0 0 0 0 0 0 0 0 0.329667 0 0 0 0 0.716667 0 0 0 1 0"/><feBlend in2="shape" result="effect1_innerShadow_840_29704"/></filter><filter id="q" width="49.75" height="49.521" x="200.67" y="116.681" color-interpolation-filters="sRGB" filterUnits="userSpaceOnUse"><feFlood flood-opacity="0" result="BackgroundImageFix"/><feBlend in="SourceGraphic" in2="BackgroundImageFix" result="shape"/><feColorMatrix in="SourceAlpha" result="hardAlpha" values="0 0 0 0 0 0 0 0 0 0 0 0 0 0 0 0 0 0 127 0"/><feOffset/><feGaussianBlur stdDeviation="4.546"/><feComposite in2="hardAlpha" k2="-1" k3="1" operator="arithmetic"/><feColorMatrix values="0 0 0 0 0 0 0 0 0 0.329667 0 0 0 0 0.716667 0 0 0 1 0"/><feBlend in2="shape" result="effect1_innerShadow_840_29704"/></filter><filter id="r" width="49.465" height="49.083" x="201.635" y="79.036" color-interpolation-filters="sRGB" filterUnits="userSpaceOnUse"><feFlood flood-opacity="0" result="BackgroundImageFix"/><feBlend in="SourceGraphic" in2="BackgroundImageFix" result="shape"/><feColorMatrix in="SourceAlpha" result="hardAlpha" values="0 0 0 0 0 0 0 0 0 0 0 0 0 0 0 0 0 0 127 0"/><feOffset/><feGaussianBlur stdDeviation="4.546"/><feComposite in2="hardAlpha" k2="-1" k3="1" operator="arithmetic"/><feColorMatrix values="0 0 0 0 0 0 0 0 0 0.329667 0 0 0 0 0.716667 0 0 0 1 0"/><feBlend in2="shape" result="effect1_innerShadow_840_29704"/></filter><filter id="s" width="50.404" height="50.358" x="241.662" y="71.048" color-interpolation-filters="sRGB" filterUnits="userSpaceOnUse"><feFlood flood-opacity="0" result="BackgroundImageFix"/><feBlend in="SourceGraphic" in2="BackgroundImageFix" result="shape"/><feColorMatrix in="SourceAlpha" result="hardAlpha" values="0 0 0 0 0 0 0 0 0 0 0 0 0 0 0 0 0 0 127 0"/><feOffset/><feGaussianBlur stdDeviation="4.546"/><feComposite in2="hardAlpha" k2="-1" k3="1" operator="arithmetic"/><feColorMatrix values="0 0 0 0 0 0 0 0 0 0.329667 0 0 0 0 0.716667 0 0 0 1 0"/><feBlend in2="shape" result="effect1_innerShadow_840_29704"/></filter><filter id="t" width="51.266" height="51.203" x="235.398" y="127.575" color-interpolation-filters="sRGB" filterUnits="userSpaceOnUse"><feFlood flood-opacity="0" result="BackgroundImageFix"/><feBlend in="SourceGraphic" in2="BackgroundImageFix" result="shape"/><feColorMatrix in="SourceAlpha" result="hardAlpha" values="0 0 0 0 0 0 0 0 0 0 0 0 0 0 0 0 0 0 127 0"/><feOffset/><feGaussianBlur stdDeviation="4.546"/><feComposite in2="hardAlpha" k2="-1" k3="1" operator="arithmetic"/><feColorMatrix values="0 0 0 0 0 0 0 0 0 0.329667 0 0 0 0 0.716667 0 0 0 1 0"/><feBlend in2="shape" result="effect1_innerShadow_840_29704"/></filter><filter id="u" width="52.975" height="52.444" x="255.309" y="98.224" color-interpolation-filters="sRGB" filterUnits="userSpaceOnUse"><feFlood flood-opacity="0" result="BackgroundImageFix"/><feBlend in="SourceGraphic" in2="BackgroundImageFix" result="shape"/><feColorMatrix in="SourceAlpha" result="hardAlpha" values="0 0 0 0 0 0 0 0 0 0 0 0 0 0 0 0 0 0 127 0"/><feOffset/><feGaussianBlur stdDeviation="4.546"/><feComposite in2="hardAlpha" k2="-1" k3="1" operator="arithmetic"/><feColorMatrix values="0 0 0 0 0 0 0 0 0 0.329667 0 0 0 0 0.716667 0 0 0 1 0"/><feBlend in2="shape" result="effect1_innerShadow_840_29704"/></filter><filter id="v" width="52.969" height="52.438" x="216.965" y="176.753" color-interpolation-filters="sRGB" filterUnits="userSpaceOnUse"><feFlood flood-opacity="0" result="BackgroundImageFix"/><feBlend in="SourceGraphic" in2="BackgroundImageFix" result="shape"/><feColorMatrix in="SourceAlpha" result="hardAlpha" values="0 0 0 0 0 0 0 0 0 0 0 0 0 0 0 0 0 0 127 0"/><feOffset/><feGaussianBlur stdDeviation="4.546"/><feComposite in2="hardAlpha" k2="-1" k3="1" operator="arithmetic"/><feColorMatrix values="0 0 0 0 0 0 0 0 0 0.329667 0 0 0 0 0.716667 0 0 0 1 0"/><feBlend in2="shape" result="effect1_innerShadow_840_29704"/></filter><filter id="w" width="49.455" height="49.707" x="205.443" y="205.21" color-interpolation-filters="sRGB" filterUnits="userSpaceOnUse"><feFlood flood-opacity="0" result="BackgroundImageFix"/><feBlend in="SourceGraphic" in2="BackgroundImageFix" result="shape"/><feColorMatrix in="SourceAlpha" result="hardAlpha" values="0 0 0 0 0 0 0 0 0 0 0 0 0 0 0 0 0 0 127 0"/><feOffset/><feGaussianBlur stdDeviation="4.546"/><feComposite in2="hardAlpha" k2="-1" k3="1" operator="arithmetic"/><feColorMatrix values="0 0 0 0 0 0 0 0 0 0.329667 0 0 0 0 0.716667 0 0 0 1 0"/><feBlend in2="shape" result="effect1_innerShadow_840_29704"/></filter><filter id="x" width="48.813" height="48.223" x="163.652" y="199.481" color-interpolation-filters="sRGB" filterUnits="userSpaceOnUse"><feFlood flood-opacity="0" result="BackgroundImageFix"/><feBlend in="SourceGraphic" in2="BackgroundImageFix" result="shape"/><feColorMatrix in="SourceAlpha" result="hardAlpha" values="0 0 0 0 0 0 0 0 0 0 0 0 0 0 0 0 0 0 127 0"/><feOffset/><feGaussianBlur stdDeviation="4.546"/><feComposite in2="hardAlpha" k2="-1" k3="1" operator="arithmetic"/><feColorMatrix values="0 0 0 0 0 0 0 0 0 0.329667 0 0 0 0 0.716667 0 0 0 1 0"/><feBlend in2="shape" result="effect1_innerShadow_840_29704"/></filter><filter id="y" width="51.781" height="51.966" x="198.619" y="147.585" color-interpolation-filters="sRGB" filterUnits="userSpaceOnUse"><feFlood flood-opacity="0" result="BackgroundImageFix"/><feBlend in="SourceGraphic" in2="BackgroundImageFix" result="shape"/><feColorMatrix in="SourceAlpha" result="hardAlpha" values="0 0 0 0 0 0 0 0 0 0 0 0 0 0 0 0 0 0 127 0"/><feOffset/><feGaussianBlur stdDeviation="4.546"/><feComposite in2="hardAlpha" k2="-1" k3="1" operator="arithmetic"/><feColorMatrix values="0 0 0 0 0 0 0 0 0 0.329667 0 0 0 0 0.716667 0 0 0 1 0"/><feBlend in2="shape" result="effect1_innerShadow_840_29704"/></filter><filter id="z" width="49.699" height="49.445" x="162.932" y="158.802" color-interpolation-filters="sRGB" filterUnits="userSpaceOnUse"><feFlood flood-opacity="0" result="BackgroundImageFix"/><feBlend in="SourceGraphic" in2="BackgroundImageFix" result="shape"/><feColorMatrix in="SourceAlpha" result="hardAlpha" values="0 0 0 0 0 0 0 0 0 0 0 0 0 0 0 0 0 0 127 0"/><feOffset/><feGaussianBlur stdDeviation="4.546"/><feComposite in2="hardAlpha" k2="-1" k3="1" operator="arithmetic"/><feColorMatrix values="0 0 0 0 0 0 0 0 0 0.329667 0 0 0 0 0.716667 0 0 0 1 0"/><feBlend in2="shape" result="effect1_innerShadow_840_29704"/></filter><filter id="A" width="52.969" height="52.438" x="122.512" y="168.336" color-interpolation-filters="sRGB" filterUnits="userSpaceOnUse"><feFlood flood-opacity="0" result="BackgroundImageFix"/><feBlend in="SourceGraphic" in2="BackgroundImageFix" result="shape"/><feColorMatrix in="SourceAlpha" result="hardAlpha" values="0 0 0 0 0 0 0 0 0 0 0 0 0 0 0 0 0 0 127 0"/><feOffset/><feGaussianBlur stdDeviation="4.546"/><feComposite in2="hardAlpha" k2="-1" k3="1" operator="arithmetic"/><feColorMatrix values="0 0 0 0 0 0 0 0 0 0.329667 0 0 0 0 0.716667 0 0 0 1 0"/><feBlend in2="shape" result="effect1_innerShadow_840_29704"/></filter><filter id="B" width="49.455" height="49.707" x="110.99" y="196.793" color-interpolation-filters="sRGB" filterUnits="userSpaceOnUse"><feFlood flood-opacity="0" result="BackgroundImageFix"/><feBlend in="SourceGraphic" in2="BackgroundImageFix" result="shape"/><feColorMatrix in="SourceAlpha" result="hardAlpha" values="0 0 0 0 0 0 0 0 0 0 0 0 0 0 0 0 0 0 127 0"/><feOffset/><feGaussianBlur stdDeviation="4.546"/><feComposite in2="hardAlpha" k2="-1" k3="1" operator="arithmetic"/><feColorMatrix values="0 0 0 0 0 0 0 0 0 0.329667 0 0 0 0 0.716667 0 0 0 1 0"/><feBlend in2="shape" result="effect1_innerShadow_840_29704"/></filter><filter id="C" width="48.813" height="48.223" x="69.197" y="191.064" color-interpolation-filters="sRGB" filterUnits="userSpaceOnUse"><feFlood flood-opacity="0" result="BackgroundImageFix"/><feBlend in="SourceGraphic" in2="BackgroundImageFix" result="shape"/><feColorMatrix in="SourceAlpha" result="hardAlpha" values="0 0 0 0 0 0 0 0 0 0 0 0 0 0 0 0 0 0 127 0"/><feOffset/><feGaussianBlur stdDeviation="4.546"/><feComposite in2="hardAlpha" k2="-1" k3="1" operator="arithmetic"/><feColorMatrix values="0 0 0 0 0 0 0 0 0 0.329667 0 0 0 0 0.716667 0 0 0 1 0"/><feBlend in2="shape" result="effect1_innerShadow_840_29704"/></filter><filter id="D" width="51.781" height="51.966" x="104.166" y="139.168" color-interpolation-filters="sRGB" filterUnits="userSpaceOnUse"><feFlood flood-opacity="0" result="BackgroundImageFix"/><feBlend in="SourceGraphic" in2="BackgroundImageFix" result="shape"/><feColorMatrix in="SourceAlpha" result="hardAlpha" values="0 0 0 0 0 0 0 0 0 0 0 0 0 0 0 0 0 0 127 0"/><feOffset/><feGaussianBlur stdDeviation="4.546"/><feComposite in2="hardAlpha" k2="-1" k3="1" operator="arithmetic"/><feColorMatrix values="0 0 0 0 0 0 0 0 0 0.329667 0 0 0 0 0.716667 0 0 0 1 0"/><feBlend in2="shape" result="effect1_innerShadow_840_29704"/></filter><filter id="E" width="49.699" height="49.445" x="68.478" y="150.384" color-interpolation-filters="sRGB" filterUnits="userSpaceOnUse"><feFlood flood-opacity="0" result="BackgroundImageFix"/><feBlend in="SourceGraphic" in2="BackgroundImageFix" result="shape"/><feColorMatrix in="SourceAlpha" result="hardAlpha" values="0 0 0 0 0 0 0 0 0 0 0 0 0 0 0 0 0 0 127 0"/><feOffset/><feGaussianBlur stdDeviation="4.546"/><feComposite in2="hardAlpha" k2="-1" k3="1" operator="arithmetic"/><feColorMatrix values="0 0 0 0 0 0 0 0 0 0.329667 0 0 0 0 0.716667 0 0 0 1 0"/><feBlend in2="shape" result="effect1_innerShadow_840_29704"/></filter><filter id="F" width="52.279" height="52.728" x="155.547" y="130.194" color-interpolation-filters="sRGB" filterUnits="userSpaceOnUse"><feFlood flood-opacity="0" result="BackgroundImageFix"/><feBlend in="SourceGraphic" in2="BackgroundImageFix" result="shape"/><feColorMatrix in="SourceAlpha" result="hardAlpha" values="0 0 0 0 0 0 0 0 0 0 0 0 0 0 0 0 0 0 127 0"/><feOffset/><feGaussianBlur stdDeviation="4.546"/><feComposite in2="hardAlpha" k2="-1" k3="1" operator="arithmetic"/><feColorMatrix values="0 0 0 0 0 0 0 0 0 0.329667 0 0 0 0 0.716667 0 0 0 1 0"/><feBlend in2="shape" result="effect1_innerShadow_840_29704"/></filter><filter id="G" width="48.824" height="48.235" x="126.035" y="123.257" color-interpolation-filters="sRGB" filterUnits="userSpaceOnUse"><feFlood flood-opacity="0" result="BackgroundImageFix"/><feBlend in="SourceGraphic" in2="BackgroundImageFix" result="shape"/><feColorMatrix in="SourceAlpha" result="hardAlpha" values="0 0 0 0 0 0 0 0 0 0 0 0 0 0 0 0 0 0 127 0"/><feOffset/><feGaussianBlur stdDeviation="4.546"/><feComposite in2="hardAlpha" k2="-1" k3="1" operator="arithmetic"/><feColorMatrix values="0 0 0 0 0 0 0 0 0 0.329667 0 0 0 0 0.716667 0 0 0 1 0"/><feBlend in2="shape" result="effect1_innerShadow_840_29704"/></filter><filter id="H" width="47.791" height="47.816" x="129.318" y="78.928" color-interpolation-filters="sRGB" filterUnits="userSpaceOnUse"><feFlood flood-opacity="0" result="BackgroundImageFix"/><feBlend in="SourceGraphic" in2="BackgroundImageFix" result="shape"/><feColorMatrix in="SourceAlpha" result="hardAlpha" values="0 0 0 0 0 0 0 0 0 0 0 0 0 0 0 0 0 0 127 0"/><feOffset/><feGaussianBlur stdDeviation="4.546"/><feComposite in2="hardAlpha" k2="-1" k3="1" operator="arithmetic"/><feColorMatrix values="0 0 0 0 0 0 0 0 0 0.329667 0 0 0 0 0.716667 0 0 0 1 0"/><feBlend in2="shape" result="effect1_innerShadow_840_29704"/></filter><filter id="I" width="52.832" height="52.349" x="180.514" y="106.608" color-interpolation-filters="sRGB" filterUnits="userSpaceOnUse"><feFlood flood-opacity="0" result="BackgroundImageFix"/><feBlend in="SourceGraphic" in2="BackgroundImageFix" result="shape"/><feColorMatrix in="SourceAlpha" result="hardAlpha" values="0 0 0 0 0 0 0 0 0 0 0 0 0 0 0 0 0 0 127 0"/><feOffset/><feGaussianBlur stdDeviation="4.546"/><feComposite in2="hardAlpha" k2="-1" k3="1" operator="arithmetic"/><feColorMatrix values="0 0 0 0 0 0 0 0 0 0.329667 0 0 0 0 0.716667 0 0 0 1 0"/><feBlend in2="shape" result="effect1_innerShadow_840_29704"/></filter><filter id="J" width="50.727" height="50.627" x="166.35" y="74.618" color-interpolation-filters="sRGB" filterUnits="userSpaceOnUse"><feFlood flood-opacity="0" result="BackgroundImageFix"/><feBlend in="SourceGraphic" in2="BackgroundImageFix" result="shape"/><feColorMatrix in="SourceAlpha" result="hardAlpha" values="0 0 0 0 0 0 0 0 0 0 0 0 0 0 0 0 0 0 127 0"/><feOffset/><feGaussianBlur stdDeviation="4.546"/><feComposite in2="hardAlpha" k2="-1" k3="1" operator="arithmetic"/><feColorMatrix values="0 0 0 0 0 0 0 0 0 0.329667 0 0 0 0 0.716667 0 0 0 1 0"/><feBlend in2="shape" result="effect1_innerShadow_840_29704"/></filter><clipPath id="a"><path fill="#fff" d="M0 0h347v347H0z"/></clipPath></defs></svg>