<svg xmlns="http://www.w3.org/2000/svg" width="27" height="26" fill="none"><g filter="url(#a)"><path fill="#742901" d="M21.947 24.045V8.937l-8.358-7.072L5.23 8.937v15.43z"/><path stroke="#2DDF00" stroke-linecap="round" stroke-linejoin="round" stroke-miterlimit="10" stroke-width=".857" d="m1.803 11.508 11.786-9.643 11.787 9.643"/><path stroke="#2DDF00" stroke-miterlimit="10" stroke-width=".857" d="M21.947 8.615v14.573a.857.857 0 0 1-.857.857H6.088a.857.857 0 0 1-.857-.857V8.615"/><path fill="#2DDF00" d="M8.232 12.151h.825a4.533 4.533 0 0 1 4.532 4.533v.825h-.825a4.533 4.533 0 0 1-4.532-4.533z"/><path fill="#2DDF00" d="M14.414 18.58h-.825v-.824a4.53 4.53 0 0 1 4.533-4.533h.825v.825a4.533 4.533 0 0 1-4.533 4.533"/><path stroke="#2DDF00" stroke-miterlimit="10" stroke-width=".857" d="M13.59 23.938v-7.5"/></g><defs><filter id="a" width="28.288" height="28.288" x="-.555" y="-1.028" color-interpolation-filters="sRGB" filterUnits="userSpaceOnUse"><feFlood flood-opacity="0" result="BackgroundImageFix"/><feBlend in="SourceGraphic" in2="BackgroundImageFix" result="shape"/><feColorMatrix in="SourceAlpha" result="hardAlpha" values="0 0 0 0 0 0 0 0 0 0 0 0 0 0 0 0 0 0 127 0"/><feOffset dx="-1.286" dy="-1.286"/><feGaussianBlur stdDeviation=".643"/><feComposite in2="hardAlpha" k2="-1" k3="1" operator="arithmetic"/><feColorMatrix values="0 0 0 0 0 0 0 0 0 0 0 0 0 0 0 0 0 0 0.25 0"/><feBlend in2="shape" result="effect1_innerShadow_791_51826"/><feColorMatrix in="SourceAlpha" result="hardAlpha" values="0 0 0 0 0 0 0 0 0 0 0 0 0 0 0 0 0 0 127 0"/><feOffset dx="1.286" dy="1.286"/><feGaussianBlur stdDeviation=".643"/><feComposite in2="hardAlpha" k2="-1" k3="1" operator="arithmetic"/><feColorMatrix values="0 0 0 0 1 0 0 0 0 1 0 0 0 0 1 0 0 0 0.5 0"/><feBlend in2="effect1_innerShadow_791_51826" result="effect2_innerShadow_791_51826"/></filter></defs></svg>