<svg xmlns="http://www.w3.org/2000/svg" width="26" height="28" fill="none"><g filter="url(#a)"><g filter="url(#b)"><path fill="#B26B00" d="M6.872 17.905a.688.688 0 0 1 .682-.78h10.77c.417 0 .738.367.682.78l-.849 6.338a.69.69 0 0 1-.682.597H8.403a.69.69 0 0 1-.682-.597z"/></g><path stroke="#fff" stroke-miterlimit="10" stroke-width=".257" d="M6.872 17.905a.688.688 0 0 1 .682-.78h10.77c.417 0 .738.367.682.78l-.849 6.338a.69.69 0 0 1-.682.597H8.403a.69.69 0 0 1-.682-.597z"/><g filter="url(#c)"><path fill="#2DDF00" d="M21.638 6.42a.246.246 0 0 1 .252.253 9.39 9.39 0 0 1-3.365 6.951.25.25 0 0 1-.163.058h-3.28a.267.267 0 0 1-.234-.389 9.3 9.3 0 0 0 1.002-4.218v-.328c0-.077.035-.15.095-.199 1.62-1.297 3.622-2.079 5.693-2.128"/></g><path stroke="#fff" stroke-miterlimit="10" stroke-width=".257" d="M21.638 6.42a.246.246 0 0 1 .252.253 9.39 9.39 0 0 1-3.365 6.951.25.25 0 0 1-.163.058h-3.28a.267.267 0 0 1-.234-.389 9.3 9.3 0 0 0 1.002-4.218v-.328c0-.077.035-.15.095-.199 1.62-1.297 3.622-2.079 5.693-2.128Z"/><g filter="url(#d)"><path fill="#2DDF00" d="M15.851 9.075a9.3 9.3 0 0 1-1.138 4.477.25.25 0 0 1-.222.13h-2.786a.25.25 0 0 1-.223-.131 9.44 9.44 0 0 1-1.128-4.926 9.4 9.4 0 0 1 2.564-6.009.247.247 0 0 1 .359 0 9.4 9.4 0 0 1 2.563 5.998c.011.172.011.311.011.461"/></g><path stroke="#fff" stroke-miterlimit="10" stroke-width=".257" d="M15.851 9.075a9.3 9.3 0 0 1-1.138 4.477.25.25 0 0 1-.222.13h-2.786a.25.25 0 0 1-.223-.131 9.44 9.44 0 0 1-1.128-4.926 9.4 9.4 0 0 1 2.564-6.009.247.247 0 0 1 .359 0 9.4 9.4 0 0 1 2.563 5.998c.011.172.011.311.011.461Z"/><g filter="url(#e)"><path fill="#2DDF00" d="M11.348 13.294a.267.267 0 0 1-.234.388H7.832a.25.25 0 0 1-.162-.058 9.39 9.39 0 0 1-3.365-6.939.247.247 0 0 1 .253-.254 9.45 9.45 0 0 1 5.698 2.102c.063.05.096.128.094.21a9.44 9.44 0 0 0 .999 4.551"/></g><path stroke="#fff" stroke-miterlimit="10" stroke-width=".257" d="M11.348 13.294a.267.267 0 0 1-.234.388H7.832a.25.25 0 0 1-.162-.058 9.39 9.39 0 0 1-3.365-6.939.247.247 0 0 1 .253-.254 9.45 9.45 0 0 1 5.698 2.102c.063.05.096.128.094.21a9.44 9.44 0 0 0 .999 4.551Z"/><path stroke="#008B0E" stroke-linecap="round" stroke-width=".257" d="M12.939 13.504v-3.066M15.51 13.635l2.169-2.168M8.31 11.467l2.168 2.168"/><g filter="url(#f)"><path fill="#B26B00" d="M19.566 13.683H6.627a.69.69 0 0 0-.688.688v2.717c0 .38.308.688.688.688h12.94c.38 0 .688-.308.688-.688V14.37a.69.69 0 0 0-.689-.688"/></g><path stroke="#fff" stroke-miterlimit="10" stroke-width=".257" d="M19.566 13.683H6.627a.69.69 0 0 0-.688.688v2.717c0 .38.308.688.688.688h12.94c.38 0 .688-.308.688-.688V14.37a.69.69 0 0 0-.689-.688Z"/></g><defs><filter id="a" width="29.831" height="29.831" x="-1.819" y="-1.233" color-interpolation-filters="sRGB" filterUnits="userSpaceOnUse"><feFlood flood-opacity="0" result="BackgroundImageFix"/><feColorMatrix in="SourceAlpha" result="hardAlpha" values="0 0 0 0 0 0 0 0 0 0 0 0 0 0 0 0 0 0 127 0"/><feOffset/><feGaussianBlur stdDeviation="1.029"/><feColorMatrix values="0 0 0 0 0 0 0 0 0 0 0 0 0 0 0 0 0 0 0.5 0"/><feBlend in2="BackgroundImageFix" result="effect1_dropShadow_791_51834"/><feBlend in="SourceGraphic" in2="effect1_dropShadow_791_51834" result="shape"/><feColorMatrix in="SourceAlpha" result="hardAlpha" values="0 0 0 0 0 0 0 0 0 0 0 0 0 0 0 0 0 0 127 0"/><feOffset dx="-1.543" dy="-1.543"/><feGaussianBlur stdDeviation=".771"/><feComposite in2="hardAlpha" k2="-1" k3="1" operator="arithmetic"/><feColorMatrix values="0 0 0 0 0 0 0 0 0 0 0 0 0 0 0 0 0 0 0.25 0"/><feBlend in2="shape" result="effect2_innerShadow_791_51834"/><feColorMatrix in="SourceAlpha" result="hardAlpha" values="0 0 0 0 0 0 0 0 0 0 0 0 0 0 0 0 0 0 127 0"/><feOffset dx="1.543" dy="1.543"/><feGaussianBlur stdDeviation=".771"/><feComposite in2="hardAlpha" k2="-1" k3="1" operator="arithmetic"/><feColorMatrix values="0 0 0 0 1 0 0 0 0 1 0 0 0 0 1 0 0 0 0.5 0"/><feBlend in2="effect2_innerShadow_791_51834" result="effect3_innerShadow_791_51834"/></filter><filter id="b" width="12.404" height="7.972" x="6.737" y="16.997" color-interpolation-filters="sRGB" filterUnits="userSpaceOnUse"><feFlood flood-opacity="0" result="BackgroundImageFix"/><feBlend in="SourceGraphic" in2="BackgroundImageFix" result="shape"/><feColorMatrix in="SourceAlpha" result="hardAlpha" values="0 0 0 0 0 0 0 0 0 0 0 0 0 0 0 0 0 0 127 0"/><feOffset dx="-.514" dy="-.514"/><feComposite in2="hardAlpha" k2="-1" k3="1" operator="arithmetic"/><feColorMatrix values="0 0 0 0 0 0 0 0 0 0 0 0 0 0 0 0 0 0 0.25 0"/><feBlend in2="shape" result="effect1_innerShadow_791_51834"/><feColorMatrix in="SourceAlpha" result="hardAlpha" values="0 0 0 0 0 0 0 0 0 0 0 0 0 0 0 0 0 0 127 0"/><feOffset dy="1.029"/><feComposite in2="hardAlpha" k2="-1" k3="1" operator="arithmetic"/><feColorMatrix values="0 0 0 0 0 0 0 0 0 0 0 0 0 0 0 0 0 0 0.25 0"/><feBlend in2="effect1_innerShadow_791_51834" result="effect2_innerShadow_791_51834"/></filter><filter id="c" width="7.328" height="7.52" x="14.691" y="6.292" color-interpolation-filters="sRGB" filterUnits="userSpaceOnUse"><feFlood flood-opacity="0" result="BackgroundImageFix"/><feBlend in="SourceGraphic" in2="BackgroundImageFix" result="shape"/><feColorMatrix in="SourceAlpha" result="hardAlpha" values="0 0 0 0 0 0 0 0 0 0 0 0 0 0 0 0 0 0 127 0"/><feOffset dx="-1.029" dy="-1.029"/><feComposite in2="hardAlpha" k2="-1" k3="1" operator="arithmetic"/><feColorMatrix values="0 0 0 0 0 0 0 0 0 0 0 0 0 0 0 0 0 0 0.25 0"/><feBlend in2="shape" result="effect1_innerShadow_791_51834"/></filter><filter id="d" width="5.764" height="11.401" x="10.216" y="2.41" color-interpolation-filters="sRGB" filterUnits="userSpaceOnUse"><feFlood flood-opacity="0" result="BackgroundImageFix"/><feBlend in="SourceGraphic" in2="BackgroundImageFix" result="shape"/><feColorMatrix in="SourceAlpha" result="hardAlpha" values="0 0 0 0 0 0 0 0 0 0 0 0 0 0 0 0 0 0 127 0"/><feOffset dx="-1.029" dy="-1.029"/><feComposite in2="hardAlpha" k2="-1" k3="1" operator="arithmetic"/><feColorMatrix values="0 0 0 0 0 0 0 0 0 0 0 0 0 0 0 0 0 0 0.25 0"/><feBlend in2="shape" result="effect1_innerShadow_791_51834"/></filter><filter id="e" width="7.33" height="7.508" x="4.175" y="6.303" color-interpolation-filters="sRGB" filterUnits="userSpaceOnUse"><feFlood flood-opacity="0" result="BackgroundImageFix"/><feBlend in="SourceGraphic" in2="BackgroundImageFix" result="shape"/><feColorMatrix in="SourceAlpha" result="hardAlpha" values="0 0 0 0 0 0 0 0 0 0 0 0 0 0 0 0 0 0 127 0"/><feOffset dx="-1.029" dy="-1.029"/><feComposite in2="hardAlpha" k2="-1" k3="1" operator="arithmetic"/><feColorMatrix values="0 0 0 0 0 0 0 0 0 0 0 0 0 0 0 0 0 0 0.25 0"/><feBlend in2="shape" result="effect1_innerShadow_791_51834"/></filter><filter id="f" width="14.573" height="4.35" x="5.811" y="13.554" color-interpolation-filters="sRGB" filterUnits="userSpaceOnUse"><feFlood flood-opacity="0" result="BackgroundImageFix"/><feBlend in="SourceGraphic" in2="BackgroundImageFix" result="shape"/><feColorMatrix in="SourceAlpha" result="hardAlpha" values="0 0 0 0 0 0 0 0 0 0 0 0 0 0 0 0 0 0 127 0"/><feOffset dx="-.514" dy="-.514"/><feComposite in2="hardAlpha" k2="-1" k3="1" operator="arithmetic"/><feColorMatrix values="0 0 0 0 0 0 0 0 0 0 0 0 0 0 0 0 0 0 0.25 0"/><feBlend in2="shape" result="effect1_innerShadow_791_51834"/></filter></defs></svg>