<svg xmlns="http://www.w3.org/2000/svg" width="27" height="26" fill="none"><g clip-path="url(#a)"><path stroke="#742901" stroke-miterlimit="10" stroke-width="2" d="M21.803 12.098H5.396a2.024 2.024 0 0 0-2.024 2.024v8.22c0 1.118.906 2.025 2.024 2.025h16.407a2.024 2.024 0 0 0 2.024-2.025v-8.22a2.024 2.024 0 0 0-2.024-2.024ZM13.605 1.865a7.16 7.16 0 0 1 7.158 7.158v3.021H6.447V9.023a7.16 7.16 0 0 1 7.158-7.158Z"/><path stroke="#742901" stroke-miterlimit="10" stroke-width="2" d="M13.605 18.227a1.018 1.018 0 1 0 0-2.036 1.018 1.018 0 0 0 0 2.036Z"/><path fill="#742901" d="M12.605 21.302a1 1 0 1 0 2 0zm2 0v-3.075h-2v3.075z"/></g><defs><clipPath id="a"><path fill="#fff" d="M.747.257h25.716v25.716H.747z"/></clipPath></defs></svg>