<svg xmlns="http://www.w3.org/2000/svg" width="347" height="347" fill="none"><g clip-path="url(#a)"><path fill="#00BF35" d="m146.616 265.274-5.717-3.421zm-74.863 67.897a6.663 6.663 0 0 0 4.11 12.675zm99.132-205.421c-6.559 1.169-6.559 1.167-6.56 1.166v-.002l.001.003.004.024.022.128.092.569c.081.516.198 1.3.337 2.331.277 2.064.638 5.115.959 8.986.642 7.747 1.12 18.745.454 31.658-1.335 25.9-7.253 59.093-25.295 89.24l11.433 6.842c19.551-32.667 25.768-68.236 27.169-95.395.702-13.616.199-25.221-.483-33.446a194 194 0 0 0-1.031-9.659 121 121 0 0 0-.528-3.528l-.01-.057-.004-.019-.001-.006c0-.003-.001-.005-6.559 1.165m-29.986 134.103c-18.409 30.76-36.089 48.696-48.924 58.873-6.422 5.093-11.653 8.26-15.186 10.125a51 51 0 0 1-3.972 1.901 23 23 0 0 1-1.09.428l-.013.004.014-.004.01-.004.008-.002c.003-.001.007-.003 2.063 6.335 2.055 6.337 2.059 6.335 2.063 6.334l.01-.003.02-.007.052-.017.141-.048q.168-.058.433-.156c.355-.131.84-.319 1.445-.574a64 64 0 0 0 5.034-2.403c4.245-2.24 10.167-5.855 17.247-11.468 14.171-11.237 32.894-30.418 52.078-62.472z"/><path fill="#00BF35" d="M175.684 138.138c3.563-20.121 25.609-31.839 45.974-19.958 8.567 4.998 16.758 15.127 23.492 26.873 4.937 8.611 8.339 22.323 9.651 28.219.245 1.1-.941 1.947-1.926 1.401-4.403-2.442-13.696-7.258-20.905-8.691-14.381-2.859-20.459 9.811-37.386 4.379-16.926-5.433-21.456-17.783-18.9-32.223"/><path fill="#00BF35" d="M173.245 138.138c-3.562-20.121-25.609-31.839-45.973-19.958-8.568 4.998-16.758 15.127-23.492 26.873-4.937 8.611-8.339 22.323-9.65 28.219-.246 1.1.94 1.947 1.925 1.401 4.403-2.442 13.696-7.258 20.905-8.691 14.38-2.859 20.459 9.811 37.386 4.379 16.926-5.433 21.456-17.783 18.899-32.223"/><path fill="#FF6100" stroke="#fff" stroke-width="1.173" d="M206.979 56.818c-23.828 30.23-9.883 68.469 21.793 78.777 11.427 3.719 22.344 4.422 31.959.971 9.602-3.446 17.992-11.065 24.318-24.164 6.292-13.028 4.686-22.68 2.462-31.994q-.294-1.222-.594-2.442c-2.086-8.492-4.175-16.997-.478-27.595 3.959-11.348 13.735-25.205 18.812-31.972.934-1.245-.02-2.972-1.505-2.85-10.17.828-32.823 3.257-47.712 9.224-20.706 8.298-39.019 19.313-49.055 32.045Z"/><path fill="#FF6100" stroke="#fff" stroke-width="1.173" d="M162.642 67.938c-17.894 34.081 2.812 69.122 35.84 73.46 11.914 1.565 22.775.258 31.596-4.893 8.81-5.145 15.664-14.171 19.487-28.206 3.802-13.96.456-23.155-3.435-31.905a322 322 0 0 0-1.031-2.29c-3.604-7.969-7.213-15.947-5.518-27.043 1.815-11.881 8.891-27.293 12.644-34.874.69-1.395-.563-2.919-2.002-2.528-9.847 2.675-31.672 9.209-45.218 17.8-18.838 11.946-34.826 26.126-42.363 40.48Z"/><path fill="#FF6100" stroke="#fff" stroke-width="1.173" d="M140.019 56.818c23.828 30.23 9.883 68.469-21.793 78.777-11.427 3.719-22.344 4.422-31.959.971-9.602-3.446-17.992-11.065-24.318-24.164-6.292-13.028-4.686-22.68-2.462-31.994q.294-1.222.594-2.442c2.086-8.492 4.175-16.997.478-27.595C56.6 39.023 46.824 25.166 41.747 18.399c-.934-1.245.02-2.972 1.505-2.85 10.17.828 32.823 3.257 47.712 9.224 20.706 8.298 39.019 19.313 49.055 32.045Z"/><path fill="#FF6100" stroke="#fff" stroke-width="1.173" d="M184.356 67.938c17.894 34.081-2.812 69.122-35.84 73.46-11.914 1.565-22.775.258-31.596-4.893-8.81-5.145-15.664-14.171-19.487-28.206-3.802-13.96-.456-23.155 3.435-31.905q.511-1.147 1.031-2.29c3.604-7.969 7.213-15.947 5.518-27.043-1.815-11.881-8.89-27.293-12.644-34.874-.69-1.395.564-2.919 2.002-2.528 9.847 2.675 31.672 9.209 45.218 17.8 18.838 11.946 34.826 26.126 42.363 40.48Z"/><path fill="#FF6100" stroke="#fff" stroke-miterlimit="10" stroke-width="1.763" d="M205.983 37.07c-7.443-12.456-17.279-23.39-28.963-32.216a4.265 4.265 0 0 0-5.144 0c-11.684 8.825-21.52 19.76-28.962 32.215l-.001.002c-14.285 24.008-19.019 52.28-13.3 79.458 2.91 13.832 14.127 20.803 24.461 24.31 10.3 3.494 19.952 3.634 20.354 3.638h.041c.401-.004 10.053-.144 20.353-3.638 10.335-3.507 21.552-10.478 24.462-24.31 5.718-27.178.984-55.45-13.301-79.458Zm-30.673 106.5h-.004l.002.017zm-1.72 0h-.004l.002.017zm.125.514a1 1 0 0 1-.05-.121c.041.079.089.157.131.215a1 1 0 0 1-.081-.094Zm.251.249-.034-.026q.04.028.075.05zm.141.075-.008-.003.019.007zm.993-.23a2 2 0 0 0 .131-.215 1 1 0 0 1-.05.121q-.034.044-.081.094Zm-.211.179Zm-.111.055.019-.007-.008.003z"/></g><defs><clipPath id="a"><path fill="#fff" d="M0 0h347v347H0z"/></clipPath></defs></svg>