<svg xmlns="http://www.w3.org/2000/svg" width="26" height="26" fill="none"><g filter="url(#a)"><path fill="#742901" stroke="#2DDF00" stroke-miterlimit="10" stroke-width=".857" d="M17.984 1.864H7.76c-1.13 0-2.046.917-2.046 2.047V22.32c0 1.13.916 2.046 2.046 2.046h10.223c1.13 0 2.046-.916 2.046-2.046V3.91c0-1.13-.916-2.046-2.046-2.046Z"/><path fill="#2DDF00" d="M7.516 7.115h.825a4.533 4.533 0 0 1 4.532 4.532v.825h-.825A4.533 4.533 0 0 1 7.516 7.94zm6.182 6.429h-.825v-.825a4.533 4.533 0 0 1 4.533-4.533h.825v.825a4.533 4.533 0 0 1-4.533 4.533"/><path stroke="#2DDF00" stroke-linecap="round" stroke-miterlimit="10" stroke-width=".857" d="M12.873 19.545v-7.501"/><path fill="#2DDF00" d="M9.808 1.864h6.14v1.072a1.07 1.07 0 0 1-1.071 1.071h-4.05a1.07 1.07 0 0 1-1.072-1.071V1.864z"/><path stroke="#2DDF00" stroke-linecap="round" stroke-miterlimit="10" stroke-width=".857" d="M11.855 21.302h2.036"/></g><defs><filter id="a" width="28.288" height="28.288" x="-1.271" y="-1.028" color-interpolation-filters="sRGB" filterUnits="userSpaceOnUse"><feFlood flood-opacity="0" result="BackgroundImageFix"/><feBlend in="SourceGraphic" in2="BackgroundImageFix" result="shape"/><feColorMatrix in="SourceAlpha" result="hardAlpha" values="0 0 0 0 0 0 0 0 0 0 0 0 0 0 0 0 0 0 127 0"/><feOffset dx="-1.286" dy="-1.286"/><feGaussianBlur stdDeviation=".643"/><feComposite in2="hardAlpha" k2="-1" k3="1" operator="arithmetic"/><feColorMatrix values="0 0 0 0 0 0 0 0 0 0 0 0 0 0 0 0 0 0 0.25 0"/><feBlend in2="shape" result="effect1_innerShadow_791_51808"/><feColorMatrix in="SourceAlpha" result="hardAlpha" values="0 0 0 0 0 0 0 0 0 0 0 0 0 0 0 0 0 0 127 0"/><feOffset dx="1.286" dy="1.286"/><feGaussianBlur stdDeviation=".643"/><feComposite in2="hardAlpha" k2="-1" k3="1" operator="arithmetic"/><feColorMatrix values="0 0 0 0 1 0 0 0 0 1 0 0 0 0 1 0 0 0 0.5 0"/><feBlend in2="effect1_innerShadow_791_51808" result="effect2_innerShadow_791_51808"/></filter></defs></svg>