<svg xmlns="http://www.w3.org/2000/svg" width="132" height="119" fill="none"><g clip-path="url(#a)" filter="url(#b)"><path fill="#008B0E" stroke="#fff" stroke-miterlimit="10" stroke-width=".4" d="M77.483 22.682c.196 1.146.198 2.314.007 3.459-.45 2.654-1.91 5.042-4.103 6.712-1.931 1.47-4.313 2.296-6.788 2.366-.512.015-.95-.332-1.03-.815a10.47 10.47 0 0 1 1.178-6.805c1.313-2.366 3.501-4.178 6.15-5.092a11.9 11.9 0 0 1 3.563-.635c.508-.012.942.331 1.023.81Z"/><path stroke="#008B0E" stroke-linecap="round" stroke-width="3.901" d="M64.375 23.409v39.015"/><g filter="url(#c)"><path fill="#B26B00" d="M9.875 40.248a6.346 6.346 0 0 1 6.308-7.05h99.63a6.346 6.346 0 0 1 6.308 7.05l-8.117 72.673a6.347 6.347 0 0 1-6.307 5.642H24.3a6.347 6.347 0 0 1-6.308-5.642z"/></g><g filter="url(#d)"><path fill="#B26B00" d="M125.654 0H6.346A6.346 6.346 0 0 0 0 6.346v25.05a6.346 6.346 0 0 0 6.346 6.346h119.308A6.346 6.346 0 0 0 132 31.397V6.346A6.346 6.346 0 0 0 125.654 0"/></g></g><defs><filter id="b" width="155.409" height="142.409" x="-11.704" y="-11.704" color-interpolation-filters="sRGB" filterUnits="userSpaceOnUse"><feFlood flood-opacity="0" result="BackgroundImageFix"/><feBlend in="SourceGraphic" in2="BackgroundImageFix" result="shape"/><feColorMatrix in="SourceAlpha" result="hardAlpha" values="0 0 0 0 0 0 0 0 0 0 0 0 0 0 0 0 0 0 127 0"/><feOffset dx="-11.704" dy="-11.704"/><feGaussianBlur stdDeviation="5.852"/><feComposite in2="hardAlpha" k2="-1" k3="1" operator="arithmetic"/><feColorMatrix values="0 0 0 0 0 0 0 0 0 0 0 0 0 0 0 0 0 0 0.25 0"/><feBlend in2="shape" result="effect1_innerShadow_847_29821"/><feColorMatrix in="SourceAlpha" result="hardAlpha" values="0 0 0 0 0 0 0 0 0 0 0 0 0 0 0 0 0 0 127 0"/><feOffset dx="11.704" dy="11.704"/><feGaussianBlur stdDeviation="5.852"/><feComposite in2="hardAlpha" k2="-1" k3="1" operator="arithmetic"/><feColorMatrix values="0 0 0 0 1 0 0 0 0 1 0 0 0 0 1 0 0 0 0.5 0"/><feBlend in2="effect1_innerShadow_847_29821" result="effect2_innerShadow_847_29821"/></filter><filter id="c" width="112.324" height="85.365" x="9.836" y="33.197" color-interpolation-filters="sRGB" filterUnits="userSpaceOnUse"><feFlood flood-opacity="0" result="BackgroundImageFix"/><feBlend in="SourceGraphic" in2="BackgroundImageFix" result="shape"/><feColorMatrix in="SourceAlpha" result="hardAlpha" values="0 0 0 0 0 0 0 0 0 0 0 0 0 0 0 0 0 0 127 0"/><feOffset dx="-4.743" dy="-4.743"/><feComposite in2="hardAlpha" k2="-1" k3="1" operator="arithmetic"/><feColorMatrix values="0 0 0 0 0 0 0 0 0 0 0 0 0 0 0 0 0 0 0.25 0"/><feBlend in2="shape" result="effect1_innerShadow_847_29821"/><feColorMatrix in="SourceAlpha" result="hardAlpha" values="0 0 0 0 0 0 0 0 0 0 0 0 0 0 0 0 0 0 127 0"/><feOffset dy="9.485"/><feComposite in2="hardAlpha" k2="-1" k3="1" operator="arithmetic"/><feColorMatrix values="0 0 0 0 0 0 0 0 0 0 0 0 0 0 0 0 0 0 0.25 0"/><feBlend in2="effect1_innerShadow_847_29821" result="effect2_innerShadow_847_29821"/></filter><filter id="d" width="132" height="37.743" x="0" y="0" color-interpolation-filters="sRGB" filterUnits="userSpaceOnUse"><feFlood flood-opacity="0" result="BackgroundImageFix"/><feBlend in="SourceGraphic" in2="BackgroundImageFix" result="shape"/><feColorMatrix in="SourceAlpha" result="hardAlpha" values="0 0 0 0 0 0 0 0 0 0 0 0 0 0 0 0 0 0 127 0"/><feOffset dx="-4.743" dy="-4.743"/><feComposite in2="hardAlpha" k2="-1" k3="1" operator="arithmetic"/><feColorMatrix values="0 0 0 0 0 0 0 0 0 0 0 0 0 0 0 0 0 0 0.25 0"/><feBlend in2="shape" result="effect1_innerShadow_847_29821"/></filter><clipPath id="a"><path fill="#fff" d="M0 0h132v119H0z"/></clipPath></defs></svg>