<svg xmlns="http://www.w3.org/2000/svg" width="27" height="27" fill="none"><g filter="url(#a)"><path fill="#C2C2C2" stroke="#742901" stroke-miterlimit="10" stroke-width=".643" d="m10.745 2.47 2.448 6.726a2.046 2.046 0 0 0-1.246 2.529A4.08 4.08 0 0 1 7.7 9.05a5.09 5.09 0 0 1 3.044-6.581ZM19.826 9.02a4.08 4.08 0 0 1-4.257 2.704 2.047 2.047 0 0 0-1.246-2.529l2.448-6.726a5.09 5.09 0 0 1 3.055 6.551Z"/><path fill="#C2C2C2" d="M11.642 10.677a6.14 6.14 0 0 0-4.125 5.787v6.14a2.07 2.07 0 0 0 2.046 2.046 2.046 2.046 0 0 0 2.047-2.047v-5.507a12.1 12.1 0 0 1 1.071-4.962"/><path stroke="#742901" stroke-miterlimit="10" stroke-width=".643" d="M11.642 10.677a6.14 6.14 0 0 0-4.125 5.787v6.14a2.07 2.07 0 0 0 2.046 2.046 2.046 2.046 0 0 0 2.047-2.047v-5.507a12.1 12.1 0 0 1 1.071-4.962"/><path fill="#C2C2C2" d="M15.67 10.677a6.14 6.14 0 0 1 4.126 5.787v6.14a2.07 2.07 0 0 1-2.046 2.046 2.046 2.046 0 0 1-2.047-2.047v-5.507a12.1 12.1 0 0 0-1.072-4.962"/><path stroke="#742901" stroke-miterlimit="10" stroke-width=".643" d="M15.67 10.677a6.14 6.14 0 0 1 4.126 5.787v6.14a2.07 2.07 0 0 1-2.046 2.046 2.046 2.046 0 0 1-2.047-2.047v-5.507a12.1 12.1 0 0 0-1.072-4.962"/><path fill="#C2C2C2" stroke="#742901" stroke-miterlimit="10" stroke-width=".643" d="M15.703 11.352q.025.203 0 .407a2.047 2.047 0 0 1-4.007 0 1.7 1.7 0 0 1 0-.407.5.5 0 0 1 0-.129 2.036 2.036 0 1 1 4.072 0 .5.5 0 0 1-.065.129Z"/></g><defs><filter id="a" width="29.145" height="29.145" x="-.916" y="-1.174" color-interpolation-filters="sRGB" filterUnits="userSpaceOnUse"><feFlood flood-opacity="0" result="BackgroundImageFix"/><feColorMatrix in="SourceAlpha" result="hardAlpha" values="0 0 0 0 0 0 0 0 0 0 0 0 0 0 0 0 0 0 127 0"/><feOffset/><feGaussianBlur stdDeviation=".857"/><feColorMatrix values="0 0 0 0 0 0 0 0 0 0 0 0 0 0 0 0 0 0 0.5 0"/><feBlend in2="BackgroundImageFix" result="effect1_dropShadow_791_52243"/><feBlend in="SourceGraphic" in2="effect1_dropShadow_791_52243" result="shape"/><feColorMatrix in="SourceAlpha" result="hardAlpha" values="0 0 0 0 0 0 0 0 0 0 0 0 0 0 0 0 0 0 127 0"/><feOffset dx="-1.286" dy="-1.286"/><feGaussianBlur stdDeviation=".643"/><feComposite in2="hardAlpha" k2="-1" k3="1" operator="arithmetic"/><feColorMatrix values="0 0 0 0 0 0 0 0 0 0 0 0 0 0 0 0 0 0 0.25 0"/><feBlend in2="shape" result="effect2_innerShadow_791_52243"/><feColorMatrix in="SourceAlpha" result="hardAlpha" values="0 0 0 0 0 0 0 0 0 0 0 0 0 0 0 0 0 0 127 0"/><feOffset dx="1.286" dy="1.286"/><feGaussianBlur stdDeviation=".643"/><feComposite in2="hardAlpha" k2="-1" k3="1" operator="arithmetic"/><feColorMatrix values="0 0 0 0 1 0 0 0 0 1 0 0 0 0 1 0 0 0 0.5 0"/><feBlend in2="effect2_innerShadow_791_52243" result="effect3_innerShadow_791_52243"/></filter></defs></svg>