<svg xmlns="http://www.w3.org/2000/svg" width="24" height="24" fill="none"><g filter="url(#a)"><rect width="11.888" height="2.378" x="13.809" y="11.698" fill="#742901" stroke="#fff" stroke-miterlimit="10" stroke-width=".778" rx="1.189" transform="rotate(45 13.81 11.698)"/><mask id="b" width="16" height="16" x="1.546" y="1.116" fill="#000" maskUnits="userSpaceOnUse"><path fill="#fff" d="M1.546 1.116h16v16h-16z"/><path d="M16.146 8.916a6.8 6.8 0 1 1-13.6 0 6.8 6.8 0 0 1 13.6 0m-11.56 0a4.76 4.76 0 1 0 9.52 0 4.76 4.76 0 0 0-9.52 0"/></mask><path fill="#742901" d="M16.146 8.916a6.8 6.8 0 1 1-13.6 0 6.8 6.8 0 0 1 13.6 0m-11.56 0a4.76 4.76 0 1 0 9.52 0 4.76 4.76 0 0 0-9.52 0"/><path stroke="#fff" stroke-miterlimit="10" stroke-width="1.555" d="M16.146 8.916a6.8 6.8 0 1 1-13.6 0 6.8 6.8 0 0 1 13.6 0Zm-11.56 0a4.76 4.76 0 1 0 9.52 0 4.76 4.76 0 0 0-9.52 0Z" mask="url(#b)"/></g><defs><filter id="a" width="23.032" height="23.445" x=".413" y=".005" color-interpolation-filters="sRGB" filterUnits="userSpaceOnUse"><feFlood flood-opacity="0" result="BackgroundImageFix"/><feColorMatrix in="SourceAlpha" result="hardAlpha" values="0 0 0 0 0 0 0 0 0 0 0 0 0 0 0 0 0 0 127 0"/><feOffset/><feGaussianBlur stdDeviation=".667"/><feColorMatrix values="0 0 0 0 0 0 0 0 0 0 0 0 0 0 0 0 0 0 0.5 0"/><feBlend in2="BackgroundImageFix" result="effect1_dropShadow_791_52290"/><feBlend in="SourceGraphic" in2="effect1_dropShadow_791_52290" result="shape"/><feColorMatrix in="SourceAlpha" result="hardAlpha" values="0 0 0 0 0 0 0 0 0 0 0 0 0 0 0 0 0 0 127 0"/><feOffset dx="-1" dy="-1"/><feGaussianBlur stdDeviation=".5"/><feComposite in2="hardAlpha" k2="-1" k3="1" operator="arithmetic"/><feColorMatrix values="0 0 0 0 0 0 0 0 0 0 0 0 0 0 0 0 0 0 0.25 0"/><feBlend in2="shape" result="effect2_innerShadow_791_52290"/><feColorMatrix in="SourceAlpha" result="hardAlpha" values="0 0 0 0 0 0 0 0 0 0 0 0 0 0 0 0 0 0 127 0"/><feOffset dx="1" dy="1"/><feGaussianBlur stdDeviation=".5"/><feComposite in2="hardAlpha" k2="-1" k3="1" operator="arithmetic"/><feColorMatrix values="0 0 0 0 1 0 0 0 0 1 0 0 0 0 1 0 0 0 0.5 0"/><feBlend in2="effect2_innerShadow_791_52290" result="effect3_innerShadow_791_52290"/></filter></defs></svg>