<svg xmlns="http://www.w3.org/2000/svg" width="62" height="62" fill="none"><g filter="url(#a)"><mask id="b" width="51" height="51" x="5.957" y="5.967" fill="#000" maskUnits="userSpaceOnUse"><path fill="#fff" d="M5.957 5.967h51v51h-51z"/><path fill-rule="evenodd" d="M49.417 28.921a16.6 16.6 0 0 1 0 4.074c-.09.728.237 1.458.878 1.816l1.92 1.073a1.69 1.69 0 0 1 .632 2.336l-4.468 7.574a1.69 1.69 0 0 1-2.285.616l-2.032-1.14c-.608-.343-1.36-.269-1.926.14a18.8 18.8 0 0 1-3.82 2.138c-.667.277-1.13.913-1.13 1.636v2.157c0 .934-.757 1.692-1.69 1.692h-8.953a1.69 1.69 0 0 1-1.691-1.692v-1.989c0-.723-.462-1.359-1.13-1.636a18.8 18.8 0 0 1-3.82-2.137c-.565-.41-1.317-.484-1.926-.142l-2.031 1.14a1.69 1.69 0 0 1-2.285-.615l-4.468-7.574a1.69 1.69 0 0 1 .632-2.336l1.922-1.074c.64-.358.968-1.086.878-1.813a17 17 0 0 1 0-4.162c.09-.727-.238-1.456-.878-1.813l-1.922-1.074a1.69 1.69 0 0 1-.632-2.336l4.468-7.574a1.69 1.69 0 0 1 2.285-.616l2.031 1.14c.61.342 1.361.269 1.927-.14a18.8 18.8 0 0 1 3.819-2.138c.668-.277 1.13-.913 1.13-1.636v-2.157c0-.934.757-1.692 1.691-1.692h8.952c.934 0 1.692.758 1.692 1.692v2.073c0 .723.462 1.359 1.13 1.636a18.8 18.8 0 0 1 3.819 2.137c.565.41 1.317.483 1.926.142l2.032-1.14a1.69 1.69 0 0 1 2.285.615l4.468 7.574a1.69 1.69 0 0 1-.632 2.336l-1.92 1.073c-.64.358-.969 1.088-.878 1.816M40.69 31c0 5.197-4.33 9.41-9.671 9.41-5.342 0-9.672-4.213-9.672-9.41 0-5.198 4.33-9.411 9.672-9.411 5.341 0 9.67 4.213 9.67 9.41" clip-rule="evenodd"/></mask><path fill="#742901" fill-rule="evenodd" d="M49.417 28.921a16.6 16.6 0 0 1 0 4.074c-.09.728.237 1.458.878 1.816l1.92 1.073a1.69 1.69 0 0 1 .632 2.336l-4.468 7.574a1.69 1.69 0 0 1-2.285.616l-2.032-1.14c-.608-.343-1.36-.269-1.926.14a18.8 18.8 0 0 1-3.82 2.138c-.667.277-1.13.913-1.13 1.636v2.157c0 .934-.757 1.692-1.69 1.692h-8.953a1.69 1.69 0 0 1-1.691-1.692v-1.989c0-.723-.462-1.359-1.13-1.636a18.8 18.8 0 0 1-3.82-2.137c-.565-.41-1.317-.484-1.926-.142l-2.031 1.14a1.69 1.69 0 0 1-2.285-.615l-4.468-7.574a1.69 1.69 0 0 1 .632-2.336l1.922-1.074c.64-.358.968-1.086.878-1.813a17 17 0 0 1 0-4.162c.09-.727-.238-1.456-.878-1.813l-1.922-1.074a1.69 1.69 0 0 1-.632-2.336l4.468-7.574a1.69 1.69 0 0 1 2.285-.616l2.031 1.14c.61.342 1.361.269 1.927-.14a18.8 18.8 0 0 1 3.819-2.138c.668-.277 1.13-.913 1.13-1.636v-2.157c0-.934.757-1.692 1.691-1.692h8.952c.934 0 1.692.758 1.692 1.692v2.073c0 .723.462 1.359 1.13 1.636a18.8 18.8 0 0 1 3.819 2.137c.565.41 1.317.483 1.926.142l2.032-1.14a1.69 1.69 0 0 1 2.285.615l4.468 7.574a1.69 1.69 0 0 1-.632 2.336l-1.92 1.073c-.64.358-.969 1.088-.878 1.816M40.69 31c0 5.197-4.33 9.41-9.671 9.41-5.342 0-9.672-4.213-9.672-9.41 0-5.198 4.33-9.411 9.672-9.411 5.341 0 9.67 4.213 9.67 9.41" clip-rule="evenodd"/><path fill="#fff" d="m49.543 31 2.938.009v-.003zm-.126-2.079-2.916.362zm0 4.074 2.915.362zm.878 1.816-1.433 2.565zm1.92 1.073 1.433-2.565zm.632 2.336-2.53-1.493zm-4.468 7.574-2.53-1.492zm-2.285.616-1.438 2.561zm-2.032-1.14 1.439-2.562zm-1.926.14-1.724-2.378zm-3.82 2.138-1.126-2.713zm-14.594.168-1.127 2.713zm-3.82-2.137-1.723 2.378zm-1.926-.142L19.414 48zm-2.031 1.14-1.438-2.561zm-2.285-.615-2.53 1.493zm-4.468-7.574 2.53-1.493zm.632-2.336 1.433 2.564zm1.922-1.074 1.433 2.564zm.878-1.813-2.915.36zm0-4.162-2.915-.361zm-.878-1.813-1.433 2.564zm-1.922-1.074 1.433-2.565zm-.632-2.336 2.53 1.493zm4.468-7.574-2.53-1.493zm2.285-.616-1.438 2.562zm2.031 1.14-1.438 2.562zm1.927-.14-1.724-2.38zm3.819-2.138-1.127-2.713zm14.595-.084 1.127-2.713zm3.819 2.137-1.724 2.379zm1.926.142 1.439 2.561zm2.032-1.14 1.438 2.56zm2.285.615-2.53 1.492zm4.468 7.574-2.53 1.493zm-.632 2.336-1.433-2.564zm-1.92 1.073 1.433 2.564zm2.186 3.901a20 20 0 0 0-.15-2.447l-5.83.724q.106.853.104 1.71zm-.15 2.35q.146-1.168.15-2.347l-5.876-.018a14 14 0 0 1-.104 1.642zm-.603-1.11c.51.285.645.78.604 1.11l-5.83-.724c-.223 1.79.569 3.743 2.36 4.744zm1.92 1.073-1.92-1.072-2.866 5.129 1.92 1.073zm1.729 6.393a4.63 4.63 0 0 0-1.73-6.393l-2.865 5.13a1.246 1.246 0 0 1-.465-1.722zm-4.468 7.575 4.468-7.575-5.06-2.985-4.468 7.575zm-6.253 1.684a4.63 4.63 0 0 0 6.253-1.684l-5.06-2.985a1.246 1.246 0 0 1 1.683-.454zm-2.032-1.14 2.032 1.14 2.876-5.123-2.031-1.14zm1.236-.042c-.277.201-.756.311-1.236.042l2.877-5.123c-1.698-.953-3.681-.696-5.09.324zm-4.416 2.472a21.7 21.7 0 0 0 4.416-2.472l-3.448-4.757a15.9 15.9 0 0 1-3.222 1.803zm.68-1.077c0 .57-.352.94-.68 1.077l-2.254-5.426c-1.663.69-2.941 2.334-2.941 4.35zm0 2.157v-2.157H34.25v2.157zm-4.629 4.63a4.63 4.63 0 0 0 4.63-4.63h-5.876c0-.688.558-1.246 1.246-1.246zm-8.952 0h8.952v-5.876h-8.952zm-4.629-4.63a4.63 4.63 0 0 0 4.63 4.63v-5.876c.688 0 1.246.558 1.246 1.246zm0-1.989v1.99h5.876v-1.99zm.68 1.077a1.15 1.15 0 0 1-.68-1.077h5.876c0-2.015-1.278-3.658-2.941-4.35zm-4.415-2.472a21.7 21.7 0 0 0 4.416 2.472l2.254-5.426a15.9 15.9 0 0 1-3.222-1.803zm1.235.042c-.48.269-.958.16-1.235-.042l3.448-4.757c-1.408-1.02-3.392-1.277-5.089-.325zm-2.031 1.14L19.414 48l-2.876-5.123-2.031 1.14zm-6.253-1.684a4.63 4.63 0 0 0 6.253 1.684l-2.876-5.123a1.246 1.246 0 0 1 1.683.453zM6.662 39.88l4.468 7.575 5.06-2.986-4.468-7.574zm1.729-6.393a4.63 4.63 0 0 0-1.73 6.393l5.061-2.985c.356.603.146 1.38-.465 1.721zm1.922-1.074-1.922 1.074 2.866 5.13 1.922-1.075zm-.604 1.113c-.042-.335.096-.829.604-1.113l2.866 5.13c1.787-1 2.582-2.95 2.36-4.74zm0-4.884c-.201 1.622-.201 3.262 0 4.884l5.83-.722a14 14 0 0 1 0-3.44zm.604 1.113c-.508-.284-.646-.778-.604-1.113l5.83.722c.222-1.79-.573-3.74-2.36-4.739zM8.391 28.68l1.922 1.073 2.866-5.129-1.922-1.074zm-1.73-6.393a4.63 4.63 0 0 0 1.73 6.393l2.866-5.13c.61.342.82 1.119.465 1.722zm4.469-7.575-4.468 7.575 5.06 2.985 4.468-7.575zm6.253-1.684a4.63 4.63 0 0 0-6.253 1.684l5.06 2.985a1.246 1.246 0 0 1-1.683.454zm2.031 1.14-2.031-1.14-2.876 5.123 2.031 1.14zm-1.235.041c.277-.2.756-.31 1.235-.041l-2.876 5.123c1.697.953 3.68.696 5.089-.324zm4.416-2.47a21.7 21.7 0 0 0-4.416 2.47l3.448 4.758a15.9 15.9 0 0 1 3.222-1.803zm-.68 1.076c0-.57.352-.94.68-1.077l2.254 5.426c1.663-.69 2.94-2.334 2.94-4.35zm0-2.157v2.157h5.875v-2.157zm4.628-4.63a4.63 4.63 0 0 0-4.629 4.63h5.876c0 .688-.558 1.246-1.247 1.246zm8.952 0h-8.952v5.876h8.952zm4.63 4.63a4.63 4.63 0 0 0-4.63-4.63v5.876a1.246 1.246 0 0 1-1.246-1.246zm0 2.073v-2.073h-5.876v2.073zm-.681-1.077c.328.136.68.507.68 1.077H34.25c0 2.015 1.278 3.658 2.94 4.349zm4.416 2.472a21.7 21.7 0 0 0-4.416-2.472l-2.254 5.426a15.9 15.9 0 0 1 3.222 1.803zm-1.236-.042c.48-.27.959-.16 1.236.041l-3.448 4.758c1.408 1.02 3.391 1.277 5.089.324zm2.032-1.14-2.032 1.14 2.877 5.123 2.031-1.14zm6.253 1.684a4.63 4.63 0 0 0-6.253-1.684l2.876 5.123c-.591.332-1.34.13-1.683-.454zm4.468 7.575-4.468-7.575-5.06 2.985 4.468 7.575zm-1.73 6.393a4.63 4.63 0 0 0 1.73-6.393l-5.06 2.985a1.246 1.246 0 0 1 .465-1.721zm-1.92 1.072 1.92-1.072-2.865-5.13-1.92 1.073zm.605-1.11c.041.332-.095.826-.604 1.11l-2.866-5.129c-1.791 1.001-2.583 2.955-2.36 4.743zM31.02 43.348c6.887 0 12.609-5.453 12.609-12.348h-5.876c0 3.5-2.938 6.473-6.733 6.473zM18.41 31c0 6.895 5.722 12.348 12.61 12.348v-5.875c-3.795 0-6.734-2.974-6.734-6.473zM31.02 18.65c-6.888 0-12.61 5.454-12.61 12.349h5.876c0-3.5 2.939-6.474 6.734-6.474zM43.629 31c0-6.895-5.722-12.349-12.61-12.349v5.875c3.796 0 6.734 2.974 6.734 6.474z" mask="url(#b)"/></g><defs><filter id="a" width="61.751" height="61.692" x=".144" y=".154" color-interpolation-filters="sRGB" filterUnits="userSpaceOnUse"><feFlood flood-opacity="0" result="BackgroundImageFix"/><feColorMatrix in="SourceAlpha" result="hardAlpha" values="0 0 0 0 0 0 0 0 0 0 0 0 0 0 0 0 0 0 127 0"/><feOffset/><feGaussianBlur stdDeviation="2.938"/><feComposite in2="hardAlpha" operator="out"/><feColorMatrix values="0 0 0 0 0 0 0 0 0 0 0 0 0 0 0 0 0 0 0.5 0"/><feBlend in2="BackgroundImageFix" result="effect1_dropShadow_807_30341"/><feBlend in="SourceGraphic" in2="effect1_dropShadow_807_30341" result="shape"/><feColorMatrix in="SourceAlpha" result="hardAlpha" values="0 0 0 0 0 0 0 0 0 0 0 0 0 0 0 0 0 0 127 0"/><feOffset dx="-4.407" dy="-4.407"/><feGaussianBlur stdDeviation="2.203"/><feComposite in2="hardAlpha" k2="-1" k3="1" operator="arithmetic"/><feColorMatrix values="0 0 0 0 0 0 0 0 0 0 0 0 0 0 0 0 0 0 0.25 0"/><feBlend in2="shape" result="effect2_innerShadow_807_30341"/><feColorMatrix in="SourceAlpha" result="hardAlpha" values="0 0 0 0 0 0 0 0 0 0 0 0 0 0 0 0 0 0 127 0"/><feOffset dx="4.407" dy="4.407"/><feGaussianBlur stdDeviation="2.203"/><feComposite in2="hardAlpha" k2="-1" k3="1" operator="arithmetic"/><feColorMatrix values="0 0 0 0 1 0 0 0 0 1 0 0 0 0 1 0 0 0 0.5 0"/><feBlend in2="effect2_innerShadow_807_30341" result="effect3_innerShadow_807_30341"/></filter></defs></svg>