<svg xmlns="http://www.w3.org/2000/svg" width="27" height="27" fill="none"><g filter="url(#a)"><mask id="b" width="15" height="15" x="6.36" y="6.253" fill="#000" maskUnits="userSpaceOnUse"><path fill="#fff" d="M6.36 6.253h15v15h-15z"/><path fill-rule="evenodd" d="M19.166 13.076a4.8 4.8 0 0 1 0 1.189.53.53 0 0 0 .257.53l.56.313a.494.494 0 0 1 .184.681L18.864 18a.494.494 0 0 1-.667.18l-.593-.333a.52.52 0 0 0-.562.042q-.52.376-1.115.623a.52.52 0 0 0-.33.478v.63a.494.494 0 0 1-.493.493h-2.612a.494.494 0 0 1-.494-.494v-.58a.52.52 0 0 0-.33-.478 5.5 5.5 0 0 1-1.114-.623.52.52 0 0 0-.562-.042l-.593.333a.494.494 0 0 1-.666-.18l-1.304-2.21a.494.494 0 0 1 .184-.681l.561-.314a.53.53 0 0 0 .256-.529 5 5 0 0 1 0-1.214.53.53 0 0 0-.256-.53l-.56-.313a.494.494 0 0 1-.185-.681l1.304-2.21a.494.494 0 0 1 .666-.18l.593.333c.178.1.397.078.562-.042.345-.25.72-.459 1.115-.623a.52.52 0 0 0 .33-.478v-.629c0-.273.22-.494.493-.494h2.612c.273 0 .494.221.494.494v.605c0 .21.135.396.33.477.395.165.77.374 1.114.624.165.12.384.141.562.041l.593-.333a.494.494 0 0 1 .667.18l1.303 2.21a.494.494 0 0 1-.184.682l-.56.313a.53.53 0 0 0-.257.53m-2.546.606c0 1.517-1.263 2.746-2.822 2.746-1.558 0-2.822-1.229-2.822-2.746s1.264-2.746 2.822-2.746 2.822 1.23 2.822 2.746" clip-rule="evenodd"/></mask><path fill="#742901" fill-rule="evenodd" d="M19.166 13.076a4.8 4.8 0 0 1 0 1.189.53.53 0 0 0 .257.53l.56.313a.494.494 0 0 1 .184.681L18.864 18a.494.494 0 0 1-.667.18l-.593-.333a.52.52 0 0 0-.562.042q-.52.376-1.115.623a.52.52 0 0 0-.33.478v.63a.494.494 0 0 1-.493.493h-2.612a.494.494 0 0 1-.494-.494v-.58a.52.52 0 0 0-.33-.478 5.5 5.5 0 0 1-1.114-.623.52.52 0 0 0-.562-.042l-.593.333a.494.494 0 0 1-.666-.18l-1.304-2.21a.494.494 0 0 1 .184-.681l.561-.314a.53.53 0 0 0 .256-.529 5 5 0 0 1 0-1.214.53.53 0 0 0-.256-.53l-.56-.313a.494.494 0 0 1-.185-.681l1.304-2.21a.494.494 0 0 1 .666-.18l.593.333c.178.1.397.078.562-.042.345-.25.72-.459 1.115-.623a.52.52 0 0 0 .33-.478v-.629c0-.273.22-.494.493-.494h2.612c.273 0 .494.221.494.494v.605c0 .21.135.396.33.477.395.165.77.374 1.114.624.165.12.384.141.562.041l.593-.333a.494.494 0 0 1 .667.18l1.303 2.21a.494.494 0 0 1-.184.682l-.56.313a.53.53 0 0 0-.257.53m-2.546.606c0 1.517-1.263 2.746-2.822 2.746-1.558 0-2.822-1.229-2.822-2.746s1.264-2.746 2.822-2.746 2.822 1.23 2.822 2.746" clip-rule="evenodd"/><path fill="#fff" d="m19.203 13.683.858.002zm-.037-.607.851-.106zm0 1.189-.85-.106zm.257.53-.418.748zm.56.313.418-.749zm.184.681.739.436zM18.864 18l-.739-.435zm-.667.18.42-.747zm-.593-.333.42-.747zm-.562.042.503.694zm-1.115.623.33.792zm-4.258.05.329-.792zm-1.115-.624-.503.694zm-.562-.042.42.748zm-.593.333-.42-.747zm-.666-.18.738-.435zm-1.304-2.21.738-.435zm.184-.681.418.748zm.561-.314.418.749zm.256-.529.851-.105zm0-1.214.851.105zm-.256-.53.418-.748zm-.56-.313.417-.748zm-.185-.681.738.435zm1.304-2.21-.739-.436zm.666-.18.42-.748zm.593.333-.42.747zm.562-.042-.503-.694zm1.115-.623-.33-.792zm4.259-.025.328-.791zm1.114.624.503-.694zm.562.041.42.748zm.593-.333-.42-.747zm.667.18-.739.436zm1.303 2.21-.738.436zm-.184.682.418.748zm-.56.313.418.748zm.638 1.138q0-.359-.044-.714l-1.701.212q.03.248.03.499zm-.044.686q.042-.341.044-.685l-1.715-.005q0 .24-.03.479zm-.176-.324a.33.33 0 0 1 .176.324l-1.701-.211a1.385 1.385 0 0 0 .689 1.384zm.56.313-.56-.313-.836 1.497.56.313zm.505 1.866a1.35 1.35 0 0 0-.505-1.866l-.836 1.497a.364.364 0 0 1-.136-.502zm-1.304 2.21 1.304-2.21-1.477-.871-1.304 2.21zm-1.825.492a1.35 1.35 0 0 0 1.825-.492l-1.477-.871c.1-.17.319-.23.491-.132zm-.593-.333.593.333.84-1.495-.593-.333zm.361-.012a.33.33 0 0 1-.36.012l.839-1.495a1.38 1.38 0 0 0-1.485.095zm-1.289.72c.457-.189.89-.43 1.289-.72l-1.006-1.388a4.6 4.6 0 0 1-.94.526zm.199-.313a.34.34 0 0 1-.199.314L15.6 17.72a1.38 1.38 0 0 0-.858 1.269zm0 .63v-.63h-1.714v.63zm-1.35 1.35a1.35 1.35 0 0 0 1.35-1.35h-1.714c0-.202.162-.364.363-.364zm-2.613 0h2.612v-1.715h-2.612zm-1.35-1.35c0 .745.604 1.35 1.35 1.35v-1.715c.2 0 .364.163.364.364zm0-.581v.58h1.714v-.58zm.198.314a.34.34 0 0 1-.199-.314h1.715a1.38 1.38 0 0 0-.858-1.27zm-1.289-.721q.602.436 1.289.72l.658-1.582a4.6 4.6 0 0 1-.94-.526zm.36.012a.34.34 0 0 1-.36-.012l1.006-1.388a1.38 1.38 0 0 0-1.484-.095zm-.592.333.593-.333-.84-1.495-.592.333zm-1.825-.492a1.35 1.35 0 0 0 1.825.492l-.84-1.495a.364.364 0 0 1 .492.132zm-1.303-2.21 1.303 2.21 1.477-.871-1.304-2.21zm.504-1.866a1.35 1.35 0 0 0-.504 1.866l1.476-.871a.364.364 0 0 1-.136.502zm.561-.313-.56.313.835 1.497.561-.313zm-.176.325a.33.33 0 0 1 .176-.325l.836 1.497c.522-.292.754-.86.69-1.383zm0-1.425a5.8 5.8 0 0 0 0 1.425l1.701-.211a4 4 0 0 1 0-1.004zm.176.324a.33.33 0 0 1-.176-.325l1.701.211a1.38 1.38 0 0 0-.689-1.383zm-.56-.313.56.313.836-1.497-.56-.313zM6.69 11.14a1.35 1.35 0 0 0 .504 1.866l.836-1.497c.179.1.24.326.136.502zm1.303-2.21-1.303 2.21 1.476.871 1.304-2.21zm1.825-.492a1.35 1.35 0 0 0-1.825.492l1.477.871c-.1.17-.319.23-.491.132zm.593.333-.593-.333-.84 1.495.594.333zm-.36.012c.08-.058.22-.09.36-.012l-.84 1.495a1.38 1.38 0 0 0 1.485-.095zm1.288-.72c-.457.189-.89.431-1.289.72l1.006 1.389c.29-.211.607-.388.94-.527zm-.199.313c0-.166.103-.274.199-.314l.658 1.584a1.38 1.38 0 0 0 .858-1.27zm0-.629v.63h1.715v-.63zm1.351-1.35a1.35 1.35 0 0 0-1.35 1.35h1.714c0 .2-.163.364-.364.364zm2.612 0h-2.612V8.11h2.612zm1.351 1.35a1.35 1.35 0 0 0-1.35-1.35V8.11a.364.364 0 0 1-.364-.364zm0 .605v-.605h-1.714v.605zm-.199-.314c.096.04.199.148.199.314h-1.714c0 .588.372 1.067.858 1.269zm1.289.72q-.602-.434-1.289-.72L15.6 9.62c.334.139.65.315.94.526zm-.36-.011a.34.34 0 0 1 .36.012l-1.006 1.388c.41.298.99.373 1.485.095zm.592-.333-.593.333.84 1.495.592-.333zm1.825.492a1.35 1.35 0 0 0-1.825-.492l.84 1.495a.364.364 0 0 1-.492-.132zm1.304 2.21-1.304-2.21-1.477.87 1.304 2.21zM20.4 12.98a1.35 1.35 0 0 0 .505-1.865l-1.477.87a.364.364 0 0 1 .136-.501zm-.56.313.56-.313-.836-1.496-.56.313zm.176-.324a.33.33 0 0 1-.176.324l-.836-1.496a1.385 1.385 0 0 0-.69 1.384zm-6.219 4.316c2.01 0 3.68-1.592 3.68-3.604h-1.715c0 1.022-.857 1.89-1.965 1.89zm-3.68-3.604c0 2.012 1.67 3.604 3.68 3.604V15.57c-1.107 0-1.965-.867-1.965-1.889zm3.68-3.603c-2.01 0-3.68 1.591-3.68 3.603h1.715c0-1.02.858-1.889 1.965-1.889zm3.68 3.603c0-2.012-1.67-3.603-3.68-3.603v1.714c1.108 0 1.965.868 1.965 1.89z" mask="url(#b)"/></g><defs><filter id="a" width="29.145" height="29.145" x="-.774" y="-.89" color-interpolation-filters="sRGB" filterUnits="userSpaceOnUse"><feFlood flood-opacity="0" result="BackgroundImageFix"/><feColorMatrix in="SourceAlpha" result="hardAlpha" values="0 0 0 0 0 0 0 0 0 0 0 0 0 0 0 0 0 0 127 0"/><feOffset/><feGaussianBlur stdDeviation=".857"/><feComposite in2="hardAlpha" operator="out"/><feColorMatrix values="0 0 0 0 0 0 0 0 0 0 0 0 0 0 0 0 0 0 0.5 0"/><feBlend in2="BackgroundImageFix" result="effect1_dropShadow_791_51749"/><feBlend in="SourceGraphic" in2="effect1_dropShadow_791_51749" result="shape"/><feColorMatrix in="SourceAlpha" result="hardAlpha" values="0 0 0 0 0 0 0 0 0 0 0 0 0 0 0 0 0 0 127 0"/><feOffset dx="-1.286" dy="-1.286"/><feGaussianBlur stdDeviation=".643"/><feComposite in2="hardAlpha" k2="-1" k3="1" operator="arithmetic"/><feColorMatrix values="0 0 0 0 0 0 0 0 0 0 0 0 0 0 0 0 0 0 0.25 0"/><feBlend in2="shape" result="effect2_innerShadow_791_51749"/><feColorMatrix in="SourceAlpha" result="hardAlpha" values="0 0 0 0 0 0 0 0 0 0 0 0 0 0 0 0 0 0 127 0"/><feOffset dx="1.286" dy="1.286"/><feGaussianBlur stdDeviation=".643"/><feComposite in2="hardAlpha" k2="-1" k3="1" operator="arithmetic"/><feColorMatrix values="0 0 0 0 1 0 0 0 0 1 0 0 0 0 1 0 0 0 0.5 0"/><feBlend in2="effect2_innerShadow_791_51749" result="effect3_innerShadow_791_51749"/></filter></defs></svg>