<svg xmlns="http://www.w3.org/2000/svg" width="27" height="27" fill="none"><g filter="url(#a)"><rect width="9.944" height="1.586" x="12.729" y="16.764" fill="#2DDF00" stroke="#fff" stroke-width=".3" rx=".793" transform="rotate(-90 12.729 16.764)"/><g filter="url(#b)"><path fill="#2DDF00" d="M18.044 2.47h2.046c.119 0 .215.095.215.214v.969a4.52 4.52 0 0 1-4.522 4.522h-2.047a.214.214 0 0 1-.214-.215v-.969a4.52 4.52 0 0 1 4.522-4.522"/></g><path stroke="#fff" stroke-miterlimit="10" stroke-width=".3" d="M20.09 2.32h-2.046a4.67 4.67 0 0 0-4.672 4.671v.97c0 .2.163.364.364.364h2.047a4.67 4.67 0 0 0 4.672-4.672v-.97a.364.364 0 0 0-.365-.364Z"/><g filter="url(#c)"><path fill="#2DDF00" d="M8.71 3.755H6.665a.214.214 0 0 0-.214.215v.97a4.52 4.52 0 0 0 4.522 4.52h2.046a.214.214 0 0 0 .214-.213v-.97a4.52 4.52 0 0 0-4.521-4.522"/></g><path stroke="#fff" stroke-miterlimit="10" stroke-width=".3" d="M6.664 3.605h2.047a4.67 4.67 0 0 1 4.671 4.672v.97a.364.364 0 0 1-.364.364h-2.046A4.67 4.67 0 0 1 6.3 4.939v-.97c0-.2.163-.364.364-.364Z"/><mask id="e" width="14" height="14" x="6.092" y="11.113" fill="#000" maskUnits="userSpaceOnUse"><path fill="#fff" d="M6.092 11.113h14v14h-14z"/><path fill-rule="evenodd" d="M9.664 12.113a.643.643 0 1 0 0 1.286h1.522v3.892c0 .13-.045.257-.126.359l-3.635 4.536a1.54 1.54 0 0 0-.332.954 1.52 1.52 0 0 0 1.521 1.51h9.237a1.52 1.52 0 0 0 1.521-1.51c0-.347-.117-.683-.332-.954l-3.635-4.536a.57.57 0 0 1-.126-.359V13.4h1.457a.643.643 0 1 0 0-1.286z" clip-rule="evenodd"/></mask><g filter="url(#d)"><path fill="#B26B00" fill-rule="evenodd" d="M9.664 12.113a.643.643 0 1 0 0 1.286h1.522v3.892c0 .13-.045.257-.126.359l-3.635 4.536a1.54 1.54 0 0 0-.332.954 1.52 1.52 0 0 0 1.521 1.51h9.237a1.52 1.52 0 0 0 1.521-1.51c0-.347-.117-.683-.332-.954l-3.635-4.536a.57.57 0 0 1-.126-.359V13.4h1.457a.643.643 0 1 0 0-1.286z" clip-rule="evenodd"/></g><path fill="#fff" d="M11.186 13.4h.3v-.3h-.3zm-.126 4.25-.234-.188zm-3.635 4.536-.234-.188-.002.002zm-.332.954-.3-.001v.003zm.449 1.069-.211.212zm1.072.441v-.3zm9.237 0v-.3zm1.521-1.51.3.002v-.003zm-.332-.954.235-.186v-.002zm-3.635-4.536.234-.188zm-.126-4.25v-.3h-.3v.3zm-5.958-.644c0-.19.154-.343.343-.343v-.6a.943.943 0 0 0-.943.943zm.343.343a.343.343 0 0 1-.343-.343h-.6c0 .521.423.943.943.943zm1.522 0H9.664v.6h1.522zm-.3.3v3.892h.6V13.4zm0 3.892a.27.27 0 0 1-.06.171l.468.375a.87.87 0 0 0 .192-.546zm-.06.171L7.19 21.998l.468.375 3.635-4.536zM7.189 22a1.84 1.84 0 0 0-.396 1.139l.6.001c0-.279.094-.55.267-.768zm-.396 1.142c.003.48.196.94.538 1.28l.422-.426a1.22 1.22 0 0 1-.36-.859zm.538 1.28c.34.338.802.528 1.283.528v-.6c-.322 0-.632-.127-.86-.354zm1.283.528h9.237v-.6H8.614zm9.237 0c.48 0 .942-.19 1.283-.529l-.423-.425a1.22 1.22 0 0 1-.86.354zm1.283-.529c.341-.338.535-.799.538-1.28l-.6-.004a1.22 1.22 0 0 1-.36.859zm.538-1.282c0-.413-.14-.815-.397-1.14l-.47.373c.172.219.267.49.267.768zm-.398-1.14-3.635-4.537-.468.375 3.635 4.537zm-3.635-4.537a.27.27 0 0 1-.06-.17h-.6c0 .198.068.39.192.545zm-.06-.17v-3.893h-.6v3.892zm1.157-4.193H15.28v.6h1.457zm.343-.343c0 .19-.153.343-.343.343v.6c.521 0 .943-.422.943-.943zm-.343-.343c.19 0 .343.154.343.343h.6a.943.943 0 0 0-.943-.943zm-7.072 0h7.072v-.6H9.664z" mask="url(#e)"/></g><defs><filter id="a" width="28.288" height="28.288" x="-.622" y="-.745" color-interpolation-filters="sRGB" filterUnits="userSpaceOnUse"><feFlood flood-opacity="0" result="BackgroundImageFix"/><feBlend in="SourceGraphic" in2="BackgroundImageFix" result="shape"/><feColorMatrix in="SourceAlpha" result="hardAlpha" values="0 0 0 0 0 0 0 0 0 0 0 0 0 0 0 0 0 0 127 0"/><feOffset dx="-1.286" dy="-1.286"/><feGaussianBlur stdDeviation=".643"/><feComposite in2="hardAlpha" k2="-1" k3="1" operator="arithmetic"/><feColorMatrix values="0 0 0 0 0 0 0 0 0 0 0 0 0 0 0 0 0 0 0.25 0"/><feBlend in2="shape" result="effect1_innerShadow_791_52001"/><feColorMatrix in="SourceAlpha" result="hardAlpha" values="0 0 0 0 0 0 0 0 0 0 0 0 0 0 0 0 0 0 127 0"/><feOffset dx="1.286" dy="1.286"/><feGaussianBlur stdDeviation=".643"/><feComposite in2="hardAlpha" k2="-1" k3="1" operator="arithmetic"/><feColorMatrix values="0 0 0 0 1 0 0 0 0 1 0 0 0 0 1 0 0 0 0.5 0"/><feBlend in2="effect1_innerShadow_791_52001" result="effect2_innerShadow_791_52001"/></filter><filter id="b" width="7.382" height="6.305" x="13.222" y="2.169" color-interpolation-filters="sRGB" filterUnits="userSpaceOnUse"><feFlood flood-opacity="0" result="BackgroundImageFix"/><feBlend in="SourceGraphic" in2="BackgroundImageFix" result="shape"/><feColorMatrix in="SourceAlpha" result="hardAlpha" values="0 0 0 0 0 0 0 0 0 0 0 0 0 0 0 0 0 0 127 0"/><feOffset dx="-.857" dy="-.857"/><feComposite in2="hardAlpha" k2="-1" k3="1" operator="arithmetic"/><feColorMatrix values="0 0 0 0 0 0 0 0 0 0 0 0 0 0 0 0 0 0 0.25 0"/><feBlend in2="shape" result="effect1_innerShadow_791_52001"/></filter><filter id="c" width="7.382" height="6.305" x="6.15" y="3.456" color-interpolation-filters="sRGB" filterUnits="userSpaceOnUse"><feFlood flood-opacity="0" result="BackgroundImageFix"/><feBlend in="SourceGraphic" in2="BackgroundImageFix" result="shape"/><feColorMatrix in="SourceAlpha" result="hardAlpha" values="0 0 0 0 0 0 0 0 0 0 0 0 0 0 0 0 0 0 127 0"/><feOffset dx="-.857" dy="-.857"/><feComposite in2="hardAlpha" k2="-1" k3="1" operator="arithmetic"/><feColorMatrix values="0 0 0 0 0 0 0 0 0 0 0 0 0 0 0 0 0 0 0.25 0"/><feBlend in2="shape" result="effect1_innerShadow_791_52001"/></filter><filter id="d" width="12.88" height="13.137" x="6.792" y="11.813" color-interpolation-filters="sRGB" filterUnits="userSpaceOnUse"><feFlood flood-opacity="0" result="BackgroundImageFix"/><feBlend in="SourceGraphic" in2="BackgroundImageFix" result="shape"/><feColorMatrix in="SourceAlpha" result="hardAlpha" values="0 0 0 0 0 0 0 0 0 0 0 0 0 0 0 0 0 0 127 0"/><feOffset dx="-.429" dy="-.429"/><feComposite in2="hardAlpha" k2="-1" k3="1" operator="arithmetic"/><feColorMatrix values="0 0 0 0 0 0 0 0 0 0 0 0 0 0 0 0 0 0 0.25 0"/><feBlend in2="shape" result="effect1_innerShadow_791_52001"/></filter></defs></svg>