<svg xmlns="http://www.w3.org/2000/svg" width="347" height="347" fill="none"><g clip-path="url(#a)"><path stroke="#00BF35" stroke-linecap="round" stroke-width="14.986" d="M147.537 24.225s29.323-16.678 49.239-14.45c49.252 5.51 47.098 48.904 23.549 124.702s-43.619 155.877-39.806 204.179"/><path fill="#00BF35" d="M213.966 160.976c-33.736 60.919-36.404 183.981-36.404 183.981l10.389-9.091c33.072-122.017 66.924-186.048 146.701-294.648 0 0-82.767 51.287-120.686 119.758"/><path fill="#fff" d="M103.676 78.26v-.001a79.3 79.3 0 0 0 7.127-11.09c4.416-8.34-.014-18.234-8.938-19.961a71.5 71.5 0 0 0-12.667-1.282c-17.514-.193-35.375 5.724-50.205 16.623-10.278 7.553-18.613 17.14-24.322 27.814-4.483 8.381-.016 18.357 8.982 20.057 11.458 2.166 23.792 1.509 35.872-2.019 17.432-5.09 33.14-15.811 44.151-30.141"/><path stroke="#D9D9D9" stroke-miterlimit="10" stroke-width="1.281" d="M103.676 78.26v-.001a79.3 79.3 0 0 0 7.127-11.09c4.416-8.34-.014-18.234-8.938-19.961a71.5 71.5 0 0 0-12.667-1.282c-17.514-.193-35.375 5.724-50.205 16.623-10.278 7.553-18.613 17.14-24.322 27.814-4.483 8.381-.016 18.357 8.982 20.057 11.458 2.166 23.792 1.509 35.872-2.019 17.432-5.09 33.14-15.811 44.151-30.141Z"/><path stroke="#D9D9D9" stroke-miterlimit="10" stroke-width="1.281" d="M103.676 78.26v-.001a79.3 79.3 0 0 0 7.127-11.09c4.416-8.34-.014-18.234-8.938-19.961a71.5 71.5 0 0 0-12.667-1.282c-17.514-.193-35.375 5.724-50.205 16.623-10.278 7.553-18.613 17.14-24.322 27.814-4.483 8.381-.016 18.357 8.982 20.057 11.458 2.166 23.792 1.509 35.872-2.019 17.432-5.09 33.14-15.811 44.151-30.141Z"/><path stroke="#D9D9D9" stroke-miterlimit="10" stroke-width="1.281" d="M103.676 78.26v-.001a79.3 79.3 0 0 0 7.127-11.09c4.416-8.34-.014-18.234-8.938-19.961a71.5 71.5 0 0 0-12.667-1.282c-17.514-.193-35.375 5.724-50.205 16.623-10.278 7.553-18.613 17.14-24.322 27.814-4.483 8.381-.016 18.357 8.982 20.057 11.458 2.166 23.792 1.509 35.872-2.019 17.432-5.09 33.14-15.811 44.151-30.141Z"/><path fill="#fff" d="M136.629 87.836v-.001a82 82 0 0 0-3.876-11.442c-3.876-9.129-15.25-11.378-22.012-4.353a78 78 0 0 0-7.561 9.18c-10.405 14.808-16.308 33.487-16.603 52.5-.197 12.731 2.13 25.032 6.683 35.876 3.866 9.208 15.329 11.475 22.109 4.373 7.986-8.365 14.399-18.937 18.609-30.875 6.288-17.828 7.235-37.487 2.651-55.258"/><path stroke="#D9D9D9" stroke-miterlimit="10" stroke-width="1.281" d="M136.629 87.836v-.001a82 82 0 0 0-3.876-11.442c-3.876-9.129-15.25-11.378-22.012-4.353a78 78 0 0 0-7.561 9.18c-10.405 14.808-16.308 33.487-16.603 52.5-.197 12.731 2.13 25.032 6.683 35.876 3.866 9.208 15.329 11.475 22.109 4.373 7.986-8.365 14.399-18.937 18.609-30.875 6.288-17.828 7.235-37.487 2.651-55.258Z"/><path stroke="#D9D9D9" stroke-miterlimit="10" stroke-width="1.281" d="M136.629 87.836v-.001a82 82 0 0 0-3.876-11.442c-3.876-9.129-15.25-11.378-22.012-4.353a78 78 0 0 0-7.561 9.18c-10.405 14.808-16.308 33.487-16.603 52.5-.197 12.731 2.13 25.032 6.683 35.876 3.866 9.208 15.329 11.475 22.109 4.373 7.986-8.365 14.399-18.937 18.609-30.875 6.288-17.828 7.235-37.487 2.651-55.258Z"/><path stroke="#D9D9D9" stroke-miterlimit="10" stroke-width="1.281" d="M136.629 87.836v-.001a82 82 0 0 0-3.876-11.442c-3.876-9.129-15.25-11.378-22.012-4.353a78 78 0 0 0-7.561 9.18c-10.405 14.808-16.308 33.487-16.603 52.5-.197 12.731 2.13 25.032 6.683 35.876 3.866 9.208 15.329 11.475 22.109 4.373 7.986-8.365 14.399-18.937 18.609-30.875 6.288-17.828 7.235-37.487 2.651-55.258Z"/><path fill="#fff" d="M113.88 87.543c.431-4.23.542-8.425.339-12.542-.488-9.844-9.974-16.088-18.601-12.244a74 74 0 0 0-10.573 5.804c-14.824 9.799-26.799 24.93-33.666 42.525-4.65 11.914-6.743 24.408-6.198 36.376.452 9.915 10.013 16.209 18.686 12.3 10.47-4.718 20.234-12.162 28.384-21.771 12.039-14.192 19.736-32.138 21.629-50.448"/><path stroke="#D9D9D9" stroke-miterlimit="10" stroke-width="1.281" d="M113.88 87.543c.431-4.23.542-8.425.339-12.542-.488-9.844-9.974-16.088-18.601-12.244a74 74 0 0 0-10.573 5.804c-14.824 9.799-26.799 24.93-33.666 42.525-4.65 11.914-6.743 24.408-6.198 36.376.452 9.915 10.013 16.209 18.686 12.3 10.47-4.718 20.234-12.162 28.384-21.771 12.039-14.192 19.736-32.138 21.629-50.448Z"/><path stroke="#D9D9D9" stroke-miterlimit="10" stroke-width="1.281" d="M113.88 87.543c.431-4.23.542-8.425.339-12.542-.488-9.844-9.974-16.088-18.601-12.244a74 74 0 0 0-10.573 5.804c-14.824 9.799-26.799 24.93-33.666 42.525-4.65 11.914-6.743 24.408-6.198 36.376.452 9.915 10.013 16.209 18.686 12.3 10.47-4.718 20.234-12.162 28.384-21.771 12.039-14.192 19.736-32.138 21.629-50.448Z"/><path stroke="#D9D9D9" stroke-miterlimit="10" stroke-width="1.281" d="M113.88 87.543c.431-4.23.542-8.425.339-12.542-.488-9.844-9.974-16.088-18.601-12.244a74 74 0 0 0-10.573 5.804c-14.824 9.799-26.799 24.93-33.666 42.525-4.65 11.914-6.743 24.408-6.198 36.376.452 9.915 10.013 16.209 18.686 12.3 10.47-4.718 20.234-12.162 28.384-21.771 12.039-14.192 19.736-32.138 21.629-50.448Z"/><path fill="#00BF35" d="M135.918 16.585c9.559-.385 17.793 6.68 18.864 16.186.439 3.892.518 7.744.233 11.51-1.216 15.63-8.591 28.935-20.729 37.392-11.598 8.08-29.534-6.323-31.109-7.622a7 7 0 0 1-.22-.189c-1.524-1.36-18.484-16.9-12.26-29.59 6.516-13.281 18.545-22.592 33.81-26.169a61.4 61.4 0 0 1 11.411-1.518"/></g><defs><clipPath id="a"><path fill="#fff" d="M0 0h347v347H0z"/></clipPath></defs></svg>