<svg xmlns="http://www.w3.org/2000/svg" width="27" height="27" fill="none"><g filter="url(#a)"><path fill="#F5DD00" d="M12.496 2.047a1.015 1.015 0 0 1 1.754 0l3.055 5.244c.143.246.383.42.662.481l5.93 1.284c.762.165 1.062 1.09.543 1.67l-4.043 4.525c-.19.212-.282.495-.253.778l.611 6.038a1.015 1.015 0 0 1-1.42 1.031l-5.553-2.447a1.01 1.01 0 0 0-.819 0L7.41 23.098a1.015 1.015 0 0 1-1.42-1.031l.612-6.038a1.01 1.01 0 0 0-.253-.778l-4.043-4.526a1.015 1.015 0 0 1 .542-1.669l5.93-1.284c.28-.06.52-.235.663-.481z"/></g><defs><filter id="a" width="23.248" height="22.239" x="1.749" y="1.245" color-interpolation-filters="sRGB" filterUnits="userSpaceOnUse"><feFlood flood-opacity="0" result="BackgroundImageFix"/><feBlend in="SourceGraphic" in2="BackgroundImageFix" result="shape"/><feColorMatrix in="SourceAlpha" result="hardAlpha" values="0 0 0 0 0 0 0 0 0 0 0 0 0 0 0 0 0 0 127 0"/><feOffset dx=".298" dy=".298"/><feGaussianBlur stdDeviation=".298"/><feComposite in2="hardAlpha" k2="-1" k3="1" operator="arithmetic"/><feColorMatrix values="0 0 0 0 1 0 0 0 0 1 0 0 0 0 1 0 0 0 1 0"/><feBlend in2="shape" result="effect1_innerShadow_791_52266"/><feColorMatrix in="SourceAlpha" result="hardAlpha" values="0 0 0 0 0 0 0 0 0 0 0 0 0 0 0 0 0 0 127 0"/><feOffset dx="-.298" dy="-.298"/><feGaussianBlur stdDeviation=".298"/><feComposite in2="hardAlpha" k2="-1" k3="1" operator="arithmetic"/><feColorMatrix values="0 0 0 0 0.829167 0 0 0 0 0.64903 0 0 0 0 0.0103646 0 0 0 1 0"/><feBlend in2="effect1_innerShadow_791_52266" result="effect2_innerShadow_791_52266"/></filter></defs></svg>