<svg xmlns="http://www.w3.org/2000/svg" width="31" height="31" fill="none"><g clip-path="url(#a)" filter="url(#b)"><path stroke="#742901" stroke-width=".04" d="M2.333 2.277H28.01v25.677H2.333z"/><path fill="#fff" stroke="#742901" stroke-width=".798" d="M25.417 14.312c.04.514-.17 1.013-.528 1.384-3.439 3.563-5.514 5.575-9.134 9.124-.373.365-.878.58-1.399.54-5.294-.416-9.46-4.843-9.46-10.244 0-5.676 4.6-10.277 10.276-10.277 5.405 0 9.835 4.173 10.245 9.473Z"/><g filter="url(#c)"><circle cx="14.733" cy="14.677" r="6.253" fill="#F5DD00"/><circle cx="11.93" cy="13.168" r=".863" fill="#000"/><circle cx="17.537" cy="13.168" r=".863" fill="#000"/><path fill="#000" d="M16.976 16.187c.072 0 .13.058.125.129a1.9 1.9 0 0 1-.192.696c-.13.261-.321.5-.561.7s-.526.358-.84.467c-.314.108-.65.164-.99.164s-.677-.056-.99-.164a2.7 2.7 0 0 1-.84-.468c-.24-.2-.43-.437-.56-.7a1.9 1.9 0 0 1-.193-.695.12.12 0 0 1 .125-.13c.071 0 .128.059.134.13.017.21.075.418.172.613.117.236.289.45.505.63s.473.323.756.42a2.74 2.74 0 0 0 1.783 0c.282-.097.538-.24.755-.42s.387-.394.504-.63q.147-.294.172-.613a.14.14 0 0 1 .135-.13"/></g><path fill="#fff" stroke="#742901" stroke-width=".798" d="M24.961 14.587c-6.167-1.329-11.458 2.958-10.293 10.214.067.415.572.565.87.269l9.659-9.623c.288-.287.161-.775-.236-.86Z"/></g><defs><filter id="b" width="30.002" height="30.002" x=".17" y=".114" color-interpolation-filters="sRGB" filterUnits="userSpaceOnUse"><feFlood flood-opacity="0" result="BackgroundImageFix"/><feColorMatrix in="SourceAlpha" result="hardAlpha" values="0 0 0 0 0 0 0 0 0 0 0 0 0 0 0 0 0 0 127 0"/><feOffset/><feGaussianBlur stdDeviation="1.072"/><feColorMatrix values="0 0 0 0 0 0 0 0 0 0 0 0 0 0 0 0 0 0 0.5 0"/><feBlend in2="BackgroundImageFix" result="effect1_dropShadow_791_51966"/><feBlend in="SourceGraphic" in2="effect1_dropShadow_791_51966" result="shape"/><feColorMatrix in="SourceAlpha" result="hardAlpha" values="0 0 0 0 0 0 0 0 0 0 0 0 0 0 0 0 0 0 127 0"/><feOffset dx="-1.607" dy="-1.607"/><feGaussianBlur stdDeviation=".804"/><feComposite in2="hardAlpha" k2="-1" k3="1" operator="arithmetic"/><feColorMatrix values="0 0 0 0 0 0 0 0 0 0 0 0 0 0 0 0 0 0 0.25 0"/><feBlend in2="shape" result="effect2_innerShadow_791_51966"/><feColorMatrix in="SourceAlpha" result="hardAlpha" values="0 0 0 0 0 0 0 0 0 0 0 0 0 0 0 0 0 0 127 0"/><feOffset dx="1.607" dy="1.607"/><feGaussianBlur stdDeviation=".804"/><feComposite in2="hardAlpha" k2="-1" k3="1" operator="arithmetic"/><feColorMatrix values="0 0 0 0 1 0 0 0 0 1 0 0 0 0 1 0 0 0 0.5 0"/><feBlend in2="effect2_innerShadow_791_51966" result="effect3_innerShadow_791_51966"/></filter><filter id="c" width="13.251" height="13.251" x="8.108" y="8.052" color-interpolation-filters="sRGB" filterUnits="userSpaceOnUse"><feFlood flood-opacity="0" result="BackgroundImageFix"/><feBlend in="SourceGraphic" in2="BackgroundImageFix" result="shape"/><feColorMatrix in="SourceAlpha" result="hardAlpha" values="0 0 0 0 0 0 0 0 0 0 0 0 0 0 0 0 0 0 127 0"/><feOffset dx=".372" dy=".372"/><feGaussianBlur stdDeviation=".372"/><feComposite in2="hardAlpha" k2="-1" k3="1" operator="arithmetic"/><feColorMatrix values="0 0 0 0 1 0 0 0 0 1 0 0 0 0 1 0 0 0 1 0"/><feBlend in2="shape" result="effect1_innerShadow_791_51966"/><feColorMatrix in="SourceAlpha" result="hardAlpha" values="0 0 0 0 0 0 0 0 0 0 0 0 0 0 0 0 0 0 127 0"/><feOffset dx="-.372" dy="-.372"/><feGaussianBlur stdDeviation=".372"/><feComposite in2="hardAlpha" k2="-1" k3="1" operator="arithmetic"/><feColorMatrix values="0 0 0 0 0.829167 0 0 0 0 0.64903 0 0 0 0 0.0103646 0 0 0 1 0"/><feBlend in2="effect1_innerShadow_791_51966" result="effect2_innerShadow_791_51966"/></filter><clipPath id="a"><path fill="#fff" d="M2.313 2.257H28.03v25.716H2.313z"/></clipPath></defs></svg>