<svg xmlns="http://www.w3.org/2000/svg" width="58" height="58" fill="none"><g filter="url(#a)"><path fill="#fff" stroke="#742901" stroke-width="1.862" d="M52.903 27.126c.093 1.199-.396 2.362-1.232 3.228-8.023 8.313-12.864 13.008-21.31 21.287-.871.854-2.048 1.356-3.264 1.26-12.352-.969-22.074-11.3-22.074-23.9C5.023 15.758 15.758 5.023 29 5.023c12.61 0 22.947 9.736 23.904 22.101Z"/><circle cx="28.477" cy="27.227" r="14.59" fill="#F5DD00"/><circle cx="21.938" cy="23.704" r="2.012" fill="#000"/><circle cx="35.018" cy="23.704" r="2.012" fill="#000"/><path fill="#000" d="M33.71 30.748c.167 0 .303.136.291.302a4.3 4.3 0 0 1-.448 1.624 5.1 5.1 0 0 1-1.31 1.632 6.2 6.2 0 0 1-1.958 1.09 7.1 7.1 0 0 1-2.31.383 7.1 7.1 0 0 1-2.31-.383 6.2 6.2 0 0 1-1.96-1.09 5.1 5.1 0 0 1-1.308-1.632 4.3 4.3 0 0 1-.449-1.624.286.286 0 0 1 .291-.302c.167 0 .301.136.314.302.04.491.175.975.402 1.431.273.55.673 1.049 1.178 1.47.504.42 1.103.753 1.762.98.66.228 1.366.345 2.08.345.713 0 1.42-.117 2.08-.344a5.6 5.6 0 0 0 1.762-.982c.505-.42.905-.92 1.178-1.469a3.9 3.9 0 0 0 .401-1.431.32.32 0 0 1 .314-.302"/><path fill="#fff" stroke="#742901" stroke-width="1.862" d="M51.007 27.974c-13.859-2.946-25.735 6.685-23.16 22.978.153.97 1.331 1.32 2.026.628l21.685-21.603c.671-.669.376-1.806-.55-2.003Z"/></g><defs><filter id="a" width="57.754" height="57.751" x=".092" y=".093" color-interpolation-filters="sRGB" filterUnits="userSpaceOnUse"><feFlood flood-opacity="0" result="BackgroundImageFix"/><feColorMatrix in="SourceAlpha" result="hardAlpha" values="0 0 0 0 0 0 0 0 0 0 0 0 0 0 0 0 0 0 127 0"/><feOffset/><feGaussianBlur stdDeviation="2"/><feColorMatrix values="0 0 0 0 0 0 0 0 0 0 0 0 0 0 0 0 0 0 0.5 0"/><feBlend in2="BackgroundImageFix" result="effect1_dropShadow_792_30329"/><feBlend in="SourceGraphic" in2="effect1_dropShadow_792_30329" result="shape"/><feColorMatrix in="SourceAlpha" result="hardAlpha" values="0 0 0 0 0 0 0 0 0 0 0 0 0 0 0 0 0 0 127 0"/><feOffset dx="-3" dy="-3"/><feGaussianBlur stdDeviation="1.5"/><feComposite in2="hardAlpha" k2="-1" k3="1" operator="arithmetic"/><feColorMatrix values="0 0 0 0 0 0 0 0 0 0 0 0 0 0 0 0 0 0 0.25 0"/><feBlend in2="shape" result="effect2_innerShadow_792_30329"/><feColorMatrix in="SourceAlpha" result="hardAlpha" values="0 0 0 0 0 0 0 0 0 0 0 0 0 0 0 0 0 0 127 0"/><feOffset dx="3" dy="3"/><feGaussianBlur stdDeviation="1.5"/><feComposite in2="hardAlpha" k2="-1" k3="1" operator="arithmetic"/><feColorMatrix values="0 0 0 0 1 0 0 0 0 1 0 0 0 0 1 0 0 0 0.5 0"/><feBlend in2="effect2_innerShadow_792_30329" result="effect3_innerShadow_792_30329"/></filter></defs></svg>