<svg xmlns="http://www.w3.org/2000/svg" width="28" height="28" fill="none"><g filter="url(#a)"><path stroke="#F5DD00" stroke-linecap="round" stroke-miterlimit="10" stroke-width="2" d="M14.022 1.793V3.85m0 20.53v2.058m12.322-12.323h-2.057m-20.53 0H1.7M14.022 1.793V3.85m0 20.53v2.058m12.322-12.323h-2.057m-20.53 0H1.7m21.034-8.711L21.288 6.85M6.757 21.38l-1.446 1.447m17.423 0-1.446-1.446M6.757 6.85 5.311 5.404m17.423 0L21.288 6.85M6.757 21.38l-1.446 1.447m17.423 0-1.446-1.446M6.757 6.85 5.311 5.404"/><path fill="#F5DD00" d="M14.021 21.306a7.19 7.19 0 1 0 0-14.38 7.19 7.19 0 0 0 0 14.38"/></g><defs><filter id="a" width="29.216" height="29.217" x="-.586" y="-.493" color-interpolation-filters="sRGB" filterUnits="userSpaceOnUse"><feFlood flood-opacity="0" result="BackgroundImageFix"/><feBlend in="SourceGraphic" in2="BackgroundImageFix" result="shape"/><feColorMatrix in="SourceAlpha" result="hardAlpha" values="0 0 0 0 0 0 0 0 0 0 0 0 0 0 0 0 0 0 127 0"/><feOffset dx="-1.286" dy="-1.286"/><feGaussianBlur stdDeviation=".643"/><feComposite in2="hardAlpha" k2="-1" k3="1" operator="arithmetic"/><feColorMatrix values="0 0 0 0 0 0 0 0 0 0 0 0 0 0 0 0 0 0 0.25 0"/><feBlend in2="shape" result="effect1_innerShadow_791_51899"/><feColorMatrix in="SourceAlpha" result="hardAlpha" values="0 0 0 0 0 0 0 0 0 0 0 0 0 0 0 0 0 0 127 0"/><feOffset dx="1.286" dy="1.286"/><feGaussianBlur stdDeviation=".643"/><feComposite in2="hardAlpha" k2="-1" k3="1" operator="arithmetic"/><feColorMatrix values="0 0 0 0 1 0 0 0 0 1 0 0 0 0 1 0 0 0 0.5 0"/><feBlend in2="effect1_innerShadow_791_51899" result="effect2_innerShadow_791_51899"/></filter></defs></svg>