<svg xmlns="http://www.w3.org/2000/svg" width="347" height="347" fill="none"><g clip-path="url(#a)"><path fill="#00BF35" d="M271.63 151.816c.575.074.999.572.981 1.151-.37 12.142-3.237 24.52-8.439 36.418-9.772 22.246-27.09 41.623-48.674 54.459-21.26 12.644-45.203 18.078-67.422 15.323a1.124 1.124 0 0 1-.986-1.157c.79-22.375 9.938-45.159 25.781-64.154 16.085-19.285 37.955-33.325 61.465-39.459 12.57-3.258 25.246-4.133 37.294-2.581"/><path fill="#00BF35" d="m142.393 258.759-6.885-4.121zm-80.222 71.638a8.025 8.025 0 0 0 4.951 15.266zm106.138-218.493c-7.9 1.409-7.9 1.407-7.901 1.405v-.002.001l.004.024.023.132q.032.19.097.598c.085.545.21 1.375.357 2.47.294 2.189.678 5.432 1.019 9.549.682 8.239 1.192 19.942.483 33.684-1.422 27.57-7.72 62.854-26.883 94.873l13.77 8.242c20.981-35.056 27.64-73.2 29.14-102.288.753-14.588.214-27.022-.517-35.837a205 205 0 0 0-1.107-10.36 127 127 0 0 0-.532-3.589l-.037-.213-.011-.063-.003-.021-.002-.008c0-.003-.001-.006-7.9 1.403m-32.801 142.734c-19.606 32.759-38.414 51.827-52.028 62.622-6.814 5.403-12.352 8.755-16.076 10.72a53 53 0 0 1-4.169 1.996c-.447.188-.765.31-.945.377l-.166.059q-.015.006-.003.002l.018-.006.014-.005.009-.003c.004-.001.009-.003 2.485 7.63s2.48 7.631 2.485 7.63l.011-.004.025-.008.06-.02.159-.054a35 35 0 0 0 2.06-.8 69 69 0 0 0 5.447-2.601c4.581-2.417 10.953-6.307 18.558-12.338 15.223-12.071 35.288-32.638 55.826-66.955z"/><path fill="#FFE600" stroke="#fff" stroke-miterlimit="10" stroke-width="1.724" d="M91.432 54.658h-.008a65 65 0 0 0-17.929 5.637 8.17 8.17 0 0 0-4.044 10.435 63.55 63.55 0 0 0 35.832 35.472 63.25 63.25 0 0 0 28.656 4.081 63 63 0 0 0 21.639-5.955 8.157 8.157 0 0 0 4.063-10.381 63.35 63.35 0 0 0-24.457-29.85 63.08 63.08 0 0 0-43.752-9.44Zm153.409 96.993.008-.001a65 65 0 0 0 17.926-5.634 8.173 8.173 0 0 0 4.044-10.437 63.7 63.7 0 0 0-9.418-16.092 63.25 63.25 0 0 0-38.577-22.853 62.86 62.86 0 0 0-38.159 5.339 8.157 8.157 0 0 0-4.039 10.368 63.34 63.34 0 0 0 24.464 29.87 63.08 63.08 0 0 0 43.751 9.44Z"/><path fill="#FFE600" stroke="#fff" stroke-miterlimit="10" stroke-width="1.724" d="m254.327 84.63.001-.001a65.1 65.1 0 0 0 9.061-17.933 8.224 8.224 0 0 0-4.408-10.032 65.1 65.1 0 0 0-19.337-5.457h-.001c-16.004-1.894-32.069 2.207-45.149 11.526-11.337 8.078-19.747 19.588-24.099 32.816a8.23 8.23 0 0 0 4.434 10.092c12.686 5.742 26.852 7.333 40.47 4.447 15.712-3.331 29.598-12.39 39.028-25.458Z"/><path fill="#FFE600" stroke="#fff" stroke-miterlimit="10" stroke-width="1.724" d="m148.921 15.869-.001-.001a65.1 65.1 0 0 0-17.933-9.061 8.22 8.22 0 0 0-10.032 4.408 65 65 0 0 0-5.457 19.337v.001c-1.894 16.004 2.207 32.069 11.527 45.15 8.077 11.336 19.587 19.746 32.815 24.098a8.23 8.23 0 0 0 10.092-4.434c5.742-12.686 7.333-26.852 4.447-40.47-3.331-15.712-12.389-29.598-25.458-39.028Z"/><path fill="#FFE600" stroke="#fff" stroke-miterlimit="10" stroke-width="1.724" d="M218.621 26.333v-.002a65.1 65.1 0 0 0-6.273-19.087 8.224 8.224 0 0 0-10.211-3.977 65.1 65.1 0 0 0-17.532 9.815l-.001.001c-12.656 9.977-21.115 24.236-23.775 40.075-2.304 13.729-.112 27.814 6.164 40.245a8.23 8.23 0 0 0 10.272 4.001c13.03-4.91 24.172-13.802 31.76-25.473 8.755-13.464 12.169-29.689 9.596-45.598Zm3.152 141.874v.002a65.1 65.1 0 0 1-5.457 19.337 8.22 8.22 0 0 1-10.032 4.407 65.1 65.1 0 0 1-17.933-9.06l-.001-.001c-13.069-9.43-22.127-23.317-25.458-39.028-2.886-13.618-1.295-27.784 4.447-40.47a8.23 8.23 0 0 1 10.092-4.435c13.228 4.352 24.738 12.762 32.816 24.099 9.319 13.081 13.42 29.145 11.526 45.149Z"/><path fill="#FFE600" stroke="#fff" stroke-miterlimit="10" stroke-width="1.724" d="m97.63 147.556-.001-.001a65 65 0 0 1-19.337-5.456 8.223 8.223 0 0 1-4.408-10.032 65.1 65.1 0 0 1 9.06-17.933l.001-.001c9.43-13.069 23.317-22.128 39.029-25.458 13.618-2.886 27.784-1.295 40.47 4.446a8.23 8.23 0 0 1 4.434 10.093c-4.352 13.227-12.762 24.738-24.099 32.815-13.08 9.32-29.145 13.421-45.149 11.527Z"/><path fill="#FFE600" stroke="#fff" stroke-miterlimit="10" stroke-width="1.724" d="m156.042 186.991-.001.001a65.1 65.1 0 0 1-17.531 9.815 8.223 8.223 0 0 1-10.211-3.978 65.1 65.1 0 0 1-6.274-19.087v-.001c-2.573-15.909.841-32.134 9.596-45.599 7.588-11.67 18.731-20.562 31.761-25.472a8.23 8.23 0 0 1 10.272 4.001c6.276 12.43 8.468 26.516 6.163 40.244-2.659 15.839-11.119 30.098-23.775 40.076Z"/><path fill="#FFE600" stroke="#fff" stroke-miterlimit="10" stroke-width="1.724" d="m95.436 89.64-.007.004a54.3 54.3 0 0 0-12.255 9.83A6.957 6.957 0 0 0 83.19 109a53.13 53.13 0 0 0 38.676 16.761 52.9 52.9 0 0 0 23.562-5.516 52.7 52.7 0 0 0 15.05-11.205 6.944 6.944 0 0 0 .015-9.49 52.95 52.95 0 0 0-28.109-15.832 52.74 52.74 0 0 0-36.948 5.922Zm148.677 29.18.007-.004a54.3 54.3 0 0 0 12.254-9.828 6.96 6.96 0 0 0-.016-9.528 53.2 53.2 0 0 0-12.22-9.677 52.88 52.88 0 0 0-36.986-6.098 52.55 52.55 0 0 0-28.107 15.739 6.945 6.945 0 0 0 0 9.472 52.95 52.95 0 0 0 28.121 15.845 52.73 52.73 0 0 0 36.947-5.921Z"/><path fill="#FFE600" stroke="#fff" stroke-miterlimit="10" stroke-width="1.724" d="m231.269 63.791.001-.001a54.4 54.4 0 0 0 1.616-16.718 7 7 0 0 0-6.595-6.595 54.4 54.4 0 0 0-16.718 1.617h-.001c-13.041 3.38-24.311 11.449-31.672 22.678-6.381 9.732-9.439 21.25-8.816 32.872a7.004 7.004 0 0 0 6.635 6.635c11.623.623 23.141-2.435 32.873-8.816 11.228-7.36 19.297-18.63 22.677-31.672Z"/><path fill="#FFE600" stroke="#fff" stroke-miterlimit="10" stroke-width="1.724" d="M128.47 42.094h-.002a54.4 54.4 0 0 0-16.718-1.618 7 7 0 0 0-6.595 6.595 54.4 54.4 0 0 0 1.617 16.718v.002c3.381 13.04 11.449 24.31 22.678 31.672 9.732 6.38 21.249 9.439 32.873 8.816a7.005 7.005 0 0 0 6.634-6.635c.623-11.623-2.435-23.14-8.815-32.873-7.362-11.229-18.631-19.297-31.672-22.677Z"/><path fill="#FFE600" stroke="#fff" stroke-miterlimit="10" stroke-width="1.724" d="m185.871 29.198-.001-.001a54.4 54.4 0 0 0-10.678-12.965 7 7 0 0 0-9.327 0 54.4 54.4 0 0 0-10.678 12.965l-.001.001c-6.831 11.612-9.095 25.286-6.36 38.431 2.37 11.393 8.351 21.7 17.011 29.479a7.005 7.005 0 0 0 9.383 0c8.659-7.779 14.641-18.086 17.011-29.479 2.734-13.145.471-26.819-6.36-38.43Z"/><path fill="#FFE600" stroke="#fff" stroke-miterlimit="10" stroke-width="1.724" d="m231.269 138.503.001.001a54.4 54.4 0 0 1 1.616 16.718 7 7 0 0 1-6.595 6.595 54.4 54.4 0 0 1-16.718-1.617h-.001c-13.041-3.381-24.311-11.449-31.672-22.678-6.381-9.732-9.439-21.249-8.816-32.873a7.005 7.005 0 0 1 6.635-6.634c11.623-.623 23.141 2.435 32.873 8.816 11.228 7.361 19.297 18.631 22.677 31.672Z"/><path fill="#FFE600" stroke="#fff" stroke-miterlimit="10" stroke-width="1.724" d="M128.47 160.201h-.002a54.4 54.4 0 0 1-16.718 1.617 7 7 0 0 1-6.595-6.595 54.4 54.4 0 0 1 1.617-16.718v-.002c3.381-13.04 11.449-24.31 22.678-31.672 9.732-6.38 21.249-9.438 32.873-8.815a7.004 7.004 0 0 1 6.634 6.634c.623 11.624-2.435 23.141-8.815 32.873-7.362 11.229-18.631 19.297-31.672 22.678Z"/><path fill="#FFE600" stroke="#fff" stroke-miterlimit="10" stroke-width="1.724" d="m185.871 173.094-.001.002a54.4 54.4 0 0 1-10.678 12.964 7 7 0 0 1-9.327 0 54.4 54.4 0 0 1-10.678-12.964l-.001-.002c-6.831-11.612-9.095-25.286-6.36-38.431 2.37-11.393 8.351-21.7 17.011-29.478a7.005 7.005 0 0 1 9.383 0c8.659 7.778 14.641 18.085 17.011 29.478 2.734 13.145.471 26.819-6.36 38.431Z"/><circle cx="169.643" cy="103.508" r="26.546" fill="#FFA800" stroke="#fff" stroke-width="1.724"/></g><defs><clipPath id="a"><path fill="#fff" d="M0 0h347v347H0z"/></clipPath></defs></svg>