<svg xmlns="http://www.w3.org/2000/svg" width="27" height="26" fill="none"><g stroke="#742901" stroke-miterlimit="10" filter="url(#a)"><path fill="#fff" stroke-width="1.5" d="M16.686 16.095V6.237a3.933 3.933 0 0 0-7.854 0v9.858a4.85 4.85 0 0 0-.986 2.914 4.918 4.918 0 0 0 9.826 0 4.85 4.85 0 0 0-.986-2.914Z"/><path fill="#742901" stroke-width=".857" d="M12.753 19.994a.986.986 0 1 0 0-1.972.986.986 0 0 0 0 1.972Z"/><path stroke-linecap="round" stroke-width="1.5" d="M12.753 6.236v11.787M16.686 7.222h2.947M16.686 11.154h2.947M16.686 15.075h2.947"/></g><defs><filter id="a" width="28.288" height="28.288" x="-.405" y="-1.028" color-interpolation-filters="sRGB" filterUnits="userSpaceOnUse"><feFlood flood-opacity="0" result="BackgroundImageFix"/><feBlend in="SourceGraphic" in2="BackgroundImageFix" result="shape"/><feColorMatrix in="SourceAlpha" result="hardAlpha" values="0 0 0 0 0 0 0 0 0 0 0 0 0 0 0 0 0 0 127 0"/><feOffset dx="-1.286" dy="-1.286"/><feGaussianBlur stdDeviation=".643"/><feComposite in2="hardAlpha" k2="-1" k3="1" operator="arithmetic"/><feColorMatrix values="0 0 0 0 0 0 0 0 0 0 0 0 0 0 0 0 0 0 0.25 0"/><feBlend in2="shape" result="effect1_innerShadow_791_51892"/><feColorMatrix in="SourceAlpha" result="hardAlpha" values="0 0 0 0 0 0 0 0 0 0 0 0 0 0 0 0 0 0 127 0"/><feOffset dx="1.286" dy="1.286"/><feGaussianBlur stdDeviation=".643"/><feComposite in2="hardAlpha" k2="-1" k3="1" operator="arithmetic"/><feColorMatrix values="0 0 0 0 1 0 0 0 0 1 0 0 0 0 1 0 0 0 0.5 0"/><feBlend in2="effect1_innerShadow_791_51892" result="effect2_innerShadow_791_51892"/></filter></defs></svg>