<svg xmlns="http://www.w3.org/2000/svg" width="347" height="347" fill="none"><g clip-path="url(#a)"><path fill="#00BF35" d="M197.872 226.853c-35.96 21.679-68.502 82.874-68.502 82.874l8.645-1.812c50.898-52.59 87.711-75.803 163.84-109.231 0 0-63.565 3.803-103.983 28.169"/><path fill="#00BF35" d="m155.867 271.216 7.287 3.77zm-71.232 58.137a8.205 8.205 0 0 0 7.374 14.659zm95.908-188.603c-8.201.262-8.201.26-8.201.259v.005l.001.03.004.144.014.613c.011.549.024 1.376.031 2.456a310 310 0 0 1-.087 9.299 392 392 0 0 1-2.072 31.863c-2.735 25.697-8.769 57.116-21.654 82.028l14.575 7.539c14.281-27.611 20.586-61.425 23.397-87.83a408 408 0 0 0 2.159-33.214c.097-4.155.107-7.487.091-9.796a215 215 0 0 0-.034-2.671l-.016-.714-.006-.193-.001-.054-.001-.017v-.006c0-.002 0-.004-8.2.259m-31.964 126.697c-10.264 19.844-26.168 35.351-39.793 45.999a184 184 0 0 1-17.277 11.988 136 136 0 0 1-5.146 2.994 76 76 0 0 1-1.66.89l-.066.034-.01.004h.002l.003-.002c.002-.001.003-.001 3.69 7.328s3.69 7.329 3.692 7.328l.005-.003.014-.007.041-.021.13-.067.453-.235c.384-.202.93-.494 1.623-.875a154 154 0 0 0 5.771-3.358 200 200 0 0 0 18.839-13.068c14.643-11.444 32.512-28.67 44.264-51.39z"/><path fill="#FF008A" stroke="#fff" stroke-miterlimit="10" stroke-width="1.023" d="M175.764 157.673c-7.832-7.571-14.454-16.811-19.524-27.27-10.218-21.171-13.606-46.108-9.515-70.081 3.866-22.646 14.148-42.927 29.027-57.447a3.32 3.32 0 0 1 4.647 0c14.879 14.52 25.161 34.801 29.026 57.447 4.092 23.973.704 48.91-9.515 70.081-5.07 10.459-11.691 19.699-19.524 27.27a3.317 3.317 0 0 1-4.622 0Z"/><path fill="#F03A86" stroke="#fff" stroke-width="1.023" d="M112.812 129.102c10.795 42.731 54.914 56.697 86.094 35.072 11.235-7.791 19.418-17.23 22.955-28.393 3.532-11.153 2.451-24.101-4.984-38.972-7.404-14.808-17.23-20.078-27.151-24.54-.867-.39-1.735-.773-2.603-1.157-9.077-4.011-18.124-8.01-25.082-18.688-7.232-11.1-12.827-28.794-15.52-38.345-.611-2.167-3.453-2.61-4.627-.761-6.454 10.166-19.324 31.722-24.098 48.939-6.808 24.555-9.53 48.853-4.984 66.845Z"/><path fill="#ED106C" stroke="#fff" stroke-width="1.023" d="M241.512 129.102c-10.795 42.731-54.913 56.697-86.094 35.072-11.235-7.791-19.418-17.23-22.954-28.393-3.533-11.153-2.452-24.101 4.983-38.972 7.404-14.808 17.231-20.078 27.151-24.54.867-.39 1.736-.773 2.604-1.157 9.076-4.011 18.123-8.01 25.081-18.688 7.232-11.1 12.827-28.794 15.52-38.345.611-2.167 3.454-2.61 4.627-.761 6.455 10.166 19.324 31.722 24.098 48.939 6.808 24.555 9.53 48.853 4.984 66.845Z"/></g><defs><clipPath id="a"><path fill="#fff" d="M0 0h347v347H0z"/></clipPath></defs></svg>