<svg xmlns="http://www.w3.org/2000/svg" width="34" height="27" fill="none"><g filter="url(#a)"><path fill="#0038FF" d="M9.921 11.987 5.1 6.197h-1.64L8.314 19.06"/><path stroke="#fff" stroke-miterlimit="10" stroke-width=".589" d="M9.921 11.987 5.1 6.197h-1.64L8.314 19.06"/><path fill="#0038FF" d="M24.564 8.798h.79a5.117 5.117 0 0 1 3.617 8.734 5.17 5.17 0 0 1-3.189 1.474"/><path stroke="#fff" stroke-miterlimit="10" stroke-width=".589" d="M24.564 8.798h.79a5.117 5.117 0 0 1 3.617 8.734 5.17 5.17 0 0 1-3.189 1.474"/><path fill="#0038FF" stroke="#fff" stroke-miterlimit="10" stroke-width=".589" d="M7.292 20.705v-.018l-.002-.017a.5.5 0 0 1-.002-.106L10.175 7.76h14.24l2.856 12.804a.5.5 0 0 1-.001.106l-.002.017v.018c0 .258-.186.57-.652.833-.46.26-1.105.418-1.797.422H9.77c-.697 0-1.35-.156-1.817-.416-.473-.265-.661-.58-.661-.84Z"/><path fill="#00D1FF" d="M20.535 16.291c-.057.801-.423 1.55-1.024 2.099a3.3 3.3 0 0 1-2.215.851 3.3 3.3 0 0 1-2.214-.851 3.14 3.14 0 0 1-1.024-2.099c0-2.118 1.97-4.516 2.834-5.464a.534.534 0 0 1 .794-.001c.867.948 2.849 3.346 2.849 5.465"/><path fill="url(#b)" d="M20.535 16.291c-.057.801-.423 1.55-1.024 2.099a3.3 3.3 0 0 1-2.215.851 3.3 3.3 0 0 1-2.214-.851 3.14 3.14 0 0 1-1.024-2.099c0-2.118 1.97-4.516 2.834-5.464a.534.534 0 0 1 .794-.001c.867.948 2.849 3.346 2.849 5.465"/></g><defs><radialGradient id="b" cx="0" cy="0" r="1" gradientTransform="matrix(0 3.65736 -2.68207 0 18.178 13.7)" gradientUnits="userSpaceOnUse"><stop offset=".325" stop-color="#fff"/><stop offset=".325" stop-color="#00D1FF" stop-opacity="0"/></radialGradient><filter id="a" width="32.44" height="30.427" x=".677" y="-1.531" color-interpolation-filters="sRGB" filterUnits="userSpaceOnUse"><feFlood flood-opacity="0" result="BackgroundImageFix"/><feColorMatrix in="SourceAlpha" result="hardAlpha" values="0 0 0 0 0 0 0 0 0 0 0 0 0 0 0 0 0 0 127 0"/><feOffset/><feGaussianBlur stdDeviation="1.178"/><feColorMatrix values="0 0 0 0 0 0 0 0 0 0 0 0 0 0 0 0 0 0 0.5 0"/><feBlend in2="BackgroundImageFix" result="effect1_dropShadow_791_51951"/><feBlend in="SourceGraphic" in2="effect1_dropShadow_791_51951" result="shape"/><feColorMatrix in="SourceAlpha" result="hardAlpha" values="0 0 0 0 0 0 0 0 0 0 0 0 0 0 0 0 0 0 127 0"/><feOffset dx="-1.766" dy="-1.766"/><feGaussianBlur stdDeviation=".883"/><feComposite in2="hardAlpha" k2="-1" k3="1" operator="arithmetic"/><feColorMatrix values="0 0 0 0 0 0 0 0 0 0 0 0 0 0 0 0 0 0 0.25 0"/><feBlend in2="shape" result="effect2_innerShadow_791_51951"/><feColorMatrix in="SourceAlpha" result="hardAlpha" values="0 0 0 0 0 0 0 0 0 0 0 0 0 0 0 0 0 0 127 0"/><feOffset dx="1.766" dy="1.766"/><feGaussianBlur stdDeviation=".883"/><feComposite in2="hardAlpha" k2="-1" k3="1" operator="arithmetic"/><feColorMatrix values="0 0 0 0 1 0 0 0 0 1 0 0 0 0 1 0 0 0 0.5 0"/><feBlend in2="effect2_innerShadow_791_51951" result="effect3_innerShadow_791_51951"/></filter></defs></svg>