<svg xmlns="http://www.w3.org/2000/svg" width="32" height="33" fill="none"><g filter="url(#a)"><mask id="b" width="28" height="29" x="2.231" y="1.541" fill="#000" maskUnits="userSpaceOnUse"><path fill="#fff" d="M2.231 1.541h28v29h-28z"/><path fill-rule="evenodd" d="M27.626 11.244a4.512 4.512 0 1 0-6.382-6.382l-5.155 5.155-5.154-5.155a4.513 4.513 0 0 0-6.382 6.382L9.707 16.4l-5.154 5.154a4.513 4.513 0 0 0 6.382 6.382l5.154-5.154 5.155 5.154a4.513 4.513 0 0 0 6.382-6.382L22.47 16.4z" clip-rule="evenodd"/></mask><path fill="#742901" fill-rule="evenodd" d="M27.626 11.244a4.512 4.512 0 1 0-6.382-6.382l-5.155 5.155-5.154-5.155a4.513 4.513 0 0 0-6.382 6.382L9.707 16.4l-5.154 5.154a4.513 4.513 0 0 0 6.382 6.382l5.154-5.154 5.155 5.154a4.513 4.513 0 0 0 6.382-6.382L22.47 16.4z" clip-rule="evenodd"/><path fill="#fff" d="m27.626 4.862.707-.707zm0 6.382-.708-.707zm-6.382-6.382-.707-.707zm-5.155 5.155-.707.707.707.707.707-.707zm-5.154-5.155.707-.707zm-6.382 0 .707.707zm0 6.382.707-.707zM9.707 16.4l.707.707.707-.707-.707-.708zm-5.154 5.154-.708-.707zm0 6.382-.708.707zm6.382 0 .707.707zm5.154-5.154.707-.708-.707-.707-.707.707zm5.155 5.154.707-.707zm6.382 0-.707-.707zm0-6.382-.707.707zM22.47 16.4l-.707-.708-.707.708.707.707zm4.447-10.83a3.513 3.513 0 0 1 0 4.968l1.415 1.414a5.513 5.513 0 0 0 0-7.796zm-4.967 0a3.513 3.513 0 0 1 4.967 0l1.415-1.414a5.513 5.513 0 0 0-7.796 0zm-5.155 5.155L21.95 5.57l-1.414-1.414-5.155 5.155zM10.227 5.57l5.154 5.155 1.414-1.414-5.154-5.155zm-4.968 0a3.513 3.513 0 0 1 4.967 0l1.415-1.414a5.513 5.513 0 0 0-7.796 0zm0 4.968a3.513 3.513 0 0 1 0-4.968L3.846 4.155a5.513 5.513 0 0 0 0 7.796zm5.154 5.154L5.26 10.538l-1.414 1.414L9 17.106zm-5.154 6.57 5.154-5.155L9 15.69l-5.155 5.155zm0 4.967a3.513 3.513 0 0 1 0-4.968l-1.415-1.414a5.513 5.513 0 0 0 0 7.796zm4.967 0a3.513 3.513 0 0 1-4.967 0l-1.415 1.414a5.513 5.513 0 0 0 7.797 0zm5.155-5.155-5.155 5.155 1.415 1.414 5.154-5.154zm6.569 5.155-5.155-5.155-1.414 1.415 5.155 5.154zm4.968 0a3.513 3.513 0 0 1-4.968 0l-1.414 1.414a5.513 5.513 0 0 0 7.796 0zm0-4.968a3.513 3.513 0 0 1 0 4.968l1.414 1.414a5.513 5.513 0 0 0 0-7.796zm-5.155-5.154 5.155 5.154 1.414-1.414-5.155-5.155zm5.154-6.57-5.154 5.156 1.414 1.414 5.155-5.155z" mask="url(#b)"/></g><defs><filter id="a" width="31.419" height="31.419" x=".38" y=".689" color-interpolation-filters="sRGB" filterUnits="userSpaceOnUse"><feFlood flood-opacity="0" result="BackgroundImageFix"/><feColorMatrix in="SourceAlpha" result="hardAlpha" values="0 0 0 0 0 0 0 0 0 0 0 0 0 0 0 0 0 0 127 0"/><feOffset/><feGaussianBlur stdDeviation=".926"/><feComposite in2="hardAlpha" operator="out"/><feColorMatrix values="0 0 0 0 0 0 0 0 0 0 0 0 0 0 0 0 0 0 0.5 0"/><feBlend in2="BackgroundImageFix" result="effect1_dropShadow_791_51978"/><feBlend in="SourceGraphic" in2="effect1_dropShadow_791_51978" result="shape"/><feColorMatrix in="SourceAlpha" result="hardAlpha" values="0 0 0 0 0 0 0 0 0 0 0 0 0 0 0 0 0 0 127 0"/><feOffset dx="-1.389" dy="-1.389"/><feGaussianBlur stdDeviation=".694"/><feComposite in2="hardAlpha" k2="-1" k3="1" operator="arithmetic"/><feColorMatrix values="0 0 0 0 0 0 0 0 0 0 0 0 0 0 0 0 0 0 0.25 0"/><feBlend in2="shape" result="effect2_innerShadow_791_51978"/><feColorMatrix in="SourceAlpha" result="hardAlpha" values="0 0 0 0 0 0 0 0 0 0 0 0 0 0 0 0 0 0 127 0"/><feOffset dx="1.389" dy="1.389"/><feGaussianBlur stdDeviation=".694"/><feComposite in2="hardAlpha" k2="-1" k3="1" operator="arithmetic"/><feColorMatrix values="0 0 0 0 1 0 0 0 0 1 0 0 0 0 1 0 0 0 0.5 0"/><feBlend in2="effect2_innerShadow_791_51978" result="effect3_innerShadow_791_51978"/></filter></defs></svg>