<svg xmlns="http://www.w3.org/2000/svg" width="26" height="26" fill="none"><g filter="url(#a)"><mask id="b" width="9" height="9" x="2.275" y="2" fill="#000" maskUnits="userSpaceOnUse"><path fill="#fff" d="M2.275 2h9v9h-9z"/><path fill-rule="evenodd" d="M3.618 4.818C3.618 3.814 4.43 3 5.435 3h4.358a.364.364 0 1 1 0 .728H6.167c-.526 0-.619.634-.247 1.006l4.076 4.083a.395.395 0 1 1-.558.557L5.367 5.298c-.376-.376-1.018-.284-1.018.247v3.636a.366.366 0 0 1-.731 0z" clip-rule="evenodd"/></mask><path fill="#742901" fill-rule="evenodd" d="M3.618 4.818C3.618 3.814 4.43 3 5.435 3h4.358a.364.364 0 1 1 0 .728H6.167c-.526 0-.619.634-.247 1.006l4.076 4.083a.395.395 0 1 1-.558.557L5.367 5.298c-.376-.376-1.018-.284-1.018.247v3.636a.366.366 0 0 1-.731 0z" clip-rule="evenodd"/><path fill="#fff" d="m5.367 5.298.353-.354zm4.63 3.519.353-.354zM5.434 3.5c-.727 0-1.317.59-1.317 1.318h-1A2.317 2.317 0 0 1 5.435 2.5zm4.358 0H5.435v-1h4.358zm-3.626-.272h3.626v1H6.167zm.106 1.153 4.077 4.082-.707.707-4.077-4.082zm2.811 5.347L5.013 5.65l.707-.707L9.792 9.02zM3.85 9.18V5.545h1v3.636zm.269-4.363V9.18h-1V4.818zm-.134 5.23a.866.866 0 0 1-.866-.867h1a.134.134 0 0 0-.134-.134zm.865-.867a.866.866 0 0 1-.865.866v-1a.134.134 0 0 0-.135.134zm.164-3.53a.3.3 0 0 0-.115-.072.2.2 0 0 0-.08-.008c-.012.002.001.002.018-.017.02-.023.013-.037.013-.009h-1a.97.97 0 0 1 .226-.64.96.96 0 0 1 .542-.314c.384-.078.806.055 1.103.353zm5.337 2.812a.895.895 0 0 1 0 1.265l-.707-.707a.105.105 0 0 0 0 .149zM6.167 4.228c-.026 0-.012.005.01-.014.02-.017.021-.031.02-.021a.2.2 0 0 0 .007.076.3.3 0 0 0 .07.112l-.708.707a1.23 1.23 0 0 1-.349-1.098c.04-.195.14-.39.313-.538a.97.97 0 0 1 .637-.224zm4.49-.864a.864.864 0 0 1-.864.864v-1a.136.136 0 0 0-.136.136zm-.307 6.364a.895.895 0 0 1-1.266 0l.708-.707a.105.105 0 0 0-.15 0zM9.793 2.5c.477 0 .864.387.864.864h-1c0 .075.06.136.136.136z" mask="url(#b)"/><mask id="c" width="9" height="9" x="15.706" y="2" fill="#000" maskUnits="userSpaceOnUse"><path fill="#fff" d="M15.706 2h9v9h-9z"/><path fill-rule="evenodd" d="M23.356 4.817A1.817 1.817 0 0 0 21.54 3h-4.36a.364.364 0 0 0 0 .727h3.626c.529 0 .622.639.248 1.013l-4.071 4.076a.395.395 0 1 0 .558.558l4.071-4.076c.374-.374 1.012-.282 1.012.247V9.18a.366.366 0 0 0 .731 0z" clip-rule="evenodd"/></mask><path fill="#742901" fill-rule="evenodd" d="M23.356 4.817A1.817 1.817 0 0 0 21.54 3h-4.36a.364.364 0 0 0 0 .727h3.626c.529 0 .622.639.248 1.013l-4.071 4.076a.395.395 0 1 0 .558.558l4.071-4.076c.374-.374 1.012-.282 1.012.247V9.18a.366.366 0 0 0 .731 0z" clip-rule="evenodd"/><path fill="#fff" d="m16.984 8.816.354.354zm.558.558-.353-.353zM21.54 3.5c.727 0 1.317.59 1.317 1.317h1A2.317 2.317 0 0 0 21.54 2.5zm-4.358 0h4.358v-1h-4.36zm3.626-.273h-3.626v1h3.626zm-.106 1.16-4.07 4.076.707.707 4.07-4.077zm-2.805 5.34 4.07-4.076-.707-.706-4.07 4.076zm5.229-.546V5.545h-1V9.18zm-.269-4.364v4.364h1V4.817zm.134 5.23a.866.866 0 0 0 .866-.866h-1c0-.074.06-.134.134-.134zm-.865-.866c0 .478.387.866.866.866v-1c.074 0 .134.06.134.134zm-.158-3.53a.3.3 0 0 1 .113-.07.2.2 0 0 1 .078-.008c.01.002-.003.002-.02-.018-.02-.023-.013-.037-.013-.01h1a.97.97 0 0 0-.225-.638.96.96 0 0 0-.54-.314 1.23 1.23 0 0 0-1.1.352zM16.63 8.463a.895.895 0 0 0 0 1.264l.708-.706a.105.105 0 0 1 0 .149zm4.177-4.236c.027 0 .014.006-.01-.013-.02-.017-.02-.03-.017-.02a.2.2 0 0 1-.008.079.3.3 0 0 1-.07.114l.707.706a1.23 1.23 0 0 0 .35-1.1.96.96 0 0 0-.313-.54.97.97 0 0 0-.639-.226zm-4.49-.863c0 .477.387.863.864.863v-1c.075 0 .136.061.136.137zm.313 6.363c.35.35.917.35 1.266 0l-.707-.706a.105.105 0 0 1 .149 0zm.551-7.227a.864.864 0 0 0-.864.864h1a.136.136 0 0 1-.136.136z" mask="url(#c)"/><mask id="d" width="9" height="9" x="2.275" y="14.737" fill="#000" maskUnits="userSpaceOnUse"><path fill="#fff" d="M2.275 14.737h9v9h-9z"/><path fill-rule="evenodd" d="M3.618 20.92c0 1.004.813 1.817 1.817 1.817h4.358a.364.364 0 0 0 0-.727H6.167c-.526 0-.62-.635-.247-1.007l4.076-4.082a.395.395 0 1 0-.558-.558L5.366 20.44c-.375.376-1.017.284-1.017-.247v-3.637a.366.366 0 0 0-.731 0z" clip-rule="evenodd"/></mask><path fill="#742901" fill-rule="evenodd" d="M3.618 20.92c0 1.004.813 1.817 1.817 1.817h4.358a.364.364 0 0 0 0-.727H6.167c-.526 0-.62-.635-.247-1.007l4.076-4.082a.395.395 0 1 0-.558-.558L5.366 20.44c-.375.376-1.017.284-1.017-.247v-3.637a.366.366 0 0 0-.731 0z" clip-rule="evenodd"/><path fill="#fff" d="m9.996 16.92.354.354zm-.558-.557-.354-.353zm-4.003 5.874c-.727 0-1.317-.59-1.317-1.317h-1a2.317 2.317 0 0 0 2.317 2.317zm4.358 0H5.435v1h4.358zm-3.626.273h3.626v-1H6.167zm.106-1.154 4.077-4.082-.707-.707-4.077 4.083zm2.811-5.346-4.072 4.077.708.707 4.072-4.078zm-5.235.546v3.637h1v-3.637zm.269 4.364v-4.364h-1v4.364zm-.134-5.23a.866.866 0 0 0-.866.866h1c0 .075-.06.135-.134.135zm.865.866a.866.866 0 0 0-.865-.865v1a.134.134 0 0 1-.135-.135zm.163 3.53a.3.3 0 0 1-.115.072.2.2 0 0 1-.08.009c-.01-.002.002-.002.02.017.019.023.012.036.012.009h-1a.97.97 0 0 0 .226.64.96.96 0 0 0 .542.314c.383.078.805-.055 1.103-.353zm5.338-2.812a.895.895 0 0 0 0-1.264l-.707.706a.105.105 0 0 1 0-.149zM6.167 21.51c-.027 0-.013-.006.01.014.02.017.021.03.02.02a.2.2 0 0 1 .007-.076.3.3 0 0 1 .07-.112l-.708-.706a1.23 1.23 0 0 0-.35 1.098c.041.195.14.39.314.538.177.15.4.224.637.224zm4.49.864a.864.864 0 0 0-.864-.864v1a.136.136 0 0 1-.136-.136zm-.307-6.364a.895.895 0 0 0-1.266 0l.708.706a.105.105 0 0 1-.15 0zm-.557 7.227a.864.864 0 0 0 .864-.863h-1c0-.076.06-.137.136-.137z" mask="url(#d)"/><mask id="e" width="9" height="9" x="15.706" y="14.737" fill="#000" maskUnits="userSpaceOnUse"><path fill="#fff" d="M15.706 14.737h9v9h-9z"/><path fill-rule="evenodd" d="M23.358 20.92a1.817 1.817 0 0 1-1.817 1.817h-4.358a.364.364 0 0 1 0-.728h3.626c.528 0 .62-.637.248-1.01l-4.073-4.078a.395.395 0 1 1 .558-.558l4.07 4.076c.375.375 1.015.282 1.015-.247v-3.636a.366.366 0 0 1 .731 0z" clip-rule="evenodd"/></mask><path fill="#742901" fill-rule="evenodd" d="M23.358 20.92a1.817 1.817 0 0 1-1.817 1.817h-4.358a.364.364 0 0 1 0-.728h3.626c.528 0 .62-.637.248-1.01l-4.073-4.078a.395.395 0 1 1 .558-.558l4.07 4.076c.375.375 1.015.282 1.015-.247v-3.636a.366.366 0 0 1 .731 0z" clip-rule="evenodd"/><path fill="#fff" d="m21.613 20.439-.354.353zm-4.629-3.518-.354.353zm4.073 4.078-.354.353zm.484 1.238c.727 0 1.317-.59 1.317-1.318h1a2.317 2.317 0 0 1-2.317 2.318zm-4.358 0h4.358v1h-4.358zm3.626.272h-3.626v-1h3.626zm-.106-1.157-4.073-4.078.708-.707 4.072 4.078zm-2.807-5.342 4.07 4.076-.707.706-4.07-4.076zm5.23.546v3.636h-1v-3.636zm-.268 4.363v-4.363h1v4.363zm.134-5.229c.479 0 .866.388.866.866h-1c0 .074.06.134.134.134zm-.866.866c0-.478.388-.866.866-.866v1c.074 0 .134-.06.134-.134zm-.16 3.53a.3.3 0 0 0 .115.07.2.2 0 0 0 .079.009c.01-.002-.003-.002-.02.017-.02.023-.014.037-.014.01h1a.97.97 0 0 1-.225.639.96.96 0 0 1-.54.313 1.23 1.23 0 0 1-1.102-.352zm-5.336-2.812a.895.895 0 0 1 0-1.264l.708.706a.105.105 0 0 0 0-.149zm4.18 4.235c.026 0 .012-.006-.011.014-.02.017-.02.03-.018.02a.2.2 0 0 0-.008-.078.3.3 0 0 0-.07-.113l.707-.707c.297.298.43.718.35 1.1a.96.96 0 0 1-.313.54.97.97 0 0 1-.638.224zm-4.49.864c0-.477.386-.864.863-.864v1a.136.136 0 0 0 .136-.136zm.31-6.363a.895.895 0 0 1 1.266 0l-.707.706a.106.106 0 0 0 .149 0zm.553 7.227a.864.864 0 0 1-.864-.864h1a.136.136 0 0 0-.136-.136z" mask="url(#e)"/></g><defs><filter id="a" width="29.145" height="29.146" x="-1.684" y="-1.457" color-interpolation-filters="sRGB" filterUnits="userSpaceOnUse"><feFlood flood-opacity="0" result="BackgroundImageFix"/><feColorMatrix in="SourceAlpha" result="hardAlpha" values="0 0 0 0 0 0 0 0 0 0 0 0 0 0 0 0 0 0 127 0"/><feOffset/><feGaussianBlur stdDeviation=".857"/><feColorMatrix values="0 0 0 0 0 0 0 0 0 0 0 0 0 0 0 0 0 0 0.5 0"/><feBlend in2="BackgroundImageFix" result="effect1_dropShadow_791_52268"/><feBlend in="SourceGraphic" in2="effect1_dropShadow_791_52268" result="shape"/><feColorMatrix in="SourceAlpha" result="hardAlpha" values="0 0 0 0 0 0 0 0 0 0 0 0 0 0 0 0 0 0 127 0"/><feOffset dx="-1.286" dy="-1.286"/><feGaussianBlur stdDeviation=".643"/><feComposite in2="hardAlpha" k2="-1" k3="1" operator="arithmetic"/><feColorMatrix values="0 0 0 0 0 0 0 0 0 0 0 0 0 0 0 0 0 0 0.25 0"/><feBlend in2="shape" result="effect2_innerShadow_791_52268"/></filter></defs></svg>